<svg xmlns="http://www.w3.org/2000/svg" width="2414" height="1588" viewBox="0 0 2048 1347"><path d="M1514 88h104l5 4 1 2 1 149 1 39 9-9 7-8 52-52 7-8 76-76 7-8 8-8 5-3 9 1 7 7 8 7 19 19 8 7 50 50 3 6v7l-6 8-7 7-7 8-121 121-7 8-7 7h-2l8 14 17 28 14 24 16 28 16 27 28 50 14 24 13 23 13 22 12 20v4h-169l-7-10-12-21-16-27-13-23-9-15-15-26-16-27-4 2-12 12h-2l-1 3h-2l1 108 1 23-1 1-163 1-3-3-1-3V463l1-205 1-141 2-23 6-4 11-1zM385 81h34l10 2 9 3 14 4 12 6 11 8 7 8 12 13 10 16 9 21 3 9 1 18 1 81 1 20 1 42v64l1 27v77l-1 63-3 22-7 21-7 12-6 7-15 9-16 5-4 1h-99l-2-2 21-8 16-8 10-6 16-13 7-7 6-12 3-12 1-7v-30l-3-16-7-20-5-12-11-17-8-10-6-8-8-8-9-14-6-17-1-9 2-11 7-17 7-12 6-10 6-13 3-14v-19l-5-24-8-18-4-5v-2l-4-2-11-9-11-8-13-6-9-2-19-1-17 2-24 8-4 4h-2l-2 4-8 10-9 16-6 21-4 25-5 14-9 13-8 7-13 6-4 2 1 3 12 4 19 4 14 7 10 8 6 9 6 12-1 15-6 17-8 14-12 16-12 13-8 10-7 10-11 21-4 14-1 20v15l5 16 9 15 7 7 13 8 17 8 17 5-1 2-34 2-61 1h-76l-1-3v-22l-1-62v-86l-1-74V281l-1-38v-54l-1-22v-15l-1-22v-14l-1-27 17-1h32l26-1 48-1h18l39-2h17l25-1h12l18-1h18zM1159 78h113l15 3 20 8 13 9 16 14 10 10 11 15 12 19 12 26 8 29 8 34 2 15v29l-5 5-22 1-59 3h-35l-5-3-2-3-3-10-6-9-9-9-14-9-13-6-16-5-16-2h-13l-12 5-12 7-12 11-9 10-11 18-9 19-5 15-5 22-3 26v31l4 28 7 25 8 20 8 14 8 10 7 8 13 10 12 6 8 2 22-1 13-3 16-8 11-9 9-11 8-14 5-15 4-15 5-3 11-1 110-1 5 5 3 8v12l-4 20-9 26-14 29-13 23-12 18-14 19-10 11-6 7-11 9-2 1-201 1h-38l-12-3-6-3-7-7-14-21-16-27-10-21-9-23-8-25-9-40-5-29-3-28-1-15v-47l2-25 5-33 7-30 8-26 11-28 8-17 12-21 8-12 12-16 18-20 10-9 14-10 17-9 23-9 19-4zM884 87h30l17 3 6 3 3 6 1 11 1 49 1 19v174l-1 85v136l-2 9-7 21-6 11-12 13-7 7-8 4-123 1H646l-18-8-9-6-10-9-11-14-7-12-3-11-1-149V277l2-150 2-26 5-5 7-3 12-2 31-2h23l26 3 7 4 2 4 1 7 1 23 1 86 2 85 1 208 7 9 8 7 16 8 17 4h19l20-4 17-7 12-8 10-9 1-16-1-203V189l1-89 5-5 9-4 18-3zM1380 785h7l5 3 1 1 1 10 1 24 1 59v26l-4 4h-109v24l1 77 1 168v55l-1 12-4 6-6 2-35 1h-90l-7-3-3-5V974l1-46 1-16h-62l-32-1-7-2-2-3 1-92 1-23 2-3 79-1 167-1z"/><path fill="#D81E0F" d="M786 787h133l6 4 1 4-8 42-28 139-11 57-12 61-12 68-5 24-3 5-5 1-3-6-7-36-12-65-16-86-21-119-11-77v-12l6-3zM846 1226h10l10 4 5 6 4 10v10l-5 10-5 4-10 4h-8l-8-3-7-6-5-10v-12l4-8 7-6z"/></svg>