<?xml version="1.0" encoding="utf-8"?>
<!-- Generator: Adobe Adobe Illustrator 24.2.0, SVG Export Plug-In . SVG Version: 6.00 Build 0)  -->
<svg version="1.1" id="Layer_2" xmlns="http://www.w3.org/2000/svg" xmlns:xlink="http://www.w3.org/1999/xlink" x="0px" y="0px"
	 viewBox="0 0 612 792" style="enable-background:new 0 0 612 792;" xml:space="preserve">
<style type="text/css">
	.st0{fill:#C62622;}
	.st1{fill:#C72922;}
</style>
<path d="M110.42,287.51c3.45-11.01,12.91-19.1,22.91-24.85c16.02-9.21,34.59-13.93,53.07-13.49c0.94,12.9,1.6,25.82,1.98,38.74
	c0.09,2.97-0.26,6.63-3,7.79c-8.32,3.52-14.79,11.14-16.92,19.92c-2.13,8.78,0.13,18.51,5.91,25.46c4.27,5.12,10.17,8.63,16.3,11.27
	c19.3,8.32,41.94,8.57,61.42,0.68c8.73-3.54,17.3-9.17,20.93-17.87c3.27-7.82,1.85-17.22-2.97-24.19
	c-4.82-6.97-12.75-11.51-21.11-12.92c-3.12-0.53-3.86-4.62-3.87-7.78c-0.03-11.23-0.06-22.47-0.09-33.7
	c-0.01-2.35,0.09-4.95,1.74-6.62c2.13-2.16,5.68-1.66,8.61-0.9c18.99,4.92,36.76,14.45,51.36,27.55c2.17,1.95,4.35,4.08,5.32,6.84
	c0.7,1.98,0.72,4.12,0.73,6.22c0.16,25.82,0.32,51.64,0.48,77.46c0.02,2.92,0.02,5.95-1.15,8.63c-1.46,3.37-4.54,5.72-7.58,7.77
	c-19.87,13.4-43.5,20.55-67.32,23.23c-33.75,3.8-69.33-1.5-97.93-19.82c-12.17-7.79-23.29-18.43-27.76-32.17
	c-2.15-6.63-2.66-13.67-2.91-20.63c-0.35-9.77-0.21-19.55-0.07-29.33C108.58,298.97,108.68,293.06,110.42,287.51z"/>
<path d="M369.41,254.72c-0.01-0.9,0.01-1.89,0.58-2.59c0.71-0.88,2-0.98,3.13-1.01c12.12-0.31,24.24-0.62,36.36-0.93
	c1.28-0.03,2.66-0.04,3.73,0.67c1.74,1.16,1.9,3.61,1.87,5.7c-0.12,10.24-0.23,20.49-0.35,30.73c-0.02,2.03,0.61,4.77,2.64,4.76
	c39.68-0.26,79.35-0.52,119.03-0.77c1.82-0.01,3.92,0.11,5.01,1.57c0.73,0.98,0.77,2.3,0.78,3.53c0.11,14.74,0.21,29.49,0.32,44.23
	c0.02,2.98-3.99,3.92-6.97,3.9c-40.11-0.21-80.21-0.42-120.32-0.64c-0.16,10.96-0.33,21.92-0.49,32.89
	c-0.02,1.45-0.15,3.11-1.32,3.96c-0.8,0.58-1.88,0.6-2.87,0.59c-13.43-0.13-26.86-0.25-40.29-0.38
	C369.97,338.86,369.69,296.79,369.41,254.72z"/>
<path d="M248.27,614.57c-5.29,4.29-10.61,9.36-17.38,10.12c-8.82,1-16.47-5.58-24.76-8.75c-9.73-3.72-21.28-2.51-29.85,3.41
	c-8.57,5.92-13.82,16.47-13.06,26.87c0.76,10.39,7.62,20.18,17.26,24.16c6.05,2.5,12.79,2.76,19,4.83s12.35,6.98,12.49,13.52
	c3.15-0.55,3.95-4.59,4.45-7.75c1.01-6.36,4.14-12.88,9.94-15.68c5.76-2.78,12.79-1.2,18.31,2.03c5.52,3.24,9.99,7.94,14.96,11.97
	c7.71,6.26,17.25,11.03,27.17,10.49c13.03-0.71,24.75-11.69,26.31-24.65c0.88,20.45,1.28,40.93,1.2,61.4
	c-67.28,0.57-134.56,1.14-201.84,1.72c-0.94-33.61-1.87-67.22-2.81-100.83c-0.25-8.88-0.46-17.99,2.41-26.4
	c3.21-9.4,10.33-17.39,19.3-21.65c9.74-4.63,20.92-4.84,31.7-4.96c20.69-0.23,41.39-0.45,62.08-0.68
	c19.41-0.21,38.82-0.42,58.21,0.19c10.31,0.33,22.28,1.83,27.62,10.65c2.5,4.14,2.99,9.15,3.28,13.97
	c0.64,10.48,0.67,20.99,0.1,31.47c-2.54-8.1-5.95-16.32-12.36-21.89c-7.41-6.43-18.03-8.35-27.68-6.58S255.89,608.4,248.27,614.57z"
	/>
<path d="M160.92,66.46c17.98,17.85,35.97,35.71,53.95,53.56c1.35,1.34,3.62,0.46,5.27-0.49c31.09-17.8,62.18-35.59,93.26-53.39
	c0.05,18.71,0.11,37.42,0.16,56.12c0,1.7-0.01,3.48-0.81,4.97c-0.89,1.66-2.61,2.69-4.24,3.64c-15.75,9.13-31.49,18.26-47.24,27.39
	c-2.59,1.5-2.09,5.74,0.21,7.66c2.3,1.92,5.52,2.17,8.51,2.3c14.39,0.64,28.82,0.66,43.21,0.04c0.13,20.16,0.26,40.33,0.38,60.49
	c-65.06-0.12-130.13-0.25-195.19-0.37c-1.81,0-3.85-0.1-5.09-1.43c-1.13-1.21-1.2-3.03-1.21-4.69c-0.09-17.32-0.17-34.64-0.26-51.97
	c-0.01-1.32,0.09-2.84,1.15-3.61c0.69-0.5,1.61-0.53,2.46-0.53c22.93-0.21,45.85-0.42,68.78-0.63
	c-20.86-20.62-41.72-41.24-62.58-61.86c-0.83-0.82-1.71-1.74-1.82-2.91c-0.13-1.45,0.96-2.69,1.98-3.72
	c10.14-10.33,20.28-20.66,30.42-30.99c0.98-1,2.06-2.05,3.45-2.26C157.7,63.48,159.47,65.03,160.92,66.46z"/>
<path d="M312.52,432.04c1.03,2.93,1.06,6.11,1.07,9.23c0.12,24.81,0.23,49.61,0.35,74.42c0.03,6.11,0,12.48-2.77,17.92
	c-3.22,6.34-9.78,10.47-16.63,12.38c-6.85,1.91-14.07,1.89-21.19,1.86c-51.62-0.24-103.24-0.47-154.87-0.71
	c-3.22-0.01-4.68-4-5.12-7.19c-1.36-9.95-1.4-20.08-0.14-30.05c0.13-1.04,0.3-2.13,0.97-2.94c1.03-1.24,2.85-1.39,4.46-1.44
	c44.41-1.36,88.85-1.77,133.27-1.23c5.99,0.07,12.36,0.06,17.43-3.14c5.13-3.24,7.97-9.33,8.5-15.37
	c0.52-6.04-0.99-12.09-2.99-17.82c-1.6-4.59-3.91-9.48-8.37-11.42c-2.42-1.05-5.15-1.06-7.79-1.06
	c-46.96,0.09-93.91,0.18-140.87,0.27c-3.09,0.01-4.66-3.67-5.24-6.71c-1.54-8.2-1.65-16.67-0.32-24.9c0.29-1.8,0.72-3.73,2.08-4.95
	c1.56-1.4,3.86-1.48,5.95-1.47c52.37,0.02,104.75,0.03,157.12,0.05c9.86,0,20.45,0.23,28.47,5.96
	C308.84,425.82,311.32,428.65,312.52,432.04z"/>
<path d="M110.42,287.51c3.45-11.01,12.91-19.1,22.91-24.85c16.02-9.21,34.59-13.93,53.07-13.49c0.94,12.9,1.6,25.82,1.98,38.74
	c0.09,2.97-0.26,6.63-3,7.79c-8.32,3.52-14.79,11.14-16.92,19.92c-2.13,8.78,0.13,18.51,5.91,25.46c4.27,5.12,10.17,8.63,16.3,11.27
	c19.3,8.32,41.94,8.57,61.42,0.68c8.73-3.54,17.3-9.17,20.93-17.87c3.27-7.82,1.85-17.22-2.97-24.19
	c-4.82-6.97-12.75-11.51-21.11-12.92c-3.12-0.53-3.86-4.62-3.87-7.78c-0.03-11.23-0.06-22.47-0.09-33.7
	c-0.01-2.35,0.09-4.95,1.74-6.62c2.13-2.16,5.68-1.66,8.61-0.9c18.99,4.92,36.76,14.45,51.36,27.55c2.17,1.95,4.35,4.08,5.32,6.84
	c0.7,1.98,0.72,4.12,0.73,6.22c0.16,25.82,0.32,51.64,0.48,77.46c0.02,2.92,0.02,5.95-1.15,8.63c-1.46,3.37-4.54,5.72-7.58,7.77
	c-19.87,13.4-43.5,20.55-67.32,23.23c-33.75,3.8-69.33-1.5-97.93-19.82c-12.17-7.79-23.29-18.43-27.76-32.17
	c-2.15-6.63-2.66-13.67-2.91-20.63c-0.35-9.77-0.21-19.55-0.07-29.33C108.58,298.97,108.68,293.06,110.42,287.51z"/>
<path d="M369.41,254.72c-0.01-0.9,0.01-1.89,0.58-2.59c0.71-0.88,2-0.98,3.13-1.01c12.12-0.31,24.24-0.62,36.36-0.93
	c1.28-0.03,2.66-0.04,3.73,0.67c1.74,1.16,1.9,3.61,1.87,5.7c-0.12,10.24-0.23,20.49-0.35,30.73c-0.02,2.03,0.61,4.77,2.64,4.76
	c39.68-0.26,79.35-0.52,119.03-0.77c1.82-0.01,3.92,0.11,5.01,1.57c0.73,0.98,0.77,2.3,0.78,3.53c0.11,14.74,0.21,29.49,0.32,44.23
	c0.02,2.98-3.99,3.92-6.97,3.9c-40.11-0.21-80.21-0.42-120.32-0.64c-0.16,10.96-0.33,21.92-0.49,32.89
	c-0.02,1.45-0.15,3.11-1.32,3.96c-0.8,0.58-1.88,0.6-2.87,0.59c-13.43-0.13-26.86-0.25-40.29-0.38
	C369.97,338.86,369.69,296.79,369.41,254.72z"/>
<path d="M248.27,614.57c-5.29,4.29-10.61,9.36-17.38,10.12c-8.82,1-16.47-5.58-24.76-8.75c-9.73-3.72-21.28-2.51-29.85,3.41
	c-8.57,5.92-13.82,16.47-13.06,26.87c0.76,10.39,7.62,20.18,17.26,24.16c6.05,2.5,12.79,2.76,19,4.83s12.35,6.98,12.49,13.52
	c3.15-0.55,3.95-4.59,4.45-7.75c1.01-6.36,4.14-12.88,9.94-15.68c5.76-2.78,12.79-1.2,18.31,2.03c5.52,3.24,9.99,7.94,14.96,11.97
	c7.71,6.26,17.25,11.03,27.17,10.49c13.03-0.71,24.75-11.69,26.31-24.65c0.88,20.45,1.28,40.93,1.2,61.4
	c-67.28,0.57-134.56,1.14-201.84,1.72c-0.94-33.61-1.87-67.22-2.81-100.83c-0.25-8.88-0.46-17.99,2.41-26.4
	c3.21-9.4,10.33-17.39,19.3-21.65c9.74-4.63,20.92-4.84,31.7-4.96c20.69-0.23,41.39-0.45,62.08-0.68
	c19.41-0.21,38.82-0.42,58.21,0.19c10.31,0.33,22.28,1.83,27.62,10.65c2.5,4.14,2.99,9.15,3.28,13.97
	c0.64,10.48,0.67,20.99,0.1,31.47c-2.54-8.1-5.95-16.32-12.36-21.89c-7.41-6.43-18.03-8.35-27.68-6.58S255.89,608.4,248.27,614.57z"
	/>
<path d="M160.92,66.46c17.98,17.85,35.97,35.71,53.95,53.56c1.35,1.34,3.62,0.46,5.27-0.49c31.09-17.8,62.18-35.59,93.26-53.39
	c0.05,18.71,0.11,37.42,0.16,56.12c0,1.7-0.01,3.48-0.81,4.97c-0.89,1.66-2.61,2.69-4.24,3.64c-15.75,9.13-31.49,18.26-47.24,27.39
	c-2.59,1.5-2.09,5.74,0.21,7.66c2.3,1.92,5.52,2.17,8.51,2.3c14.39,0.64,28.82,0.66,43.21,0.04c0.13,20.16,0.26,40.33,0.38,60.49
	c-65.06-0.12-130.13-0.25-195.19-0.37c-1.81,0-3.85-0.1-5.09-1.43c-1.13-1.21-1.2-3.03-1.21-4.69c-0.09-17.32-0.17-34.64-0.26-51.97
	c-0.01-1.32,0.09-2.84,1.15-3.61c0.69-0.5,1.61-0.53,2.46-0.53c22.93-0.21,45.85-0.42,68.78-0.63
	c-20.86-20.62-41.72-41.24-62.58-61.86c-0.83-0.82-1.71-1.74-1.82-2.91c-0.13-1.45,0.96-2.69,1.98-3.72
	c10.14-10.33,20.28-20.66,30.42-30.99c0.98-1,2.06-2.05,3.45-2.26C157.7,63.48,159.47,65.03,160.92,66.46z"/>
<path class="st0" d="M371.67,424.25c0.54-0.17,1.13-0.07,1.69,0.04c47.61,9.27,95.21,18.54,142.82,27.82
	c1.01,0.2,2.32,1.06,1.73,1.9c-0.23,0.32-0.65,0.42-1.04,0.5c-48.55,9.72-97.31,18.34-146.25,25.87
	c-1.33-17.52-1.54-35.12-0.63-52.67C370.07,426.34,370.37,424.66,371.67,424.25z"/>
<path class="st1" d="M528.43,449.49c1.35-4.07,6-6.61,10-5.45s6.7,5.83,5.82,10.04c-0.95,4.53-5.95,7.65-10.25,6.4
	C529.69,459.24,526.98,453.87,528.43,449.49z"/>
<path d="M312.52,432.04c1.03,2.93,1.06,6.11,1.07,9.23c0.12,24.81,0.23,49.61,0.35,74.42c0.03,6.11,0,12.48-2.77,17.92
	c-3.22,6.34-9.78,10.47-16.63,12.38c-6.85,1.91-14.07,1.89-21.19,1.86c-51.62-0.24-103.24-0.47-154.87-0.71
	c-3.22-0.01-4.68-4-5.12-7.19c-1.36-9.95-1.4-20.08-0.14-30.05c0.13-1.04,0.3-2.13,0.97-2.94c1.03-1.24,2.85-1.39,4.46-1.44
	c44.41-1.36,88.85-1.77,133.27-1.23c5.99,0.07,12.36,0.06,17.43-3.14c5.13-3.24,7.97-9.33,8.5-15.37
	c0.52-6.04-0.99-12.09-2.99-17.82c-1.6-4.59-3.91-9.48-8.37-11.42c-2.42-1.05-5.15-1.06-7.79-1.06
	c-46.96,0.09-93.91,0.18-140.87,0.27c-3.09,0.01-4.66-3.67-5.24-6.71c-1.54-8.2-1.65-16.67-0.32-24.9c0.29-1.8,0.72-3.73,2.08-4.95
	c1.56-1.4,3.86-1.48,5.95-1.47c52.37,0.02,104.75,0.03,157.12,0.05c9.86,0,20.45,0.23,28.47,5.96
	C308.84,425.82,311.32,428.65,312.52,432.04z"/>
</svg>
