<?xml version="1.0" encoding="UTF-8"?>
<svg version="1.1" viewBox="0 0 2048 1635" width="2418" height="1931" xmlns="http://www.w3.org/2000/svg">
<path transform="translate(0)" d="m0 0h2048v1635h-2048z" fill="#FDFDFD"/>
<path transform="translate(456,213)" d="m0 0 9 1 30 10 103 41 15 6 6-1 25-12 19-10 16-8 7-1 24 5 28 8 11 3 5-1 14-11 38-26 5-1 10 3 16 10 14 10 14 11 13 10 22 18h16l49-5 19-1 5 4 4 14 6 28 1 8 26 12 22 12 30 16 8 5 3 5 1 45-1 5-1 15 3 1h-3v5h2v2l4-2v4h2l7-10h8l3 1 2 5h2l3 3v9l-3 3v2l2 2-2 5h3l-1-3 1-2h4l1 8 4-3h7l3 3v3l-5 2-8-1-3 3h-4l-2 7-2 3h3l1-4 3 3-1 5-4-1-5 5-6 2-1-3 2-7-1-4-4 1v-4h-4l-1 3-4-1v2l-6 1-2-4 1 5-2 3v11l-3 32-2 12h-3l-1-24-1-6-3-1 1-8-2-2-1 3v17l-5 1-2-13 1-14-7 1-1 3h-3l-2-5h-2l-2-4v-3l-8 3-3 16-6 79-1 10h3v2l9 1 13 4 7 3 12 3 7 2 15 4h3l5-19 3-9h2l1-4 6-1 4 4 1 12 1 7-2 17 24 6 5 2 16 4 18 5 12 2 7 2 23 5 9 3 30 6 6 2 7 2 11 3 15 8 3 1v2l5 2 4 5 2 4-1 7-3 5-7 4-7 3-12 5-17 9-3 2h-3l-1 3-5 1v2l-11 7h-3v2l-21 14h-2v2l-6 3-3 1v2l-12 6-16 10-4 1v2l-6 2v2l-7 4h-2v2l-4 1v2l-6 2v2l-3 1-1 2-6 2v2h-3l-1 3h-3v2l-7 5h-3v2l-6 4h-2v2l-4 1v2l20-2 19-2 1-1 30-5 1-1 16-2 12-2 14-2 3-1 19-2 13-3 18-2 6 2 5 5v12l-1 3-6 5-1 2h-2l-2 4-7 8-9 10-8 8-7 8-16 16-7 8-9 10-12 17-9 12-13 18-12 17-13 17-13 19-11 16-12 17-15 22-26 36-13 19-7 10-8 12-9 15-7 11-12 20-12 19-13 21-12 20-10 14-6 8-6 6-7 1-5-5 1-13 3-8 4-9 6-13h2l1-6 5-7 5-9 13-23 12-19 11-18 6-10 5-9 1-2h2l1-5 8-13 5-10h2l1-5 3-5 7-12h2l1-5 6-11h2l2-5 3-6 5-8 2-4h2v-3h2l1-4 4-8h2l2-5 5-9h2l2-6h2l1-4h2l1-5 3-4h2l1-5 3-4 1-3h2l1-4h2l1-4 8-12 7-10 2-3h2v-3l4-4 10-15 4-4 2-3h2l2-4 2-3h2l1-3h2l2-5 3-4h2l1-4h2l2-5 4-4 1-3 4-4h2l2-5h2l2-4 5-6 3-3-5 2-18 2-2 1-31 3-34 3-1 1-25 2-7 1-2 13-2 14-1 2-5 35-1 1-2 19-2 9-5 32-1 1-5 28h-2l-1 11-10 30-3 8h-2l-1 5-6 7-4 1v2h-10l-8-4-1-4h-2l-1-3v-14l2-9 2-17 2-8 4-24 2-7 4-24 1-7 1-1 2-15 3-14 6-31 3-16 3-15 1-2-14 2-9 3h-6l-3-3v-6l4-5h2v-2l7-5h2l1-3 10-7h2v-2l3-1 5-5h2l2-10 5-30 2-8 4-22 2-7 5-28 1-1 2-15 2-7 3-14 1-8 2-7 5-25 2-7 1-8-6-2-4-1v-2l-9-1-8-3-12-5-16-5v-2l-4 1 16 12 14 11 15 12-12 60-5-2-28-16-13-8v10l-12 144-10 121-1 10 15-4 6-1-1 12-4 28-1 3-17 4h-2l-1 20-10 117-1 7-9 10-13 13-15 11-28 17-20 11-20 8-26 8-24 5-26 4-30 2h-22l-34-3-24-4-40-10-22-7-13-5 1 17 1 33 3 60 3 62 1 30h-3l-7-51-5-46-4-46-1-20v-17l-3 1-2-1v-5l-2-1 1-8 5-2v-8l-8 1-5-2-1-3h-2l-1-4-1-1h-2v-2h-2v3h2v2l-12 1 1 13 4 54 2 18-3-1-4-23-3-27-4-26-4-1 1 9-2 2h-3l-1-6v-3l-3 1-4-1-1 2v-3l-2-1h2v-13l-3 1-2-3h-2v-2l-6-3v2h-2v-3h-2l1 6h-2l-1 3-3 1-2-1 1-3 3 1v-2l-5 1-3-3 1-2h3l-1-8h-4v2h-2l-1-5h-3v-4h3l1-5 4-5-4-2v-3l-6-2-1-3-3-1 2-2v-6l-3 1-5-1-1-4h8v-8l1-3 1-5 8-6h5l1-4h-2l-1-3 2-2-1-2 3-3 2 1v5 4l-1 3 7 2-3-3v-4h2v-2h-2v-3h2v-5l-3-5 1-2-4 1-2-6v4 2l-6 1v8l-2 2-4-1-1-7 2-2 3 2v-3l-2-1-2-3 3-1v-5l7 1-3-9h2l-1-6-1-1h-2l2-6 3-3-3-8v-3l-3-2h2l-1-3 1-4h-5l-1-3h3l-1-6h2l-5-8v-7h-2v-4l-3-1 1-3-2-3v-3h-2l-1-3-1-6h-2v-4h-2l-1-7v-7h-3l4-5-1-12-4-13-3-5 1-2-2-1-1-4-2-2 1-4-5-9v-3l-2-1 2-4-2-5-2-12-7-23-4-14-1-3h-2l-1 2-2-4 4-1-1-5-2-1v-5h-2l-3-12-3-3h2l-1-7-6-24-7-23-6-21-14-47-2-7-17-60-11-42-4-13h-10l-6-4-13-13-7-8-11-11-7-8-12-12 3 21 2 1v2h-2l5 36 1 8v11l-2-1-8-51v-2l-3-1 1-8-4-25h-3l-3-5-10-10h-4v-5l-3-3-1-6 4-8 14-20 10-15 19-28 12-17 9-12 13-17 3-4-16-16-9-11-8-11-1-3v-8l8-11 15-16 19-19 8-7 22-22 8-7 30-30z" fill="#1AB0E7"/>
<path transform="translate(983,542)" d="m0 0h1l-2 46-3 66-4 111-5 152-4 125-3 82-1 15-19 19-14 11-17 12-24 14-23 11-26 10-24 7-20 4-7 1h-25l-36-6-33-8-24-7-13-5-1-8 1-5-1-3h-2l-2-4-2-1v-2l-7-1-2-2-2-1 1-3h-7l-3-2v-3l-3-1-2-4-6-9-1-3h-2l-1-9-2 1v-4l-1-5-6-9-1-2-2-1-1-4-1-6h2l-1-7 2-2-1-3 2-9-3-9v-4h-2l-3-3v-4l-3-1-2-3v-4l-2-1h2v-2l-4-2-1-3-1-13 1-2h2v-2l-3-1v-5h-2l-2-9 1-4h-3l-1-6 4 1v-2l-4-1-4-5 2-6-3-5 2-1v-2l3 1 1 3h3v-2h2v-2h-3v2h-2l-2-3-4-1-1-4 4-2h-5v-4l2-1-3-1-1-7 1-4-4-1h-2l-1-5h2l-1-3 2-6-3-4 1-5h-3l-2-8 2-2h-2l-1-6-4-1-2-8-1-5-2-13v-3l-1-5v-8l2-4-1-3 1-3-2-8-1-2h-1v-5l-3-1h2l-3-5-2-10-2-6-1-9h-2l-5-10-4-20-7-30-2-11-2-9-1-4-11-50-5-24-4-17-1-4-16-66-2-7 2-1h7l10 8 38 28 12 9 18 13 5 3 9-1 21-16 14-10 21-16 14-10 19-14 9-7h151l14 11 18 13 19 13 13 9 7 1 20-8 33-15 17-8 4-6z" fill="#FDFDFD"/>
<path transform="translate(464,229)" d="m0 0 6 2 23 10 100 40 17 7h10l16-5 29-15 22-11 5-1 16 6 35 10h11l14-7 14-10 28-21 4 1 10 7 17 14 19 14 20 15 9 7 2 2 7 1 51-5 17-2h7l10 42 3 15 5 2 22 12 16 9 27 14 14 8-1 35-2 1-1 4h-2l-1-3-2 1v2h2l1 3-4 1 5 6v2h-2l-1 3 1 2h3v2l-5 2-1 5h-5v2h-2l2 6 3-1-1 7-23 7-29 9-15 5-4 6-14 37-9 25-3 5-24 10-35 17-5-2-13-11-12-9-18-14-24-16-8-1-72-1-17-1h-54l-11 10-19 14-17 13-21 16-19 14-15 11-9-6-21-16-14-10-36-26-6-3-12 1-59 9-25 4h-3l-2-2-7-6-14-14-5-6v-2l-4-2-12-12-2-4-4-2-6-5-1-3-4-2-8-8 2-5 26-39 16-25 12-19 13-19 7-10-2-11-6-11-14-18-10-14 2-4 16-16 8-7 15-15 7-8 39-39 8-7z" fill="#FDFDFD"/>
<path transform="translate(1112,587)" d="m0 0 5 1 2 3 1 12 1 7-2 17 24 6 5 2 16 4 18 5 12 2 7 2 23 5 9 3 30 6 6 2 7 2 11 3 15 8 3 1v2l5 2 4 5 2 4-1 7-3 5-7 4-7 3-12 5-17 9-3 2h-3l-1 3-5 1v2l-11 7h-3v2l-21 14h-2v2l-6 3-3 1v2l-12 6-16 10-4 1v2l-6 2v2l-7 4h-2v2l-4 1v2l-6 2v2l-3 1-1 2-6 2v2h-3l-1 3h-3v2l-7 5h-3v2l-6 4h-2v2l-4 1v2l20-2 19-2 1-1 30-5 1-1 16-2 12-2 14-2 3-1 19-2 13-3 18-2 6 2 5 5v12l-1 3-6 5-1 2h-2l-2 4-7 8-9 10-8 8-7 8-16 16-7 8-9 10-12 17-9 12-13 18-12 17-13 17-13 19-11 16-12 17-15 22-26 36-13 19-7 10-8 12-9 15-7 11-12 20-12 19-13 21-12 20-10 14-6 8-6 6-7 1-5-5 1-13 3-8 4-9 6-13h2l1-6 5-7 5-9 13-23 12-19 11-18 6-10 5-9 1-2h2l1-5 8-13 5-10h2l1-5 3-5 7-12h2l1-5 6-11h2l2-5 3-6 5-8 2-4h2v-3h2l1-4 4-8h2l2-5 5-9h2l2-6h2l1-4h2l1-5 3-4h2l1-5 3-4 1-3h2l1-4h2l1-4 8-12 7-10 2-3h2v-3l4-4 10-15 4-4 2-3h2l2-4 2-3h2l1-3h2l2-5 3-4h2l1-4h2l2-5 4-4 1-3 4-4h2l2-5h2l2-4 5-6 3-3-5 2-18 2-2 1-31 3-34 3-1 1-25 2-7 1-2 13-2 14-1 2-5 35-1 1-2 19-2 9-5 32-1 1-5 28h-2l-1 11-10 30-3 8h-2l-1 5-6 7-4 1v2h-10l-8-4-1-4h-2l-1-3v-14l2-9 2-17 2-8 4-24 2-7 4-24 1-7 1-1 2-15 3-14 6-31 3-16 3-15 1-2-14 2-9 3h-6l-3-3v-6l4-5h2v-2l7-5h2l1-3 10-7h2v-2l3-1 5-5h2l2-10 5-30 2-8 4-22 2-7 5-28 1-1 2-15 2-7 3-14 1-8 2-7 5-25 2-7 1-8-6-2-4-1v-2l-9-1-8-3-12-5-16-5v-2l-9-1-9-3-8-3v-2l-9-2-13-7-4-4 1-6 1-1h5l20 8 19 5v2l9 1 13 4 7 3 12 3 7 2 15 4h3l5-19 3-9h2l1-4z"/>
<path transform="translate(1535,662)" d="m0 0h7v2l4 1 3 4 2 7v14l-1 3-2 32-3 61-1 14-1 3v8l8-3h4v-2l7-3 8-1v-2l20-6 6-2h4v-2l9-2 7-2 12-3 16-3 19-2 3-1 29-1 17 1 12 3 6 2 1 2h-3v2l-16 2-19 4-18 2-8 2-27 5-6 2-12 3h-4v2l-11 2-8 3-14 4-9 3-5 2h-4v2l-9 3-10 3-6 2-2 15-1 27-1 169-3 1v2h-2l-2 4h-2l-1 3h-2l-2 4-3 5h-2v2l-2 1-1 3-6 5-1-1-1-14-2-18-1-17-1-6-1-41v-64l1-27 1-6 2-31 1-3-16 6h-4v2l-8 1v2l-17 6-4 2h-4v2l-2 1-8 16h-2l-1 5-6 10-1 3-2 1-4 7h-2l-1 5-7 11h-2l-1 5h-2l-1 5h-2l-2 6-3 5h-2l-2 5-2 3h-2l-1 4-3 2h-6l-2-3 1-8 1-3h2l1-5 6-11 2-5 2-4h2l1-6h2l2-6 8-13 1-3h2l2-5 5-11-7 3-13 4-1 1h-8v-2h-2l1-5 7-5 12-5 9-5h3v-2l9-4h2l1-5 8-15 7-15 5-11h2l1-5 3-7h2l1-6 4-9h2l1-4 6-14 6-12 6-13 1-3h2l1-6 4-9h2l1-6 8-15 8-18 3-7h2l1-6 4-6z"/>
<path transform="translate(1365,1030)" d="m0 0h42l10 1 19 6 12 7 4 8-1 7-3 6-10 8h-2v2l-4 1v2l-5 1v2l-4 2 10 2 10 4v2l5 1v2h3l5 7v4h2v9h-2l-1 7-4 8-2 1-1 3-5 4h-2v2l-6 4h-2l-1 3-8 4h-2v2l-16 7-18 6-10 2-1 1-16 2h-9l-13-2v-2l-4-2-3-5-2-4 4-52 1-3 2-27 1-1 2-16-1-3-3-1v-3h-2v-9l4-4 8-3 7-2z" fill="#1AB0E7"/>
<path transform="translate(1350,660)" d="m0 0 7 1 2 4v13l-1 10-2 9-3 15-3 14-5 24-2 7-4 17-3 13-2 5-2 8-5 19-4 16-2 7-6 22-2 12h-2l-1 9-3 14h-2l-1 12-5 18-2 11-2 6-3 12-1 5h-2l-1 12-4 16-2 7-3 12 9-3h3v-2l17-5 6-2 28-7 17-4 15-3 6-2 27-4h7v-2l26-2 6 1-3 1v2l-14 5h-4v2l-11 1v2l-8 1v2l-8 3-11 5-15 6-16 6-11 4h-3v2l-12 4h-3v2l-14 5-7 3h-3v2l-9 4h-3v2l-12 5h-3v2l-10 4h-3v2h-8l-5-3-3-6 1-9 2-9 2-7 5-22 3-13 2-5 4-18 2-6 5-23 2-6 2-7 2-9 2-7 5-21 4-14 3-13 2-9 2-7 5-23 4-15 3-14 2-9 2-7 5-20 5-18 4-15 2-5 5-19 3-9 5-12 1-4h2l1-4z"/>
<path transform="translate(1666,1065)" d="m0 0h34l9 1 13 3v2l9 2 6 3v2h3l6 7 3 9-1 8-1 5h-2l-1 4-4 6-5 4-1 2h-3v2l-3 2h-3l-1 3h-3v2l-6 3-3 2h-3v2l-4 1v2l-10 5-12 8-7 4h-3v2l-5 3 8 4v2l4 1 8 4v2l5 2 9 6v2l4 1v2l5 2 5 5v3h2v11h-2v2l-5-1-6-3v-2l-5-1-5-3v-2l-6-2-12-7-12-5-11-5-11-4h-4l-1 17-3 11-4 3h-5l-5-3v-2l-3-1-2-4v-18l1-3 2-33 1-3 3-31 2-13-3-1-4-6v-3h-2l-1-4v-7l1-2h2v-2l16-4 19-2 2-1z" fill="#1AB0E7"/>
<path transform="translate(1116,645)" d="m0 0 6 1v2l9 1 9 3 10 3 4 2 9 2 12 3 7 2 16 5 9 4 13 4 4 1v2l9 1 8 3 5 1v2h6l8 3 6 3-3 1v2l-7 4h-3v2l-9 5h-3v2l-15 8-8 5-11 6-6 3-12 8h-3l-1 3h-3v2l-4 1v2l-5 1v2l-6 2v2l-10 6-4 1v2l-10 6-12 8-20 14-5 2-1 3-3 1-1 2-4 1 2-15 2-9 3-19 2-19 1-2 2-26 3-25 1-1 1-11 1-27z" fill="#F9FCFD"/>
<path transform="translate(1536,1049)" d="m0 0h12l1 3 4 1 2 3v3h2l5 12v4h2l1 10h2l2 9 2 7 7 26 5 18 1 10h2l2 13 2 6 3 14v8l-2 3h-9v-2l-4-1-7-6-4-13-1-7-2-6h-22l-19 3-7 2-12 3h-4v2l-12 3-17 5-7-1-5-4-4-9 1-6 3-6h2l4-10h2l2-6 9-14 3-6h2l2-6 3-5h2l2-5 2-4h2l1-5 7-11h2l2-5 2-4h2l2-7h2l1-4h2v-2h2v-2l4-1 1-3 5-4h2v-2z" fill="#1AB0E7"/>
<path transform="translate(1143,865)" d="m0 0h4v9l-5 45-2 13-12 15-15 20-13 18-9 13h-1v-8l-16 4 1-13 4-25 2-4 11-3 7-34 8-42 2-4z" fill="#1AB0E7"/>
<path transform="translate(876,722)" d="m0 0 5 1 2 3 1 5 1 20v116l-2 148-3 6-1 1h-7l-4-4-1-4 2-208 1-41 2-31 2-10z" fill="#1AB0E7"/>
<path transform="translate(605,736)" d="m0 0h6l3 5 5 23 7 40 13 71 10 54 12 67 4 27-1 8-3 2h-6l-4-5-8-40-11-66-10-61-15-89-4-27 1-8z" fill="#1AB0E7"/>
<path transform="translate(748,725)" d="m0 0 4 1 2 6 4 33 4 48 4 57 8 102 3 37v14l-5 4-6-2-2-4-9-133-5-70-3-47-1-39z" fill="#1AB0E7"/>
<path transform="translate(1689,1088)" d="m0 0h22l9 4 2 4-1 7-4 4h-2v2l-9 5h-2v2l-28 14h-3v2l-15 6-8 4h-5v-9l1-3 2-23 3-12 12-3 16-2 1-1z" fill="#FEFEFE"/>
<path transform="translate(1365,1104)" d="m0 0h33l13 1 13 4 6 5 1 3-3 6h-2v2l-3 2h-3v2l-7 1v2l-19 5-7 2-25 2-8-1 1-11 1-9 1-1 2-14z" fill="#FEFEFE"/>
<path transform="translate(1123,690)" d="m0 0 5 3 13 11 11 9 7 8 1 3v19l-2 6-26 20-5 3 2-12 2-11-6-2-11-6 1-10z" fill="#1AB0E7"/>
<path transform="translate(1538,1088)" d="m0 0 5 1 4 5 2 6v4h2l5 23 2 9v7l-17 1-6 1-26 2-8 2-4-1 10-19h2l1-6h2l2-6 3-6h2l2-4 5-9 4-4h2l1-3h2v-2z" fill="#F4FAFD"/>
<path transform="translate(1517,739)" d="m0 0h2l-1 6-4 22-2 26-1 4-1 22-1 7-10 5-18 7h-3v2l-10 4h-3v-2h2l2-7 3-7h2l1-4 6-12 10-19 3-7h2l1-6h2l1-6 8-15 8-17z" fill="#F1F9FC"/>
<path transform="translate(1535,1168)" d="m0 0h9l1 5 1 23 4 31 2 9 4 19 2 6 2 7 5 20v5h2v6l-5-5-5-10v-3h-2l-4-11v-3h-2l-2-9-3-9-3-8v-5h-2l-3-11-3-7-3-11-3-12-2-6-1-8-2-6 1-5z"/>
<path transform="translate(1390,1054)" d="m0 0h11l12 2 6 4v5l-3 4h-2l-1 3-10 4-16 5-21 3h-4l1-14 1-2 1-10 6-2z" fill="#FEFEFE"/>
<path transform="translate(1538,1097)" d="m0 0 2 3 1 8v32l-17 2h-8l-1-10v-9l2-3h2v-3l5-5 2-4 4-4h2l1-3z"/>
<path transform="translate(1546,568)" d="m0 0h11l1 3 3 1 2 9-3 9-3 4h-2l-1 3-5 3-7 1-5-3-2-2-1-9 2-8 6-7z"/>
<path transform="translate(271,430)" d="m0 0 4 1-1 9 7 2v3l-4 1v2 3h2l1-3 2 1 1 6-2 2 3 1v2l-12-2-4-2-2-4v-4l-4-2-2-7v-4l3 1 2-4z" fill="#23B3E7"/>
<path transform="translate(1151,799)" d="m0 0h3l-1 18-1 3-22 2h-9l4-4h2v-2l7-4 3-1v-2l3-1 1-2h3v-2l3-2h3z" fill="#1AB0E7"/>
<path transform="translate(287,433)" d="m0 0 2 1v2l4-1h8l-1 3h-2l1 5h2l1 4 3 1-1 3-7 3-3-3-1 3h-5l-3-5v-4-4l-3-1 2-1 1-3 1-1z" fill="#1EB1E7"/>
<path transform="translate(1128,492)" d="m0 0 4 1v5h2l1 3-1 7-5 1h-4v3h-4l-1 4-5-2-6-5-1-7 6 2 3-3 4 2h4v2h3l-1-6 1-3z" fill="#1AB0E7"/>
<path transform="translate(531,1135)" d="m0 0 2 2 2 4h2l1-2 1 4-1 5 5 1-2 2 3 1-1 4-1 2h3v9l-5-1-10-4 4-2v2l6-1 1 1 1-3-3-1-2-3v-5l-1-1-1 3-7 1v-4h2v-9z" fill="#F6FBFD"/>
<path transform="translate(343,565)" d="m0 0 2 4v4l4 2 1 3 3 1-1 2-4 1-1-3-4-1v2l-3-1-2-2-1 4h-2v2l-4-2 1-6h2v-6l4-2 2 1v-2z" fill="#1FB2E7"/>
<path transform="translate(315,608)" d="m0 0h2v2l6-1 3 4 1 5-1 5 4 1-5 1-6-2-5 1-1-1v-13z" fill="#1CB0E7"/>
<path transform="translate(298,554)" d="m0 0 4 1 3 2 1 8-9 2h-6v-3l2-1-4-2v-5z" fill="#1BB0E7"/>
<path transform="translate(338,585)" d="m0 0 7 2 1 1-1 9-2 2h-6v-2h-2v-11z" fill="#1FB1E7"/>
<path transform="translate(278,463)" d="m0 0h3l3 4 9-3v2h-3l1 5 1 3h-10l-2-2-3-2v-5z" fill="#1AB0E7"/>
<path transform="translate(538,1151)" d="m0 0 6 1-1 4-1 2h3v9l-5-1-10-4 4-2v2l6-1 1 1 1-3-3-1-2-3z" fill="#FEFEFE"/>
<path transform="translate(540,1237)" d="m0 0 9 1v4l-5-1-1 5-6-2v-2l-9 2-1-4 5-1 7 1z" fill="#1AB0E7"/>
<path transform="translate(244,399)" d="m0 0 4 3-1 8-3 1v-2h-2l-1 4-4-1 1-4h2l1-7z" fill="#1AB0E7"/>
<path transform="translate(1105,419)" d="m0 0 6 2v5l-4 2-7-2 1-5z" fill="#1AB0E7"/>
<path transform="translate(356,591)" d="m0 0 7 4v2h-2l-1 4-7-2-1-4z" fill="#1AB0E7"/>
<path transform="translate(251,536)" d="m0 0 4 2 1 5-3 3h-3v2h-4l1-4z" fill="#1AB0E7"/>
<path transform="translate(1063,1018)" d="m0 0 5 1-1 9-2 2h-3l-1-10h2z" fill="#1AB0E7"/>
<path transform="translate(348,611)" d="m0 0 2 1 1 5-3 2-5-1-1-4z" fill="#1AB0E7"/>
<path transform="translate(523,1223)" d="m0 0 3 3v3l-3 2h-5v-5z" fill="#1AB0E7"/>
<path transform="translate(296,543)" d="m0 0h5v3l-1 6h-3z" fill="#1AB0E7"/>
<path transform="translate(1061,412)" d="m0 0 5 1-1 4-2 2-4-1-1-4z" fill="#1AB0E7"/>
<path transform="translate(307,545)" d="m0 0 9 2v3l-3-1v4h-2v-4l-3-1z" fill="#1AB0E7"/>
<path transform="translate(528,1122)" d="m0 0h2l1 4 3 3-2 1-7-3 2-4z" fill="#FEFEFE"/>
<path transform="translate(228,395)" d="m0 0 3 1-1 7h-4l-1-6z" fill="#1AB0E7"/>
<path transform="translate(377,538)" d="m0 0 5 1-1 5-5-1z" fill="#1AB0E7"/>
<path transform="translate(279,419)" d="m0 0h2l3 3 2 1-2 2h-5l-3-1v-2h2z" fill="#1AB0E7"/>
<path transform="translate(1052,424)" d="m0 0h6l1 4-6 1z" fill="#1AB0E7"/>
<path transform="translate(1096,1097)" d="m0 0 2 3v2h4l-1 4-7-4z" fill="#1AB0E7"/>
<path transform="translate(1533,1046)" d="m0 0 2 1-2 1zm-1 2m-1 1m-2 1 2 1-2 1zm-1 2 1 3-6 5v-3z" fill="#D2EFF9"/>
<path transform="translate(306,550)" d="m0 0h2l-1 5h2v3l-5-2-2-4z" fill="#1AB0E7"/>
</svg>
