<?xml version="1.0" encoding="utf-8"?>
<!-- Generator: Adobe Adobe Illustrator 24.2.0, SVG Export Plug-In . SVG Version: 6.00 Build 0)  -->
<svg version="1.1" id="Layer_1" xmlns="http://www.w3.org/2000/svg" xmlns:xlink="http://www.w3.org/1999/xlink" x="0px" y="0px"
	 viewBox="0 0 595.28 841.89" style="enable-background:new 0 0 595.28 841.89;" xml:space="preserve">
<style type="text/css">
	.st0{fill:#1CAED0;}
</style>
<path class="st0" d="M203.08,700.89c-2.34,0.53-4.77,1.07-7.21,1.57c-3.27,0.67-6.54,1.37-9.83,1.95c-2.17,0.38-4.44,0.31-6.54,0.9
	c-1.54,0.43-3,1.46-4.26,2.5c-2.14,1.77-4.03,3.85-6.15,5.66c-2.75,2.33-3.51,2.25-6.44,0.26c-6.41-4.36-12.83-8.72-19.13-13.25
	c-7.61-5.47-15.1-11.12-22.65-16.67c-1.44-1.06-2.89-2.2-4.5-2.92c-0.83-0.37-2.3-0.28-3.03,0.24c-2.12,1.52-4.01,3.37-5.99,5.09
	c-2.95,2.55-5.84,5.17-8.86,7.64c-1.61,1.31-3.34,1.27-5.88-0.92c-2.2-1.91-4.31-3.93-6.39-5.98c-9.62-9.46-19.25-18.9-28.8-28.43
	c-2.92-2.91-5.58-6.09-8.38-9.12c-2.16-2.33-1.95-5.14-1.03-7.67c3.58-9.87,7.42-19.64,11.15-29.46c3.92-10.33,7.78-20.68,11.73-31
	c0.73-1.91,0.18-3.57-0.62-5.19c-3.02-6.11-6.26-12.11-9.11-18.29c-1.45-3.14-3.45-6.31-2.9-10c0.45-2.96,1.33-5.86,2.08-8.78
	c0.83-3.26,1.7-6.51,2.62-9.75c0.21-0.75,0.64-1.44,1-2.14c1.3-2.49,1.46-4.29-0.23-6.79c-4.49-6.64-9.22-13.13-13.78-19.72
	c-2.05-2.96-1.74-5.55,0.39-8.37c6.21-8.24,12.34-16.56,18.51-24.83c1.32-1.77,2.74-3.46,4.07-5.22c1.95-2.58,2.17-5.44,1.48-8.54
	c-0.46-2.08-0.66-4.23-0.81-6.36c-0.44-6.47-0.81-12.94-1.2-19.41c-0.27-4.45,0.1-4.52,4.67-5.51c4.84-1.05,9.72-1.97,14.62-2.74
	c2.05-0.32,2.94-1.65,3.74-3.19c3.38-6.54,6.66-13.14,10.1-19.65c2.25-4.27,4.69-8.44,7.08-12.63c0.95-1.67,2.45-2.38,4.38-2.42
	c2.57-0.05,5.16-0.45,7.72-0.33c5.23,0.25,10.44,0.81,15.67,1.11c2.45,0.14,4.67-0.76,6.43-2.49c0.98-0.96,0.47-2.78-0.88-3.77
	c-0.77-0.56-1.56-1.13-2.18-1.83c-0.31-0.36-0.26-1.04-0.37-1.57c0.4,0.03,0.8,0.08,1.21,0.1c0.22,0.01,0.48,0.07,0.67-0.02
	c1.26-0.62,1.59-0.03,1.64,1.14c0.18,3.51,0.84,4.21,4.34,4.12c2.32-0.06,4.29,0.69,5.68,2.43c2,2.52,4.46,3.21,7.6,3.19
	c5.01-0.03,10.03,0.4,15.04,0.73c1.61,0.11,3.2,0.5,4.8,0.77c0.24,0.04,0.48,0.11,0.72,0.16c-0.27,0.08-0.54,0.21-0.82,0.23
	c-2.7,0.15-5.41,0.22-8.11,0.41c-4.9,0.35-9.79,0.76-14.68,1.2c-0.41,0.04-0.79,0.47-1.18,0.71c0.44,0.41,0.82,1.06,1.33,1.18
	c1.22,0.28,2.5,0.36,3.77,0.43c2.77,0.16,5.54,0.28,8.31,0.4c0.46,0.02,0.92,0,1.38,0c0.46-0.01,0.92-0.02,1.37-0.04
	c-0.39,0.21-0.78,0.58-1.18,0.6c-1.71,0.06-3.43,0.04-5.15,0.01c-1.16-0.02-2.4-0.4-3.45-0.09c-0.89,0.26-1.61,1.24-2.26,2.02
	c-0.07,0.09,0.78,0.98,1.23,1.47c0.35,0.39,1.07,0.78,1.04,1.11c-0.06,0.62-0.55,1.2-0.86,1.79c-0.23-0.22-0.54-0.4-0.68-0.67
	c-0.41-0.74-0.65-1.61-1.17-2.26c-0.33-0.41-1.04-0.5-1.58-0.73c-0.17,0.52-0.6,1.11-0.48,1.54c0.56,2.05,1.36,4.04,1.9,6.1
	c0.52,1.96,2.13,2.52,3.69,2.87c1.73,0.39,3.55,0.36,5.34,0.45c5.67,0.28,11.35,0.42,17.01,0.83c5.11,0.37,10.2,1.07,15.31,1.51
	c1.39,0.12,1.08,0.77,0.83,1.55c-1.32,4.18-2.68,8.35-3.98,12.54c-0.5,1.62-1.05,3.34,1.32,4.09c0.11,0.03,0.2,0.13,0.29,0.2
	c-0.24,0.06-0.48,0.19-0.71,0.18c-2.18-0.11-4.36-0.24-6.54-0.39c-3.57-0.25-7.14-0.57-10.71-0.74c-0.7-0.03-1.42,0.47-2.13,0.73
	c0.59,0.79,1.02,1.96,1.81,2.32c3.54,1.59,7.24,2.82,10.75,4.47c1.26,0.59,2.56,1.78,3.14,3.02c4,8.65,7.89,17.35,11.66,26.1
	c1.16,2.68-0.6,4.75-2.08,6.84c-5.56,7.86-11.08,15.76-16.56,23.68c-0.36,0.51-0.42,1.31-0.42,1.98
	c-0.02,19.96-0.08,39.93,0.09,59.89c0.02,1.89,1.27,3.98,2.45,5.62c6.21,8.62,12.56,17.15,18.91,25.67
	c2.67,3.58,5.54,7.01,8.18,10.61c2.05,2.8,2.3,3.67-0.41,7.27c-6.54,8.71-13.01,17.46-19.52,26.19c-0.86,1.16-1.63,2.43-2.68,3.4
	c-1.47,1.37-1.26,3.07-1.05,4.66c0.08,0.57,1.32,1.45,1.96,1.4c2.28-0.18,4.56-0.6,6.8-1.12c5.98-1.39,11.94-2.87,17.91-4.31
	c6.51-1.57,12.99-3.23,19.52-4.7c6.39-1.43,12.83-2.62,19.24-3.98c5.3-1.13,10.59-2.32,15.87-3.54c8.99-2.08,17.95-4.25,26.95-6.27
	c3.57-0.8,7.22-1.23,10.79-2.05c1.51-0.35,2.83-1.49,4.33-1.86c1.68-0.4,3.48-0.22,5.21-0.48c3.5-0.53,6.98-1.24,10.48-1.79
	c1.7-0.27,3.38-1.22,5.07,0.57c1.1,1.17,4.5,0.52,5.61-0.65c0.16-0.16,0.28-0.44,0.28-0.66c0.01-3.19,2.72-2.39,4.44-2.93
	c1.58-0.49,3.5-0.06,4.5-1.98c0.15-0.3,1-0.53,1.35-0.38c1.98,0.83,3.78,0.03,5.66-0.36c0.91-0.19,2.4-0.69,1.82,1.42
	c-0.48,1.76,1.58,4.42,3.09,4.97c1.95,0.72,3.2-0.37,4.48-1.6c0.37-0.35,0.88-1.91,1.68-0.21c0.06,0.13,0.89-0.11,1.37-0.18
	c-0.2-0.57-0.28-1.56-0.62-1.65c-2.32-0.64-0.69-2.9-1.75-4c0.85-0.4,1.66-0.89,2.55-1.17c3.02-0.97,6.03-1.98,9.1-2.76
	c3.58-0.91,7.23-1.57,10.84-2.39c3.71-0.85,7.41-1.78,11.11-2.65c2.03-0.47,2.95-1.91,3-3.8c0.03-1.16,0.57-1.08,1.3-1.03
	c2.14,0.13,4.27,0.24,6.4,0.41c0.35,0.03,0.89,0.23,0.98,0.48c0.5,1.44,1.59,1.79,2.86,1.45c1.87-0.51,4.05-0.77,5.47-1.92
	c3.86-3.11,8.28-4.67,12.93-5.99c1.66-0.47,3.25-1.44,4.67-2.47c1.16-0.84,2.85-1.07,3.38-2.81c0.11-0.35,1.29-0.68,1.85-0.53
	c4.04,1.07,6.69,0.07,8.31-4.2c1.53-4.03,3.43-7.94,4.63-12.06c2.08-7.11,3.78-14.34,5.57-21.54c1.13-4.54,2.39-9.07,3.09-13.68
	c0.75-4.9,1.15-9.83,0.58-14.88c-0.67-5.97-1.7-11.83-3.3-17.58c-1.04-3.74-2.26-7.46-3.75-11.05c-2.14-5.16-4.4-10.28-6.97-15.23
	c-3.62-6.98-7.71-13.7-12.9-19.68c-2.34-2.7-4.54-5.53-7-8.12c-2.45-2.59-5.68-3.69-9.21-3.87c-1.51-0.07-3.02,0.01-4.53-0.02
	c-5.99-0.12-11.98-0.2-17.96-0.41c-4.56-0.16-9.11-0.52-13.66-0.76c-2.77-0.15-5.54-0.3-8.31-0.39c-5.13-0.16-10.27-0.29-15.4-0.4
	c-7.13-0.15-14.25-0.25-21.38-0.41c-4.35-0.1-8.69-0.23-13.04-0.39c-6.46-0.24-12.92-0.54-19.37-0.78
	c-7.97-0.29-15.94-0.55-23.91-0.79c-5.46-0.16-10.92-0.26-16.39-0.4c-4.96-0.12-9.92-0.2-14.88-0.41
	c-3.97-0.17-7.92-0.53-11.89-0.76c-4.88-0.29-9.76-0.6-14.65-0.78c-5.81-0.21-11.63-0.26-17.44-0.42c-2.64-0.07-5.28-0.25-7.91-0.39
	c-0.22-0.01-0.43-0.14-0.64-0.21c0.17-0.06,0.4-0.06,0.51-0.18c0.85-0.93,1.92-1.77,2.46-2.86c2.86-5.79,5.54-11.62,6.99-18.01
	c0.55-2.44,2.54-4.61,4.09-6.74c2.26-3.11,4.7-6.08,7.08-9.09c1.32-1.67,3.13-2.09,5.38-1.59c5.19,1.14,10.4,2.17,15.61,3.24
	c1.27,0.26,2.55,0.5,3.8,0.83c0.13,0.03,0.26,0.71,0.13,0.93c-2.48,4.36-5.04,8.68-7.47,13.07c-0.79,1.43-2.66,2.96-0.68,4.66
	c0.8,0.69,2.17,0.88,3.3,0.97c4.22,0.35,8.45,0.5,12.67,0.84c5.83,0.47,11.65,1.08,17.47,1.55c4.09,0.33,8.19,0.52,12.28,0.8
	c5.55,0.38,11.1,0.74,16.65,1.2c3.72,0.31,7.42,0.81,11.14,1.16c5.95,0.56,11.91,1.03,17.86,1.59c5.24,0.49,10.47,1.02,15.7,1.58
	c3.32,0.35,6.64,0.77,9.95,1.18c1.71,0.21,2.79-1.24,2.25-3.23c-0.47-1.7-1.15-3.33-1.68-5.01c-0.07-0.22,0.22-0.8,0.29-0.79
	c4.58,0.49,9.16,0.98,13.73,1.56c1.74,0.22,2.71,1.34,3.06,3.09c1.05,5.31,2.06,6.16,7.43,6.34c4.08,0.14,8.17,0.18,12.25,0.42
	c5.16,0.3,10.32,0.74,15.47,1.17c4.24,0.35,8.48,0.73,12.71,1.19c4.19,0.46,8.38,0.93,12.54,1.63c1.25,0.21,2.62,0.97,3.51,1.88
	c3.22,3.27,6.49,6.53,9.33,10.12c5.86,7.4,10.46,15.63,14.3,24.2c2.3,5.13,3.8,10.65,5.4,16.08c1.48,4.99,2.7,10.07,3.85,15.15
	c0.63,2.8,1.07,5.67,1.27,8.53c0.3,4.14,0.28,8.29,0.44,12.44c0.08,2.18,0.51,4.38,0.33,6.53c-0.31,3.61-1.01,7.19-1.49,10.79
	c-0.21,1.57-0.31,3.17-0.42,4.75c-0.43,5.97-1.52,11.81-3.33,17.53c-2.21,6.97-4.3,13.98-6.41,20.99c-0.25,0.83-0.39,1.69-0.49,2.55
	c-0.2,1.67,0.96,2.6,2.83,2.48c4.49-0.3,8.97-0.61,13.46-0.78c5.52-0.21,11.06-0.23,16.58-0.43c5.61-0.2,11.21-0.5,16.81-0.78
	c4.95-0.25,9.9-0.53,14.84-0.78c2.72-0.14,5.44-0.26,8.26-0.4c-1.26,0.26-2.62,0.63-3.99,0.77c-3.3,0.33-6.62,0.48-9.91,0.83
	c-4.26,0.45-8.5,1.06-12.75,1.55c-2.64,0.31-5.29,0.6-7.95,0.78c-3.16,0.21-6.33,0.27-9.49,0.42c-5.28,0.25-10.55,0.52-15.83,0.79
	c-2.24,0.12-4.49,0.25-6.73,0.39c-1.98,0.12-3.96,0.31-5.94,0.38c-2.5,0.08-3.47,2.07-4.43,3.76c-0.97,1.72-1.32,3.78-2.11,5.62
	c-0.34,0.78-1.14,1.36-1.67,2.07c-0.52,0.68-1.35,1.42-1.34,2.12c0.02,0.8,0.48,1.87,1.82,1.83c2.06-0.06,4.12,0.09,6.17-0.04
	c2.2-0.14,4.37-0.59,6.57-0.74c3.09-0.22,6.19-0.29,9.29-0.4c0.41-0.01,0.82,0.14,1.23,0.21c-0.37,0.06-0.74,0.12-1.11,0.17
	c-3.79,0.53-7.58,1.06-11.37,1.57c-2.06,0.28-4.13,0.46-6.17,0.83c-0.65,0.12-1.21,0.71-1.82,1.09c0.57,0.41,1.09,1.03,1.72,1.19
	c1.57,0.39,3.19,0.57,4.79,0.83c0.31,0.05,0.62,0.09,0.93,0.14c-0.23,0.14-0.54,0.23-0.69,0.43c-0.44,0.59-0.82,1.24-1.23,1.85
	c-0.18,0.26-0.39,0.49-0.59,0.73c-0.06-0.24-0.09-0.49-0.2-0.71c-0.27-0.56-0.57-1.1-0.86-1.65c-0.24,0.47-0.64,0.92-0.68,1.4
	c-0.02,0.3,0.49,0.64,0.77,0.96c0.09,0.1,0.19,0.19,0.29,0.29c-0.12,0.04-0.25,0.13-0.35,0.1c-1.03-0.31-2.47,0.14-2.75-1.59
	c-0.09-0.56-0.52-1.18-0.98-1.53c-0.69-0.53-1.5-1.22-1.78,0.54c-0.35,2.24-1.07,4.42-1.51,6.65c-0.3,1.5-2.65,3.71-3.98,3.37
	c-0.36-0.09-0.5-0.99-0.79-1.49c-0.11-0.19-0.35-0.31-0.53-0.47c-1.06,1.26-2.47,0.53-3.58,0.35c-1.54-0.24-1.07,0.56-0.86,1.17
	c0.22,0.65,0.89,1.19-0.11,1.8c-0.28,0.17-0.28,0.78-0.42,1.18c-0.08,0.23-0.12,0.54-0.28,0.64c-0.3,0.19-0.83,0.13-1.01,0.37
	c-1.37,1.85-2.2-0.27-3.3-0.41c0.14-0.49,0.28-0.99,0.42-1.48c0.22,0.2,0.46,0.39,0.67,0.61c0.41,0.43,0.79,0.88,1.19,1.33
	c0.38-0.74,0.93-1.43,1.1-2.21c0.52-2.5,0.94-5.02,1.29-7.54c0.11-0.78-0.13-1.6-0.22-2.41c-0.68,0.38-1.68,0.6-1.98,1.18
	c-1.07,2.01-2.05,1.24-3.04,0.08c-1.03-1.21-1.81-1.1-3.04-0.07c-2.97,2.47-6.7,3.4-10.25,4.71c-0.71,0.26-2.02-0.24-2.06,1.25
	c0,0.1-0.38,0.27-0.58,0.27c-3.11,0.02-6.22-0.04-9.33,0.07c-0.64,0.02-1.84,0.75-1.8,0.99c0.47,2.8-1.92,2.19-3.12,2.41
	c-1.52,0.27-3.17-0.35-4.74-0.25c-2.38,0.14-4.83,0.26-7.1,0.92c-6.14,1.77-12.23,3.74-18.29,5.77c-2.64,0.89-5.2,2.05-7.71,3.25
	c-1.81,0.87-3.62,0.64-5.5,0.77c-2.98,0.21-5.95,1.04-8.84,1.88c-11.07,3.22-22.11,6.56-33.17,9.82
	c-7.26,2.14-14.54,4.22-21.82,6.31c-7.81,2.24-15.64,4.41-23.42,6.72c-9.53,2.82-18.98,5.92-28.54,8.62
	c-12.66,3.57-25.4,6.86-38.1,10.29c-3.24,0.88-6.47,1.8-9.69,2.77c-1.5,0.45-2.55,1.42-2.42,3.13c0.21,2.75-1.36,4.52-3.22,6.16
	c-0.66,0.58-1.42,1.07-2.05,1.68c-5.81,5.65-11.61,11.31-17.37,17.01c-0.46,0.46-0.6,1.25-0.89,1.88c0.76,0.08,1.54,0.31,2.27,0.21
	c2.53-0.35,5.04-0.85,7.56-1.22C194.77,701.98,198.88,701.45,203.08,700.89 M200.61,616.57c2.51-3.3,5.07-6.55,7.5-9.9
	c2.08-2.86,4.06-5.79,5.98-8.75c0.61-0.94,0.91-1.98-0.1-3.1c-1.17-1.29-2.06-2.81-3.1-4.21c-4.14-5.58-8.27-11.17-12.46-16.7
	c-3.6-4.76-7.34-9.42-10.92-14.2c-1.66-2.22-3.21-4.55-4.58-6.97c-1.13-1.99-1.02-4.18-0.74-6.5c0.39-3.19,0.1-6.47,0.1-9.71
	c0-12.74-0.03-25.48,0.03-38.22c0.01-1.61,0.41-3.22,0.72-4.81c0.65-3.31,2.47-5.95,4.54-8.58c5.39-6.84,10.54-13.87,15.79-20.83
	c1.77-2.35,2.09-4.61,0.67-7.48c-2.76-5.6-4.97-11.47-7.61-17.13c-1.13-2.42-2.05-5.36-4.82-6.4c-7.85-2.93-15.79-5.64-23.71-8.39
	c-2.94-1.02-5.35-2.39-5.91-5.89c-0.32-2.04-1.04-4.02-1.63-6.01c-1.34-4.5-2.6-9.03-4.11-13.47c-0.83-2.43-1.08-5.37-4.05-6.53
	c-0.68-0.26-1.35-0.54-2.02-0.82c-0.06,0.76-0.14,1.52-0.18,2.29c-0.01,0.28,0.07,0.57,0.11,0.86c-0.26-0.16-0.6-0.26-0.78-0.48
	c-1.37-1.72-2.7-3.47-4.05-5.21c-1.1-1.42-1.62-1.39-2.36,0.27c-0.39,0.87-0.91,1.32-1.82,1.08c-1.48-0.38-2.93-0.84-4.4-1.26
	c-1.29-0.37-2.58-0.99-3.88-1.04c-3.63-0.14-7.27-0.16-10.9,0.02c-0.98,0.05-2.32,0.74-2.79,1.55c-2.57,4.36-4.95,8.84-7.35,13.3
	c-2.92,5.42-5.74,10.89-8.7,16.29c-1.17,2.13-2.87,3.94-5.28,4.58c-5.05,1.33-10.17,2.41-15.25,3.63c-1.42,0.34-2.98,0.57-4.16,1.34
	c-2.4,1.56-1.33,4.21-1.21,6.31c0.22,4.07,0.97,8.11,1.48,12.16c0.42,3.31,0.55,6.69,1.28,9.93c0.61,2.68,0.25,4.99-1.3,7.07
	c-2.5,3.33-5.25,6.48-7.76,9.8c-4.98,6.59-9.84,13.26-14.79,19.87c-1.69,2.26-1.93,3.69-0.67,5.76c0.39,0.64,0.9,1.2,1.35,1.81
	c4.37,5.94,8.79,11.84,13.04,17.86c0.79,1.12,1.5,2.9,1.17,4.08c-1.68,6.04-3.68,11.99-5.61,17.95c-1.08,3.35-2.08,6.77-0.47,10.16
	c3.39,7.14,6.9,14.22,10.44,21.29c2.14,4.27,2.31,8.38,0.24,12.84c-3.12,6.71-5.87,13.59-8.69,20.43c-4.4,10.65-8.72,21.34-13.11,32
	c-1.44,3.5-1.98,5.03,1.54,8.49c5.55,5.45,11.15,10.84,16.68,16.31c6.49,6.42,12.91,12.91,19.37,19.35
	c2.11,2.11,3.14,2.22,5.54,0.59c5.34-3.61,10.72-7.16,15.96-10.9c1.81-1.29,3.3-0.93,4.87,0.06c1.62,1.03,3.15,2.21,4.76,3.27
	c9.7,6.39,19.38,12.8,29.11,19.13c4.12,2.68,8.28,5.32,12.56,7.75c1.25,0.71,2.95,0.84,4.24-0.55c2.48-2.66,4.94-5.35,7.53-7.91
	c5.43-5.38,10.93-10.69,16.4-16.03c1.93-1.88,3.09-4.23,2.9-6.84c-0.25-3.47-0.99-6.92-1.56-10.37c-0.75-4.54-1.54-9.08-2.31-13.62
	c-0.47-2.76-0.86-5.53-1.46-8.26c-0.86-3.92-0.25-7.45,2.16-10.7C194.88,624.46,197.63,620.6,200.61,616.57 M454.96,608.88
	c0.18,0.71,0.36,1.41,0.54,2.12c0.68-0.38,1.42-0.68,2-1.16c0.51-0.43,1.17-1.05,1.19-1.61c0.03-0.97-0.38-1.95-0.61-2.92
	c-0.72,0.35-1.59,0.55-2.12,1.08C455.45,606.91,455.28,607.78,454.96,608.88 M453.39,610.07c0.25-1.19,0.59-2.38,0.71-3.59
	c0.04-0.42-0.45-0.89-0.7-1.34c-0.39,0.32-0.96,0.57-1.13,0.98c-0.39,0.95-0.65,1.97-0.81,2.99c-0.1,0.61,0.08,1.26,0.13,1.89
	C452.11,610.76,452.65,610.51,453.39,610.07 M345.22,610.66c1.08,1,1.2-0.07,1.48-0.71c0.05-0.11-0.14-0.45-0.2-0.45
	C345.85,609.55,344.79,609.05,345.22,610.66 M364.33,610.85c0.36,0.17,0.72,0.33,1.08,0.5c0.03-0.44,0.13-0.88,0.06-1.3
	c-0.03-0.19-0.42-0.31-0.65-0.47C364.59,609.94,364.36,610.3,364.33,610.85 M458.9,601c-0.39,0.27-0.78,0.53-1.17,0.8
	c0.24,0.32,0.47,0.65,0.71,0.97C458.59,602.32,458.75,601.86,458.9,601z"/>
<path d="M329.17,341.24c-3.22-2.7-6.39-5.25-9.45-7.92c-1.2-1.05-2.09-2.44-3.26-3.54c-0.49-0.46-1.31-0.56-1.99-0.83
	c-0.19,0.64-0.61,1.32-0.53,1.93c0.42,3.09,1.05,6.14,1.45,9.23c0.28,2.15,0.26,4.35,0.49,6.51c0.34,3.12,0.77,6.24,1.21,9.35
	c0.19,1.35,0.61,2.67,0.72,4.03c0.44,5.55,0.8,11.1,1.21,16.65c0.08,1.07-0.03,2.29,0.46,3.14c0.56,0.96,1.6,2.04,2.62,2.26
	c2.87,0.64,5.83,0.83,8.75,1.28c3.26,0.51,6.5,1.11,9.75,1.67c3.55,0.62,7.1,1.23,10.65,1.87c4.28,0.76,8.55,1.58,12.83,2.3
	c2.9,0.49,5.86,0.68,8.74,1.28c5.12,1.06,10.23,2.2,15.27,3.55c4.77,1.27,9.49,2.74,14.16,4.33c3.45,1.17,6.59,2.98,8.6,6.18
	c0.43,0.69,0.56,1.86,0.31,2.65c-1.5,4.91-5.15,6.86-10.04,5.71c-3.31-0.78-6.68-1.31-10.03-1.97c-3.88-0.77-7.74-1.64-11.63-2.34
	c-4.78-0.86-9.6-1.52-14.38-2.4c-5.84-1.08-11.64-2.34-17.47-3.47c-4.99-0.97-9.99-1.91-14.99-2.8c-3.25-0.58-6.52-1.06-9.79-1.59
	c-1.6-0.26-2.09,0.36-1.69,1.96c0.63,2.57,1.27,5.14,1.77,7.73c0.22,1.17-0.19,2.19-1.49,2.69c-1.16,0.44-1.82,0.12-2.59-0.88
	c-3.17-4.1-6.51-8.07-9.7-12.15c-1.89-2.42-4.61-3.07-7.35-3.68c-5.48-1.21-10.96-2.42-16.46-3.54c-5.46-1.11-10.95-2.1-16.42-3.17
	c-7.29-1.43-14.57-2.85-21.84-4.34c-6.83-1.4-13.63-2.94-20.48-4.26c-1.14-0.22-2.42,0.25-2.97,1.73c-1.64,4.44-3.4,8.84-5.07,13.27
	c-3.17,8.41-6.27,16.84-9.5,25.22c-0.52,1.35-1.46,2.58-2.37,3.73c-0.37,0.46-1.17,0.58-1.78,0.85c-0.08-0.54-0.37-1.15-0.22-1.61
	c3.44-10.98,6.94-21.95,10.42-32.92c0.9-2.85,1.81-5.69,2.64-8.56c0.65-2.26-0.27-3.8-2.58-4.54c-2.84-0.91-5.68-1.83-8.51-2.77
	c-0.57-0.19-1.22-0.38-1.63-0.77c-0.46-0.44-0.9-1.09-0.97-1.69c-0.04-0.31,0.69-0.84,1.16-1.05c3.55-1.57,7.23-1.55,10.96-0.81
	c3.36,0.67,4.6-0.3,5.54-3.97c1.96-7.59,4.08-15.13,5.98-22.74c1.42-5.68,2.53-11.42,3.87-17.12c1.45-6.15,2.98-12.29,4.52-18.42
	c0.8-3.2,1.6-6.42,2.58-9.57c1.33-4.29,4.5-7.3,7.78-10.1c1.5-1.28,3.74-0.37,4.79,1.71c1.81,3.58,3.36,7.3,5.33,10.79
	c3.05,5.39,6.33,10.66,9.58,15.93c4.46,7.22,8.89,14.47,13.5,21.59c3.67,5.67,7.57,11.2,11.43,16.74
	c3.81,5.46,7.69,10.88,11.57,16.28c0.32,0.45,0.91,0.71,1.37,1.06c0.27-0.61,0.83-1.25,0.76-1.83c-0.37-3.17-0.85-6.32-1.38-9.46
	c-0.67-3.98-1.4-7.95-2.12-11.92c-0.62-3.42-1.32-6.82-1.89-10.24c-0.49-2.97-0.82-5.96-1.27-8.94c-0.53-3.52-1.09-7.03-1.68-10.53
	c-0.58-3.43-1.24-6.84-1.85-10.26c-0.28-1.59-0.52-3.2-0.79-4.8c-0.37-2.23,1.51-5.87,3.72-6.64c0.89-0.31,2.22-0.18,3.04,0.29
	c1.94,1.11,3.85,2.36,5.48,3.87c4.22,3.89,8.3,7.93,12.4,11.95c8.11,7.95,16.62,15.36,26.03,21.79c7.18,4.91,13.9,10.51,20.93,15.65
	c5.01,3.66,10.2,7.06,15.29,10.62c9.22,6.44,18.42,12.92,27.65,19.35c7.64,5.32,15.22,10.73,22.99,15.85
	c7.55,4.98,15.32,9.62,22.97,14.44c7.29,4.6,14.56,9.24,21.83,13.88c3.95,2.52,8.22,4.58,11.38,8.21c1.8,2.07,1.62,4.13-0.66,4.85
	c-0.78,0.25-1.8-0.02-2.64-0.28c-8.36-2.5-16.02-6.44-23.39-11.08c-6.84-4.31-13.89-8.3-20.85-12.43
	c-7.27-4.32-14.55-8.64-21.82-12.97c-9.96-5.92-19.96-11.77-29.86-17.79c-7.62-4.64-15.23-9.33-22.64-14.29
	c-7.8-5.23-15.43-10.72-23-16.29c-4.33-3.18-8.38-6.74-12.57-10.13C329.85,341.59,329.54,341.48,329.17,341.24 M228.39,370.1
	c4.25,0.2,8.5,0.38,12.75,0.6c1.85,0.09,3.82-0.1,5.53,0.45c5.99,1.95,12.26,1.78,18.38,2.69c2.18,0.32,4.37,0.53,6.54,0.86
	c3.08,0.47,6.14,1.01,9.22,1.51c2.89,0.47,5.78,0.98,8.68,1.37c1.02,0.14,2.09-0.02,3.13-0.05c-0.29-0.93-0.58-1.86-0.88-2.79
	c-0.04-0.11-0.19-0.18-0.27-0.28c-3.16-4.47-6.38-8.89-9.46-13.42c-5.7-8.39-11.54-16.7-16.92-25.3
	c-5.65-9.03-10.83-18.35-16.22-27.53c-0.28-0.48-0.64-0.9-0.96-1.35c-0.47,0.59-1.14,1.11-1.37,1.78
	c-3.11,9.09-6.23,18.17-9.19,27.31c-3.29,10.13-6.46,20.31-9.57,30.49C227.46,367.5,226.25,368.98,228.39,370.1z"/>
<path d="M355.27,193.38c5.38,0,10.57,0,15.76,0c3.44,0,6.87,0.04,10.31-0.02c1.59-0.03,3.18-0.22,4.76-0.38
	c5.07-0.53,9.29,1.15,12.79,4.8c1.68,1.75,3.45,3.43,5.13,5.17c0.27,0.28,0.34,0.77,0.5,1.16c-0.33,0.1-0.67,0.26-1,0.28
	c-4.22,0.28-8.45,0.59-12.67,0.79c-6.72,0.31-13.44,0.53-20.16,0.8c-2.9,0.12-5.8,0.33-8.7,0.38c-9.86,0.16-19.72,0.5-29.58,0.33
	c-6.18-0.11-12.42-0.29-18.5-1.83c-0.72-0.18-1.88,0.17-2.39,0.7c-0.43,0.45-0.48,1.62-0.22,2.3c2.29,6.07,4.66,12.12,7.07,18.15
	c0.99,2.47,3.33,3.52,5.42,4.8c8.27,5.07,16.51,10.21,24.84,15.17c3.49,2.08,6.91,4.16,9.59,7.28c0.45,0.52,1.4,1.01,0.56,1.75
	c-0.57,0.5-1.72,1.07-2.22,0.82c-4.75-2.34-9.48-4.75-14.1-7.34c-5.18-2.9-10.25-6.01-15.39-8.98c-0.46-0.27-1.55-0.38-1.64-0.2
	c-0.33,0.63-0.59,1.48-0.44,2.15c0.49,2.27,1.17,4.5,1.77,6.74c0.08,0.3,0.21,0.64,0.14,0.91c-0.17,0.62-0.46,1.2-0.7,1.8
	c-0.55-0.37-1.32-0.61-1.6-1.12c-1.15-2.07-2.08-4.26-3.21-6.35c-1.75-3.24-2.62-7.16-5.74-9.39c-2.7-1.93-5.83-3.3-8.83-4.8
	c-6.58-3.29-13.18-6.53-19.79-9.75c-7.87-3.83-15.7-7.73-23.65-11.39c-7.82-3.6-15.8-6.87-23.64-10.45
	c-1.46-0.67-3.14-1.85-3.73-3.22c-1.62-3.72,0.1-5.32,4.68-6.59c3.34-0.93,6.41,0.43,9.6,0.81c0.26,0.03,0.52,0,0.79,0
	c6.31,0.13,12.63,0.2,18.94,0.41c5.5,0.18,11,0.43,16.48,0.8c3.2,0.22,6.37,0.79,9.56,1.14c1.62,0.18,2.04-0.47,1.43-2.06
	c-2.47-6.46-5.15-12.87-7.18-19.47c-2.18-7.08-4.01-14.3-5.45-21.56c-1.02-5.13-0.98-10.47-1.71-15.67
	c-0.9-6.4,0.82-12.51,1.64-18.72c0.04-0.31,0.39-0.59,0.6-0.88c0.19,0.32,0.49,0.61,0.55,0.95c0.81,4.4,1.58,8.8,2.38,13.2
	c1.73,9.55,2.76,19.23,5.81,28.52c2.3,7,4.4,14.07,6.57,21.12c1.27,4.14,2.51,8.28,3.78,12.42c0.63,2.07,1.87,2.94,4.01,2.98
	c6.31,0.12,12.63,0.24,18.94,0.4c3.75,0.09,7.51,0.26,11.26,0.39c3.75,0.13,7.51,0.24,11.26,0.4
	C351.64,193.07,353.36,193.25,355.27,193.38 M280.21,208.35c6.37,3.15,12.74,6.33,19.13,9.45c3.27,1.6,6.6,3.08,9.91,4.61
	c0.81,0.37,1.21,0.18,1.12-0.8c-0.06-0.65,0.19-1.39-0.04-1.96c-1.78-4.38-3.62-8.74-5.5-13.08c-0.51-1.18-1.24-2.12-2.8-2.2
	c-2.52-0.13-5.03-0.55-7.55-0.74c-2.83-0.2-5.68-0.18-8.5-0.44c-2.42-0.22-4.82-0.73-7.24-1.05c-3.49-0.46-7-0.88-10.5-1.26
	c-0.36-0.04-0.77,0.32-1.16,0.5c0.24,0.28,0.43,0.61,0.71,0.82c0.33,0.26,0.74,0.43,1.12,0.62
	C272.54,204.67,276.18,206.51,280.21,208.35z"/>
<path d="M312.81,285.09c3.69,0.93,7.3,1.72,10.88,2.62c8.56,2.15,17.1,4.37,25.66,6.54c8.68,2.2,17.36,4.39,26.06,6.52
	c1.46,0.36,2.99,0.51,4.49,0.53c0.72,0.01,1.52-0.01,1.06-1.54c-3.29-10.8-6.57-21.61-9.46-32.53c-1.6-6.03-2.56-12.25-3.58-18.42
	c-0.73-4.41-1.09-8.88-1.62-13.33c-0.01-0.06,0-0.13,0-0.2c0-0.84,0-1.67,0-2.51c0.39,0.78,0.86,1.54,1.17,2.36
	c2.99,8.02,5.9,16.07,8.93,24.08c2.77,7.32,5.5,14.66,8.53,21.88c2.42,5.76,5.33,11.32,7.86,17.04c1.57,3.55,2.99,7.18,4.19,10.87
	c1,3.09-2.05,6.15-5.18,5.33c-9.89-2.58-19.74-5.31-29.65-7.84c-8.15-2.08-16.37-3.9-24.53-5.95c-9.21-2.32-18.36-4.84-27.57-7.13
	c-5.26-1.31-10.61-2.26-15.89-3.51c-4.89-1.16-9.73-2.51-14.59-3.76c-6.89-1.77-13.83-3.33-20.65-5.34
	c-6.23-1.84-12.35-4.09-18.47-6.28c-1.84-0.66-3.85-1.21-5.05-3.01c-0.4-0.61-1.17-1.6-1-1.83c0.49-0.64,1.37-1.35,2.11-1.36
	c2.63-0.02,5.3,0,7.88,0.43c4.26,0.71,8.46,1.74,12.68,2.65c5.66,1.23,11.34,2.38,16.98,3.73c7.63,1.83,15.23,3.78,22.84,5.74
	c4.8,1.23,9.57,2.57,14.36,3.84C311.73,284.83,312.23,284.9,312.81,285.09z"/>
<path d="M446.29,265.48c0.32,4.19,1.68,8.27-1.96,11.69c-2.18,2.04-4.5,1.74-6.99,1.23c-0.42-0.09-0.83-0.28-1.25-0.3
	c-3.95-0.15-7.92-0.1-11.85-0.45c-6.29-0.56-12.64-0.77-18.76-2.69c-3.22-1.01-6.2-0.05-9.06,1.54c-2.22,1.23-3.12,1.07-4.04-1.34
	c-1.09-2.84-2.09-5.85-2.34-8.85c-0.47-5.56-0.36-11.17-0.49-16.77c-0.13-5.98,2.13-11.2,5.12-16.19c0.38-0.63,0.71-1.29,1.12-1.9
	c1.43-2.08,3.23-2.37,5.38-1.07c3.28,1.98,5.09,5.22,7.31,8.13c0.73,0.96,1.78,1.69,2.68,2.53c0.54-0.91,1.17-1.78,1.62-2.73
	c1.06-2.25,1.84-4.66,3.09-6.79c3.19-5.42,8.8-5.4,13.31-1.86c5.95,4.67,9.79,10.86,12.37,17.88c1.53,4.16,3,8.35,4.27,12.6
	C446.3,261.77,446.15,263.57,446.29,265.48 M433.68,250.71c-0.39-1.67-0.71-3.37-1.2-5.02c-0.88-2.94-2.26-5.64-4.52-7.77
	c-1.4-1.32-4.73-1.23-5.26,0.23c-1.1,3.03-2.47,6.14-2.69,9.28c-0.42,6.07-0.07,12.2-0.16,18.3c-0.03,1.85,1.08,2.57,2.48,2.86
	c3.64,0.76,7.37,1.17,10.97,2.09c1.61,0.41,1.89-0.54,2.3-1.37c0.35-0.69,0.36-1.57,0.43-2.38
	C436.5,261.44,435.08,256.19,433.68,250.71 M399.01,260.56c-0.32,4.57,1.47,5.66,5.6,5.75c1.8,0.04,3.6,0.47,5.39,0.76
	c1.49,0.24,2.73-1.09,2.4-2.71c-0.77-3.82-1.46-7.65-2.39-11.43c-0.89-3.62-2.28-7.08-5.12-9.67c-0.63-0.57-1.7-1.04-2.5-0.95
	c-1.52,0.16-3.76,3.33-3.77,5.02c-0.02,3.87-0.02,7.75,0.01,11.62C398.64,259.36,398.88,259.76,399.01,260.56z"/>
<path d="M455.36,151.21c1.19,0.13,2.27,0.06,3.16,0.44c1.38,0.59,2.83,1.27,3.87,2.3c0.99,0.98-0.25,3.29-1.94,4.37
	c-1.93,1.24-4.02,0.9-6.05,0.73c-2.74-0.23-5.44-0.87-8.18-1.12c-5.28-0.48-10.57-0.77-15.85-1.22c-3.52-0.31-7.03-0.72-10.54-1.18
	c-2.88-0.38-4.55,1.79-6.62,3.03c-2.87,1.71-5.21,0.96-5.91-2.31c-0.74-3.45-1.53-6.91-1.94-10.41c-0.48-4.2-0.72-8.44-0.8-12.66
	c-0.07-3.84-0.29-7.79,0.49-11.49c0.82-3.87,2.7-7.52,4.21-11.22c0.8-1.97,1.79-4.01,4.09-4.53c5.98-1.34,9.76-0.35,13.14,4.67
	c5.17,7.69,9.8,15.74,14.66,23.64c0.55,0.89,1.02,1.84,1.67,2.65c1.04,1.3,2.6,1.44,3.59,0.14c1.91-2.52,3.49-5.27,5.41-7.78
	c2.61-3.42,5.38-6.72,8.16-10c0.47-0.56,1.33-0.91,2.08-1.1c1.64-0.41,2.65,0.65,1.91,2.15c-1.5,3-3.31,5.84-4.84,8.83
	c-2.51,4.93-4.94,9.9-7.31,14.89c-0.57,1.2-0.8,2.55-1.21,3.83c-0.83,2.56-0.4,3.24,2.17,3.36
	C453.58,151.25,454.37,151.21,455.36,151.21 M436.25,148.85c1.43-0.65,1.12-1.65,0.6-2.74c-2.9-6.08-5.71-12.2-8.7-18.25
	c-2.22-4.5-4.35-9.07-8.12-12.59c-1.2-1.12-2.64-1.07-3.7-0.37c-1.8,1.19-3.26,2.98-3.47,5.19c-0.26,2.75-0.29,5.57-0.01,8.32
	c0.47,4.6,1.3,9.17,1.9,13.76c0.26,1.96,0.99,3.5,3.07,3.91c1.9,0.37,3.85,0.54,5.77,0.81C427.75,147.47,431.9,148.06,436.25,148.85
	z"/>
<path d="M455.06,177.71c-2.75,0.82-5.39,1.59-8.06,2.25c-1.91,0.48-3.11,1.79-3.06,3.72c0.19,7.29,1.49,14.43,3.32,21.46
	c1.26,4.84,2.9,9.58,4.07,14.44c0.44,1.84,0.56,4.01-1.42,5.46c-1.74,1.28-4.57,1.47-6.53,0.24c-10.27-6.42-20.7-12.6-30.71-19.41
	c-4.99-3.4-9.37-7.79-13.69-12.06c-2.65-2.62-2.18-5.19,1.49-7.28c6.28-3.56,13.14-5.44,20-7.32c7.38-2.02,14.8-3.92,22.25-5.67
	c4.1-0.96,8.31-1.51,12.47-2.24c0.86-0.15,1.73-0.35,2.59-0.38c1.71-0.05,1.9,0.35,1.26,2.02
	C458.27,174.96,457.03,176.54,455.06,177.71 M439.59,207.36c-0.53-2.34-1.31-4.66-1.52-7.03c-0.44-4.86-0.66-9.75-0.8-14.64
	c-0.05-1.8-1.01-2.17-2.39-2.15c-1.19,0.02-2.43,0.08-3.57,0.4c-5.47,1.52-10.92,3.08-16.36,4.72c-2.22,0.67-3.26,3.7-1.75,5.25
	c1.88,1.92,3.82,3.89,6.06,5.31c5.74,3.64,11.66,7,17.52,10.45c1.88,1.11,2.8,0.6,2.8-1.53
	C439.59,208.02,439.59,207.89,439.59,207.36z"/>
<path class="st0" d="M346.9,361.33c2.54,1.49,5.19,2.62,7.38,4.32c4.96,3.86,9.69,8.01,14.51,12.05c2.46,2.06,3.19,5.07,4.18,7.91
	c0.06,0.18-0.43,0.82-0.61,0.79c-4.46-0.61-8.93-1.16-13.34-2.02c-0.97-0.19-2.34-1.46-2.45-2.35c-0.33-2.83-2.12-3.8-4.44-4.23
	c-6.65-1.24-13.32-2.4-19.98-3.56c-2.45-0.43-4.92-0.81-7.38-1.18c-1.57-0.24-2.88-1.72-3-3.36c-0.07-0.93-0.32-1.86-0.37-2.79
	c-0.16-2.83-0.33-5.66-0.33-8.5c0-0.37,1.03-1.11,1.51-1.06c2.86,0.3,5.69,0.79,8.54,1.2c3.06,0.44,5.99,1.3,9.24,0.89
	C342.39,359.17,344.64,360.58,346.9,361.33z"/>
<path class="st0" d="M360.39,467.62c6.84,0.13,13.48,0.25,20.12,0.41c0.93,0.02,2.04-0.02,2.74,0.46c0.63,0.43,1.07,1.51,1.1,2.33
	c0.02,0.63-0.59,1.67-1.15,1.85c-1.17,0.39-2.49,0.45-3.75,0.46c-19.16,0.02-38.33,0.05-57.49,0c-5.98-0.02-11.97-0.25-17.95-0.37
	c-6.66-0.14-13.33-0.2-19.99-0.42c-4.75-0.15-9.5-0.46-14.24-0.79c-2.2-0.15-4.39-0.42-6.56-0.82c-0.64-0.12-1.16-0.89-1.73-1.36
	c0.59-0.32,1.15-0.84,1.77-0.91c2.17-0.23,4.35-0.36,6.53-0.42c5.79-0.16,11.57-0.22,17.36-0.42c4.63-0.16,9.25-0.6,13.88-0.66
	c4.92-0.06,9.85,0.25,14.77,0.27c12.3,0.05,24.59-0.01,36.89,0.03C355.19,467.26,357.69,467.49,360.39,467.62z"/>
<path class="st0" d="M319.81,575.59c-2.33,0.39-4.46,0.81-6.6,1.18c-4.72,0.82-9.44,1.63-14.16,2.44c-3.74,0.64-7.48,1.28-11.23,1.9
	c-4.12,0.68-8.25,1.36-12.38,1.96c-2.44,0.35-4.9,0.59-7.36,0.76c-0.47,0.03-0.98-0.52-1.47-0.8c0.38-0.42,0.68-1.08,1.14-1.23
	c2.96-0.95,5.92-1.99,8.96-2.61c4.76-0.97,9.59-1.56,14.37-2.43c6.09-1.1,12.16-2.35,18.25-3.49c4.45-0.84,8.93-1.57,13.38-2.42
	c5.28-1.01,10.55-2.13,15.83-3.13c4.52-0.85,9.07-1.55,13.59-2.39c4.68-0.87,9.33-1.93,14.03-2.71c3.35-0.56,6.76-0.82,10.14-1.21
	c3.38-0.39,6.76-0.87,10.15-1.12c0.87-0.06,2.34,0.38,2.58,0.98c0.45,1.12,0.18,2.3-1.64,2.56c-3.3,0.48-6.55,1.26-9.83,1.92
	c-4.61,0.92-9.21,1.9-13.83,2.74c-3.44,0.63-6.92,1.04-10.37,1.61c-4.85,0.79-9.7,1.61-14.54,2.45c-3.42,0.6-6.83,1.3-10.25,1.86
	C325.73,574.86,322.86,575.19,319.81,575.59z"/>
<path class="st0" d="M346.21,515.7c5.82-0.53,11.45-1.08,17.08-1.56c2.43-0.21,4.88-0.26,7.32-0.41c4.23-0.25,8.45-0.61,12.68-0.72
	c1.03-0.03,2.86,0.6,2.96,1.16c0.25,1.42-1.21,1.77-2.43,1.95c-2.6,0.39-5.18,0.9-7.8,1.12c-2.24,0.19-4.51-0.01-6.76,0.05
	c-3.95,0.1-7.91,0.13-11.85,0.41c-5.5,0.4-11.02,0.8-16.48,1.61c-5.54,0.82-11.07,1.14-16.66,1.15c-4.61,0-9.23,0.04-13.82,0.42
	c-5.52,0.45-11.02,1.27-16.52,1.91c-0.45,0.05-0.92,0-1.38,0.01c-4.94,0.13-9.87,0.26-14.81,0.39c-4.87,0.13-9.74,0.27-14.61,0.38
	c-0.27,0.01-0.55-0.14-0.82-0.22c0.24-0.05,0.48-0.12,0.72-0.16c2.53-0.4,5.05-0.83,7.59-1.17c4.18-0.56,8.36-1.08,12.54-1.58
	c1.65-0.19,3.3-0.3,4.96-0.4c4.49-0.28,8.98-0.51,13.46-0.8c3.7-0.24,7.4-0.49,11.1-0.79c4.44-0.36,8.86-0.82,13.3-1.16
	c4.22-0.32,8.45-0.5,12.67-0.82C341.11,516.29,343.56,515.96,346.21,515.7z"/>
<path d="M498.7,182.34c-9.59,3.48-18.91,7.19-28.4,10.37c-6.49,2.17-13.22,3.61-19.83,5.4c-1.32,0.36-1.87-0.4-2.18-1.42
	c-0.45-1.46-0.97-2.93-1.15-4.44c-0.2-1.7,1.42-1.8,2.47-1.98c1.82-0.32,3.7-0.25,5.54-0.46c4.25-0.48,8.5-1.03,12.74-1.56
	c3.12-0.39,6.3-0.52,9.35-1.24c6.79-1.59,13.52-3.48,20.27-5.25c0.36-0.09,0.73-0.16,1.09-0.21c0.43-0.06,0.86-0.1,1.28-0.15
	C499.55,181.72,499.23,182.03,498.7,182.34z"/>
<path d="M197.66,183.13c0.94,0,1.76-0.2,2.42,0.04c2.89,1.05,6.16,1.54,7.53,4.96c0.49,1.24,1.05,2.35-0.13,3.51
	c-1.32,1.3-2.53,2.86-4.73,1.89c-0.89-0.39-1.8-0.8-2.58-1.36c-1.28-0.91-2.57-1.87-3.68-2.97c-1.62-1.59-1.6-3.1-0.13-4.96
	C196.68,183.84,197.09,183.5,197.66,183.13z"/>
<path class="st0" d="M437.23,623.27c-0.79-0.31-1.92-0.79-1.89-0.89c0.4-1.25,0.87-2.53,1.59-3.61c0.19-0.28,1.38-0.06,2.03,0.16
	c0.79,0.27,1.46,0.87,2.25,1.16c1.52,0.55,1.24,1.38,0.18,1.9C440.16,622.61,438.76,622.86,437.23,623.27z"/>
<path class="st0" d="M297.35,354.54c2.78,1.16,4.04,4.18,3.13,7.06c-0.02,0.08-0.45,0.14-0.5,0.08c-1.29-1.87-2.55-3.76-3.82-5.64
	C295.27,354.72,295.85,354.4,297.35,354.54z"/>
<path d="M139.74,724.14c1.05-0.45,1.89-0.91,2.74-1.36c0.09-0.05,0.19-0.1,0.28-0.15c0.18,1.3,0.39,2.6,0.45,3.91
	c0,0.09-1.23,0.51-1.68,0.3c-0.94-0.42-1.84-1.06-2.59-1.78C137.85,724.03,138.88,724.16,139.74,724.14z"/>
<path class="st0" d="M213.52,703.16c0.63,0.23,1.16,0.39,1.7,0.48c0.42,0.07,1.59,0.82,0.61-0.61c-0.08-0.12,0.42-0.63,0.65-0.96
	c0.29,0.27,0.86,0.56,0.83,0.8c-0.12,1.15,0.82,2.8-1.28,3.14c-1.56,0.25-3.14-1.43-2.89-3.07c0-0.01,0.1-0.04,0.13-0.02
	C213.33,702.95,213.37,703.01,213.52,703.16z"/>
<path class="st0" d="M155.2,367.83c-0.2-0.58-2.27-1.15,0.06-1.56c0.83-0.14,1.49-1.19,0.8-2.34c-0.28-0.46-0.44-1-0.54-1.53
	c-0.1-0.51-0.05-1.04-0.07-1.57c0.28,0.49,0.69,0.95,0.81,1.48c0.34,1.44,0.55,2.91,0.81,4.38c0.04,0.25,0.02,0.51,0.11,0.74
	c0.22,0.57,0.49,1.12,0.74,1.68c-0.96-0.02-2.07,0.3-2.48-1.04C155.42,368.02,155.35,367.98,155.2,367.83z"/>
<path class="st0" d="M150.47,370.99c0.3,0.32,1.04,0.74,1.02,1.14c-0.06,1.79,0.44,2.26,2.09,1.4c0.97-0.5,1.6-0.5,2.2,0.41
	c0.11,0.16,0.25,0.34,0.42,0.41c0.77,0.34,1.56,0.66,2.34,0.98c-0.91-0.1-1.83-0.21-2.74-0.29c-1.33-0.12-2.66-0.24-3.99-0.33
	c-1.21-0.08-1.72-0.44-1.1-1.75C150.95,372.46,150.64,371.71,150.47,370.99z"/>
<path class="st0" d="M192.93,710.74c1.37,0.85,0.96,2.32,0.51,3.48c-0.19,0.48-2.22,0.83-2.33,0.64c-0.51-0.93-0.66-2.06-0.94-3.13
	c0.14,0.13,0.26,0.28,0.41,0.4c0.58,0.46,1.42,1.42,1.7,1.27C193.21,712.94,193.51,711.98,192.93,710.74z"/>
<path class="st0" d="M206.23,694.29c0.47,0.51,0.85,0.93,1.22,1.34c-0.63,0.05-1.45,0.36-1.86,0.08c-0.78-0.54-2.96,0.11-2.03-2.09
	c0.14-0.32,0.19-0.67,0.29-1c0.31,0.2,0.62,0.4,0.92,0.61C205.23,693.55,205.68,693.87,206.23,694.29z"/>
<path class="st0" d="M168.35,369.63c0.35-0.3,0.87-0.75,1.25-0.65c0.49,0.13,0.88,0.68,1.31,1.05c-0.62,0.56-1.23,1.12-1.85,1.67
	C168.85,371.05,168.65,370.39,168.35,369.63z"/>
<path class="st0" d="M161.11,371.78c-0.18-0.54-0.26-0.99-0.34-1.43c0.7,0.01,1.41-0.05,2.09,0.07c0.32,0.05,0.6,0.43,0.88,0.68
	c0.25,0.21,0.49,0.45,0.74,0.67c-0.31,0.04-0.62,0.11-0.93,0.11C162.77,371.88,161.99,371.87,161.11,371.78z"/>
<path class="st0" d="M438.38,611.62c-0.25-0.47-0.5-0.75-0.75-1.02c0.57-0.18,1.14-0.43,1.72-0.51c0.17-0.02,0.42,0.4,0.59,0.65
	c0.06,0.09,0.05,0.27,0,0.38c-0.33,0.7-0.68,1.39-1.02,2.09C438.74,612.73,438.56,612.28,438.38,611.62z"/>
<path class="st0" d="M196.77,695.87c-0.4-0.46-1.01-1.05-0.94-1.14c0.45-0.62,1.05-1.14,1.6-1.69c0.06,0.21,0.15,0.41,0.16,0.62
	c0.04,0.68,0.03,1.36,0.06,2.04c0.01,0.29,0.09,0.58,0.13,0.87C197.49,696.36,197.18,696.16,196.77,695.87z"/>
<path class="st0" d="M207.02,687.4c0.09,0.56,0.09,1.23,0.08,1.89c-0.13-0.02-0.36-0.05-0.36-0.06
	C206.78,688.64,206.85,688.07,207.02,687.4z"/>
<path class="st0" d="M478.11,610.36c0.1,0.35,0.11,0.61,0.1,0.86c-0.02,0.56-0.06,1.12-0.08,1.69c-0.1-0.08-0.3-0.16-0.29-0.23
	C477.87,611.88,477.95,611.07,478.11,610.36z"/>
<path class="st0" d="M146.83,369.51c-0.5-0.04-0.8-0.08-1.11-0.12c0.18-0.22,0.32-0.56,0.55-0.63c0.26-0.09,0.61,0.02,0.89,0.12
	c0.4,0.14,0.78,0.34,1.16,0.52C147.89,369.43,147.46,369.47,146.83,369.51z"/>
<path d="M126.63,735.66c0.26-0.14,0.7-0.33,0.94-0.18c0.33,0.21,0.5,0.67,0.73,1.02C127.78,736.25,127.26,736.01,126.63,735.66z"/>
<path d="M488.06,597.26c0.72-0.13,1.64-0.27,2.56-0.38c0.03,0,0.08,0.17,0.12,0.26c-0.11,0.04-0.23,0.11-0.34,0.11
	C489.69,597.27,488.97,597.26,488.06,597.26z"/>
<path d="M540.17,577.56c0.84-0.13,1.77-0.27,2.71-0.39c0.1-0.01,0.21,0.1,0.32,0.16c-0.14,0.08-0.28,0.22-0.42,0.22
	C541.94,577.57,541.11,577.56,540.17,577.56z"/>
<path class="st0" d="M205.83,700.5c-0.76,0.13-1.61,0.26-2.56,0.39C204.03,700.76,204.88,700.63,205.83,700.5z"/>
<path class="st0" d="M208.4,700.1c0.62-0.13,1.35-0.26,2.17-0.39C209.94,699.84,209.22,699.97,208.4,700.1z"/>
<path class="st0" d="M208.2,700.1c-0.62,0.13-1.35,0.26-2.17,0.39C206.66,700.37,207.38,700.23,208.2,700.1z"/>
<path class="st0" d="M135.01,374.24c-0.26,0.2-0.53,0.2-0.79,0.2c0.18-0.31,0.35-0.62,0.53-0.92
	C134.83,373.69,134.92,373.86,135.01,374.24z"/>
<path class="st0" d="M210.76,699.71c0.38-0.13,0.85-0.28,1.34-0.38c0.15-0.03,0.33,0.1,0.5,0.15c-0.2,0.08-0.39,0.2-0.6,0.22
	C211.62,699.73,211.24,699.71,210.76,699.71z"/>
<path d="M547.95,576.77c-0.33,0.13-0.85,0.27-1.38,0.38c-0.02,0-0.08-0.17-0.12-0.26C546.89,576.85,547.32,576.81,547.95,576.77z"/>
<path class="st0" d="M136.48,393.25c0.05,0.28,0.01,0.45-0.04,0.63c-0.14,0.53-0.28,1.06-0.41,1.6c-0.08-0.07-0.24-0.16-0.23-0.21
	C135.99,394.56,136.19,393.85,136.48,393.25z"/>
<path class="st0" d="M248.88,366.36c-0.32-0.27-0.63-0.68-0.54-0.79c2.8-3.64,5.43-7.45,8.53-10.83c3.24-3.53,7.85-3.95,11.97-2.4
	c1.23,0.46,2.28,1.67,3.18,2.74c2.17,2.55,4.2,5.21,6.29,7.82c0.15,0.19,0.31,0.37,0.47,0.56c-0.27-0.04-0.55-0.04-0.81-0.12
	c-4.2-1.23-6.62-0.91-8.3,1.39c-0.79,1.08-1.33,2.33-1.97,3.51c-0.71,1.32-1.72,1.37-3.09,1.09
	C259.45,368.25,254.26,367.33,248.88,366.36z"/>
<path d="M428.56,192.19c2.58-0.83,5.93-0.68,6.41,1.95c0.37,2,0.31,4.12,0.19,6.16c-0.05,0.9-3.72,1.72-5.26,1.29
	c-2.43-0.68-4.51-1.7-6.05-3.95c-1.09-1.6-2.89-2.73-4.34-4.09c-0.27-0.25-0.41-0.64-0.61-0.96c0.4-0.13,0.8-0.38,1.21-0.39
	C422.86,192.18,425.61,192.19,428.56,192.19z"/>
</svg>
