<?xml version="1.0" encoding="UTF-8"?>
<svg xmlns="http://www.w3.org/2000/svg" xmlns:xlink="http://www.w3.org/1999/xlink" width="294px" height="143px" viewBox="0 0 294 143" version="1.1">
<g id="surface1">
<path style=" stroke:none;fill-rule:nonzero;fill:rgb(99.607843%,99.607843%,99.607843%);fill-opacity:1;" d="M 250.285156 70.203125 L 250.574219 70.277344 L 250.863281 70.851562 L 251.582031 72.796875 L 252.730469 76.179688 L 253.589844 78.914062 L 253.589844 79.058594 L 254.308594 79.273438 L 256.960938 80.570312 L 258.613281 81.359375 L 260.769531 82.441406 L 262.132812 83.160156 L 264.140625 84.238281 L 265.289062 84.886719 L 266.582031 85.609375 L 268.304688 86.617188 L 269.882812 87.550781 L 271.175781 88.34375 L 272.539062 89.207031 L 274.332031 90.359375 L 276.699219 91.941406 L 279.285156 93.742188 L 280.578125 94.675781 L 281.941406 95.683594 L 284.523438 97.554688 L 285.746094 98.421875 L 286.894531 99.285156 L 287.898438 100.078125 L 288.6875 100.722656 L 289.480469 101.441406 L 290.050781 101.945312 L 291.34375 103.242188 L 292.132812 104.25 L 292.707031 105.042969 L 293.28125 106.050781 L 293.855469 107.417969 L 293.855469 107.703125 L 294 107.703125 L 294 111.015625 L 293.855469 111.015625 L 293.710938 111.664062 L 293.140625 112.816406 L 292.492188 113.75 L 292.0625 114.253906 L 291.777344 114.542969 L 291.628906 114.542969 L 291.558594 114.757812 L 290.769531 115.40625 L 289.910156 116.054688 L 288.902344 116.703125 L 287.398438 117.566406 L 286.035156 118.214844 L 284.167969 119.007812 L 282.515625 119.65625 L 279.789062 120.664062 L 277.0625 121.527344 L 273.113281 122.605469 L 270.097656 123.324219 L 265.792969 124.261719 L 260.984375 125.269531 L 256.53125 126.132812 L 253.015625 126.707031 L 249.929688 127.140625 L 242.246094 128.074219 L 240.527344 128.21875 L 238.15625 128.21875 L 236.722656 128.003906 L 235.429688 127.570312 L 234.640625 127.066406 L 233.921875 126.421875 L 233.492188 125.84375 L 233.277344 125.199219 L 233.277344 124.40625 L 233.5625 123.46875 L 233.992188 122.675781 L 234.640625 121.8125 L 235.429688 120.949219 L 234.855469 120.878906 L 233.492188 120.734375 L 232.414062 120.445312 L 231.265625 119.941406 L 230.40625 119.292969 L 229.761719 118.648438 L 229.042969 117.566406 L 228.613281 116.628906 L 228.539062 116.199219 L 228.109375 116.488281 L 227.175781 117.207031 L 225.882812 118 L 224.089844 118.933594 L 222.4375 119.582031 L 220.859375 120.085938 L 218.992188 120.515625 L 216.910156 120.804688 L 214.46875 120.804688 L 213.179688 120.589844 L 211.957031 120.085938 L 210.953125 119.4375 L 210.089844 118.574219 L 209.375 117.496094 L 208.871094 116.34375 L 208.441406 114.6875 L 208.296875 113.535156 L 208.296875 111.160156 L 208.511719 109.507812 L 208.941406 107.777344 L 209.589844 106.265625 L 210.238281 105.113281 L 211.097656 103.964844 L 211.957031 103.027344 L 212.675781 102.378906 L 211.386719 102.523438 L 208.371094 103.027344 L 205.644531 103.601562 L 202.914062 104.25 L 199.902344 105.042969 L 196.457031 106.050781 L 192.792969 107.199219 L 191.933594 107.488281 L 192.433594 112.167969 L 192.722656 115.769531 L 192.9375 119.507812 L 193.082031 123.613281 L 193.082031 129.300781 L 192.9375 133.1875 L 192.863281 134.480469 L 192.507812 135.203125 L 191.714844 135.777344 L 190.351562 136.425781 L 187.984375 137.21875 L 185.113281 138.007812 L 184.683594 138.152344 L 184.753906 137.863281 L 184.898438 132.753906 L 184.898438 127.285156 L 184.824219 124.476562 L 184.609375 120.300781 L 184.324219 116.558594 L 183.824219 111.808594 L 183.675781 110.730469 L 183.675781 110.296875 L 180.519531 111.375 L 174.058594 113.535156 L 173.558594 113.679688 L 173.199219 113.679688 L 173.703125 115.191406 L 174.273438 116.703125 L 174.273438 117.207031 L 173.703125 117.78125 L 172.554688 118.503906 L 170.972656 119.292969 L 169.109375 120.085938 L 167.527344 120.589844 L 166.378906 120.804688 L 166.019531 120.230469 L 165.230469 118.070312 L 164.300781 115.335938 L 163.367188 112.238281 L 162.71875 109.792969 L 162.21875 107.777344 L 161.570312 104.824219 L 160.996094 101.660156 L 160.566406 98.78125 L 160.207031 95.902344 L 160.207031 95.613281 L 158.410156 95.828125 L 156.476562 96.117188 L 154.824219 96.476562 L 153.101562 96.980469 L 151.59375 97.628906 L 149.941406 98.347656 L 148.792969 98.78125 L 147.859375 98.996094 L 147.289062 98.925781 L 147.214844 98.851562 L 147.214844 98.492188 L 147.574219 98.058594 L 148.578125 97.414062 L 149.296875 96.980469 L 151.019531 96.191406 L 151.234375 96.042969 L 147.429688 96.476562 L 138.027344 97.628906 L 137.597656 97.699219 L 138.171875 101.730469 L 138.746094 105.257812 L 138.886719 106.121094 L 140.96875 105.402344 L 143.984375 104.320312 L 147.214844 103.171875 L 148.507812 102.738281 L 149.082031 102.667969 L 149.441406 102.882812 L 149.371094 103.171875 L 148.722656 103.890625 L 147.933594 104.394531 L 146.425781 105.113281 L 145.277344 105.691406 L 143.265625 106.480469 L 139.605469 107.777344 L 139.25 107.921875 L 139.535156 109.507812 L 140.183594 112.527344 L 140.613281 114.113281 L 141.042969 115.191406 L 141.546875 116.199219 L 142.046875 116.917969 L 142.046875 117.421875 L 141.902344 117.925781 L 143.265625 117.0625 L 144.488281 116.273438 L 146.066406 115.265625 L 147.429688 114.398438 L 148.867188 113.535156 L 150.371094 112.742188 L 151.519531 112.3125 L 152.597656 112.097656 L 153.675781 112.097656 L 153.964844 112.238281 L 153.816406 112.527344 L 153.101562 113.105469 L 151.738281 113.96875 L 150.660156 114.6875 L 147.789062 116.558594 L 146.28125 117.496094 L 144.414062 118.574219 L 142.046875 119.796875 L 140.183594 120.664062 L 139.105469 121.09375 L 137.523438 121.527344 L 136.953125 121.597656 L 135.730469 121.597656 L 134.796875 121.308594 L 134.078125 120.878906 L 133.433594 120.230469 L 132.859375 119.292969 L 132.359375 118.070312 L 131.925781 116.558594 L 131.425781 113.679688 L 130.417969 108.210938 L 129.847656 104.539062 L 129.34375 100.867188 L 129.128906 98.996094 L 129.128906 98.347656 L 127.261719 98.78125 L 126.113281 99.140625 L 124.675781 99.714844 L 123.386719 100.148438 L 122.808594 100.21875 L 122.738281 99.859375 L 123.527344 99.066406 L 125.035156 98.058594 L 126.328125 97.339844 L 127.550781 96.765625 L 129.414062 96.042969 L 131.640625 95.324219 L 133.433594 94.820312 L 136.160156 94.246094 L 138.601562 93.8125 L 142.261719 93.3125 L 146.496094 92.878906 L 153.746094 92.300781 L 157.765625 91.941406 L 160.566406 91.65625 L 161.070312 91.726562 L 161.140625 91.941406 L 160.636719 92.519531 L 160.136719 92.878906 L 162.933594 92.375 L 165.085938 92.085938 L 167.960938 91.292969 L 168.246094 91.367188 L 168.316406 91.871094 L 169.609375 91.796875 L 174.132812 91.796875 L 176.285156 92.011719 L 178.511719 92.445312 L 180.449219 93.09375 L 182.527344 94.101562 L 182.601562 94.316406 L 181.8125 94.75 L 180.160156 95.902344 L 178.867188 96.765625 L 177.933594 97.339844 L 176.785156 97.917969 L 175.710938 98.277344 L 174.992188 98.277344 L 174.347656 97.988281 L 173.269531 97.414062 L 171.761719 96.835938 L 170.183594 96.40625 L 168.820312 96.117188 L 168.964844 96.695312 L 169.539062 100.003906 L 170.113281 102.8125 L 170.902344 106.195312 L 171.621094 108.785156 L 172.480469 111.59375 L 173.054688 113.320312 L 173.339844 113.03125 L 173.84375 112.457031 L 174.347656 111.953125 L 175.351562 111.304688 L 176.570312 110.730469 L 178.222656 110.152344 L 180.519531 109.433594 L 183.246094 108.496094 L 183.390625 108.496094 L 182.601562 103.675781 L 181.882812 99.859375 L 181.164062 96.546875 L 181.164062 95.902344 L 181.453125 95.542969 L 182.386719 94.890625 L 183.894531 94.101562 L 185.902344 93.3125 L 187.484375 92.804688 L 188.632812 92.519531 L 189.132812 92.445312 L 189.277344 92.589844 L 189.566406 94.03125 L 189.566406 94.246094 L 191.359375 93.597656 L 193.082031 93.09375 L 195.089844 92.589844 L 198.035156 92.011719 L 201.550781 91.507812 L 204.277344 91.222656 L 207.941406 90.933594 L 214.757812 90.574219 L 215.261719 90.574219 L 215.332031 90.863281 L 214.613281 91.507812 L 213.25 92.519531 L 211.671875 93.382812 L 210.453125 93.957031 L 209.160156 94.386719 L 208.15625 94.605469 L 206.359375 94.75 L 202.914062 94.964844 L 198.105469 95.398438 L 193.511719 95.972656 L 190.785156 96.40625 L 190.210938 96.546875 L 190.28125 97.414062 L 190.929688 100.867188 L 191.574219 104.96875 L 191.644531 105.546875 L 191.933594 105.546875 L 194.804688 104.539062 L 197.890625 103.53125 L 200.332031 102.738281 L 203.417969 101.804688 L 206.503906 100.9375 L 209.589844 100.148438 L 212.386719 99.5 L 214.039062 99.140625 L 215.691406 98.347656 L 216.695312 97.917969 L 219.277344 97.050781 L 220.644531 96.765625 L 221.863281 96.621094 L 223.15625 96.695312 L 224.589844 96.980469 L 225.667969 97.414062 L 226.671875 97.988281 L 227.605469 98.707031 L 228.394531 99.5 L 229.113281 100.433594 L 229.761719 101.585938 L 230.332031 102.882812 L 230.691406 103.964844 L 230.835938 103.964844 L 230.980469 103.675781 L 231.480469 103.097656 L 231.625 103.097656 L 231.769531 102.8125 L 232.558594 102.164062 L 233.421875 101.515625 L 234.710938 100.652344 L 234.066406 100.722656 L 232.773438 101.011719 L 232.273438 101.011719 L 232.128906 100.867188 L 232.414062 100.363281 L 233.058594 99.714844 L 234.066406 98.996094 L 235.140625 98.421875 L 236.9375 97.699219 L 239.164062 96.980469 L 240.238281 96.765625 L 241.460938 96.621094 L 242.75 96.695312 L 244.1875 96.980469 L 245.476562 97.484375 L 246.484375 98.132812 L 247.203125 98.707031 L 248.136719 99.644531 L 248.707031 100.433594 L 249.285156 101.371094 L 249.425781 101.660156 L 249.285156 100.292969 L 248.636719 96.261719 L 248.136719 93.597656 L 247.558594 90.863281 L 246.988281 88.488281 L 246.484375 86.472656 L 245.691406 83.59375 L 245.40625 82.800781 L 243.179688 81.792969 L 240.597656 80.714844 L 237.726562 79.5625 L 235.070312 78.554688 L 232.488281 77.617188 L 229.398438 76.539062 L 229.542969 76.25 L 230.761719 75.386719 L 231.910156 74.523438 L 233.347656 73.585938 L 234.496094 72.9375 L 235.355469 72.578125 L 236.289062 72.363281 L 236.9375 72.433594 L 239.519531 73.300781 L 242.320312 74.308594 L 242.609375 74.453125 L 242.535156 73.949219 L 242.824219 73.515625 L 243.542969 72.9375 L 244.691406 72.292969 L 245.839844 71.714844 L 247.488281 70.996094 L 249.210938 70.421875 Z M 255.886719 88.054688 L 256.675781 92.085938 L 257.324219 96.042969 L 257.894531 100.652344 L 258.253906 104.824219 L 258.398438 106.339844 L 258.828125 106.195312 L 261.414062 104.898438 L 263.421875 104.105469 L 264.929688 103.675781 L 265.503906 103.675781 L 265.433594 104.105469 L 265 104.609375 L 263.851562 105.332031 L 262.488281 105.976562 L 260.621094 106.84375 L 258.613281 107.851562 L 258.542969 107.921875 L 258.542969 115.480469 L 258.253906 115.910156 L 257.679688 116.414062 L 256.53125 116.992188 L 255.027344 117.566406 L 253.445312 118.070312 L 250.863281 118.789062 L 250.503906 118.863281 L 250.574219 118.285156 L 250.574219 116.273438 L 250.503906 113.535156 L 250.433594 112.457031 L 250.070312 112.601562 L 249.855469 112.890625 L 249.285156 114.253906 L 248.636719 115.40625 L 247.847656 116.273438 L 247.203125 116.847656 L 246.125 117.566406 L 244.976562 118.214844 L 243.179688 119.078125 L 241.960938 119.582031 L 241.675781 119.941406 L 241.386719 120.734375 L 241.386719 121.667969 L 241.816406 122.316406 L 242.394531 122.75 L 243.179688 123.109375 L 244.257812 123.394531 L 245.621094 123.613281 L 246.484375 123.683594 L 250.933594 123.683594 L 253.160156 123.542969 L 255.957031 123.253906 L 259.1875 122.820312 L 262.777344 122.246094 L 266.796875 121.453125 L 269.523438 120.878906 L 274.90625 119.65625 L 278.855469 118.863281 L 280.578125 118.429688 L 282.300781 117.855469 L 283.449219 117.277344 L 284.308594 116.703125 L 284.957031 116.125 L 285.601562 115.121094 L 285.886719 114.328125 L 285.960938 114.039062 L 285.960938 112.457031 L 285.601562 110.945312 L 285.027344 109.578125 L 284.308594 108.425781 L 283.519531 107.417969 L 282.515625 106.339844 L 281.871094 105.691406 L 281.292969 105.1875 L 280.363281 104.394531 L 278.925781 103.3125 L 277.996094 102.59375 L 276.699219 101.660156 L 274.550781 100.003906 L 271.820312 97.988281 L 268.949219 95.972656 L 266.363281 94.246094 L 264.929688 93.3125 L 263.566406 92.445312 L 262.273438 91.65625 L 260.480469 90.574219 L 259.257812 89.855469 L 257.753906 88.992188 L 256.027344 88.054688 Z M 218.347656 101.515625 L 217.84375 102.234375 L 217.199219 103.675781 L 216.765625 105.113281 L 216.480469 106.554688 L 216.410156 107.417969 L 216.410156 109.648438 L 216.625 111.234375 L 216.980469 112.601562 L 217.414062 113.679688 L 217.914062 114.472656 L 218.5625 115.191406 L 219.207031 115.695312 L 220.140625 116.125 L 221.722656 116.414062 L 222.152344 116.414062 L 222.507812 115.046875 L 222.796875 113.175781 L 222.871094 112.457031 L 222.941406 110.511719 L 222.871094 109 L 222.582031 107.417969 L 222.222656 106.265625 L 221.648438 105.042969 L 221.074219 104.105469 L 220.425781 103.242188 L 219.640625 102.378906 L 218.921875 101.804688 L 218.492188 101.515625 Z M 237.941406 101.515625 L 237.4375 102.308594 L 236.867188 103.53125 L 236.363281 105.1875 L 236.148438 106.195312 L 236.003906 107.703125 L 236.003906 109.433594 L 236.21875 111.085938 L 236.503906 112.3125 L 236.9375 113.464844 L 237.4375 114.328125 L 237.941406 114.976562 L 238.585938 115.550781 L 239.59375 116.054688 L 240.382812 116.273438 L 241.316406 116.414062 L 241.816406 116.125 L 242.105469 115.121094 L 242.394531 113.390625 L 242.535156 111.878906 L 242.535156 109.792969 L 242.394531 108.351562 L 242.105469 107.058594 L 241.601562 105.691406 L 240.8125 104.25 L 240.097656 103.3125 L 239.304688 102.453125 L 238.445312 101.730469 L 238.085938 101.515625 Z M 70.84375 7.941406 L 71.203125 8.015625 L 71.492188 10.246094 L 72.0625 13.988281 L 72.855469 17.949219 L 73.574219 20.96875 L 74.503906 24.351562 L 75.796875 28.3125 L 76.730469 30.832031 L 77.664062 33.136719 L 77.734375 33.421875 L 78.382812 33.351562 L 80.175781 33.277344 L 80.605469 32.269531 L 82.542969 27.089844 L 83.546875 24.28125 L 84.125 22.699219 L 84.839844 20.539062 L 85.628906 18.308594 L 86.347656 16.003906 L 87.136719 13.628906 L 87.785156 11.539062 L 88.214844 10.964844 L 89.503906 10.175781 L 90.871094 9.527344 L 93.3125 8.589844 L 94.675781 8.15625 L 95.535156 7.941406 L 95.824219 7.941406 L 96.039062 9.382812 L 96.542969 12.910156 L 97.113281 16.074219 L 97.691406 18.738281 L 98.121094 20.539062 L 98.765625 22.988281 L 98.910156 23.492188 L 99.269531 23.34375 L 100.417969 22.625 L 101.78125 21.835938 L 103.503906 20.898438 L 105.730469 19.890625 L 107.738281 19.171875 L 109.175781 18.738281 L 110.753906 18.378906 L 112.257812 18.164062 L 113.769531 18.019531 L 114.84375 18.019531 L 115.917969 17.730469 L 116.28125 17.800781 L 116.351562 18.234375 L 117.066406 18.308594 L 118.289062 18.59375 L 119.796875 19.101562 L 121.304688 19.746094 L 122.882812 20.609375 L 124.460938 21.691406 L 125.824219 22.699219 L 126.832031 23.5625 L 127.621094 24.210938 L 128.769531 25.289062 L 129.484375 25.9375 L 130.632812 27.015625 L 131.136719 27.519531 L 131.710938 28.023438 L 132.644531 28.960938 L 133.21875 29.464844 L 134.292969 30.398438 L 135.226562 31.121094 L 136.160156 31.914062 L 137.023438 32.703125 L 137.8125 33.492188 L 138.601562 34.574219 L 139.105469 35.726562 L 139.175781 36.015625 L 139.175781 37.09375 L 138.886719 37.886719 L 138.316406 38.679688 L 137.523438 39.324219 L 136.449219 39.972656 L 134.292969 41.054688 L 132.285156 41.988281 L 130.132812 42.921875 L 129.199219 43.285156 L 129.199219 43.425781 L 129.847656 44.074219 L 130.417969 44.578125 L 131.28125 45.371094 L 131.855469 45.875 L 132.574219 46.523438 L 133.363281 47.171875 L 134.078125 47.820312 L 134.871094 48.464844 L 135.875 49.332031 L 136.664062 49.976562 L 138.960938 51.847656 L 139.894531 52.570312 L 141.183594 53.578125 L 142.695312 54.726562 L 145.421875 56.742188 L 146.785156 57.679688 L 147.859375 58.472656 L 150.230469 60.054688 L 153.316406 62.144531 L 154.75 63.007812 L 154.964844 63.222656 L 154.105469 63.726562 L 152.957031 64.519531 L 152.238281 65.023438 L 150.949219 65.882812 L 149.65625 66.605469 L 148.867188 66.964844 L 147.71875 67.253906 L 147 67.109375 L 146.28125 66.675781 L 144.917969 65.8125 L 141.472656 63.511719 L 140.109375 62.574219 L 138.671875 61.566406 L 137.382812 60.632812 L 136.375 59.910156 L 135.011719 58.902344 L 134.078125 58.183594 L 132.929688 57.320312 L 131.925781 56.527344 L 131.210938 55.953125 L 130.203125 55.160156 L 128.625 53.863281 L 127.90625 53.289062 L 126.902344 52.425781 L 126.113281 51.777344 L 125.324219 51.058594 L 124.535156 50.410156 L 123.671875 49.617188 L 123.097656 49.113281 L 122.378906 48.464844 L 121.445312 47.601562 L 120.730469 46.957031 L 120.800781 46.667969 L 121.445312 46.234375 L 121.949219 45.875 L 120.15625 46.453125 L 118 47.097656 L 118 58.832031 L 117.929688 61.496094 L 117.644531 61.925781 L 117.066406 62.429688 L 116.351562 62.863281 L 115.132812 63.367188 L 113.695312 63.871094 L 110.175781 64.878906 L 109.890625 64.878906 L 109.820312 64.734375 L 109.820312 62.5 L 109.890625 61.855469 L 109.53125 61.566406 L 109.027344 60.992188 L 108.382812 60.269531 L 107.09375 58.6875 L 106.300781 57.679688 L 105.296875 56.382812 L 104.652344 55.519531 L 103.71875 54.226562 L 102.714844 52.785156 L 102.136719 51.921875 L 101.351562 50.699219 L 100.488281 49.332031 L 99.839844 48.25 L 98.910156 46.667969 L 97.761719 44.578125 L 96.46875 42.0625 L 95.464844 39.972656 L 94.53125 37.8125 L 94.460938 37.527344 L 91.15625 37.597656 L 87.855469 37.8125 L 84.984375 38.03125 L 84.910156 38.390625 L 83.476562 41.773438 L 82.832031 43.285156 L 82.902344 43.714844 L 84.125 45.730469 L 85.058594 47.242188 L 85.773438 48.324219 L 86.851562 49.90625 L 87.785156 51.203125 L 88.789062 52.570312 L 89.792969 53.863281 L 90.582031 54.875 L 91.585938 56.097656 L 92.878906 57.609375 L 92.808594 57.96875 L 91.875 58.6875 L 90.082031 59.839844 L 88.789062 60.558594 L 87.640625 61.136719 L 86.5625 61.566406 L 85.703125 61.78125 L 85.199219 61.78125 L 84.625 61.277344 L 83.980469 60.558594 L 83.332031 59.765625 L 82.328125 58.542969 L 81.464844 57.464844 L 80.820312 56.601562 L 79.671875 55.089844 L 78.882812 53.9375 L 78.019531 52.714844 L 77.089844 51.273438 L 76.945312 51.058594 L 76.226562 51.203125 L 72.855469 52.066406 L 72.351562 52.136719 L 72.566406 51.492188 L 73.070312 50.410156 L 74.21875 47.820312 L 74.503906 47.097656 L 73.714844 45.660156 L 72.855469 44.074219 L 72.0625 42.566406 L 71.277344 40.910156 L 71.058594 40.261719 L 68.402344 40.835938 L 67.398438 41.054688 L 66.96875 41.054688 L 67.039062 40.621094 L 67.542969 40.117188 L 68.691406 39.253906 L 69.625 38.679688 L 69.910156 38.53125 L 70.128906 38.53125 L 69.839844 37.742188 L 69.839844 37.527344 L 66.609375 37.597656 L 64.097656 37.742188 L 60.363281 38.03125 L 60.148438 38.679688 L 57.996094 43.714844 L 56.847656 46.304688 L 55.914062 48.394531 L 55.554688 49.113281 L 55.050781 49.6875 L 54.050781 50.265625 L 53.042969 50.699219 L 51.535156 51.203125 L 49.023438 51.847656 L 48.019531 52.136719 L 47.730469 52.136719 L 47.804688 51.777344 L 48.878906 49.402344 L 50.171875 46.453125 L 51.035156 44.4375 L 52.039062 42.0625 L 52.683594 40.546875 L 53.117188 39.398438 L 53.257812 39.035156 L 52.398438 39.109375 L 48.738281 39.757812 L 45.292969 40.476562 L 42.78125 41.054688 L 42.347656 41.054688 L 42.277344 40.765625 L 42.707031 40.261719 L 43.855469 39.398438 L 44.863281 38.75 L 45.9375 38.175781 L 47.445312 37.597656 L 48.808594 37.164062 L 51.824219 36.445312 L 54.480469 35.871094 L 54.695312 35.511719 L 55.339844 33.855469 L 56.199219 31.625 L 57.277344 28.746094 L 58.355469 25.792969 L 59.289062 23.203125 L 60.292969 20.324219 L 61.15625 17.730469 L 62.375 13.988281 L 63.089844 11.683594 L 63.453125 11.109375 L 64.097656 10.605469 L 65.890625 9.671875 L 68.261719 8.734375 L 69.765625 8.230469 Z M 106.375 21.691406 L 105.367188 21.835938 L 104.21875 22.410156 L 103 23.203125 L 101.707031 23.921875 L 100.988281 24.28125 L 99.839844 24.714844 L 99.339844 24.855469 L 99.410156 25.363281 L 99.988281 27.160156 L 100.917969 29.824219 L 101.996094 32.558594 L 102.355469 33.421875 L 105.800781 33.421875 L 109.175781 33.492188 L 108.886719 29.25 L 108.457031 23.777344 L 108.242188 21.835938 L 108.027344 21.761719 Z M 65.460938 24.929688 L 64.671875 27.089844 L 63.738281 29.535156 L 62.949219 31.550781 L 62.015625 33.925781 L 61.726562 34.648438 L 63.164062 34.503906 L 66.96875 34.070312 L 68.332031 33.925781 L 66.609375 28.746094 L 65.605469 25.21875 Z M 90.152344 24.929688 L 89.578125 26.371094 L 88.503906 29.25 L 87.136719 32.703125 L 86.421875 34.503906 L 86.421875 34.648438 L 89.003906 34.359375 L 92.949219 33.925781 L 92.734375 33.136719 L 91.800781 30.472656 L 90.871094 27.449219 L 90.296875 25.363281 L 90.222656 24.929688 Z M 116.996094 25.9375 L 116.996094 26.726562 L 117.5 35.148438 L 117.714844 40.691406 L 117.859375 44.941406 L 119.726562 44.578125 L 122.882812 43.859375 L 124.890625 43.355469 L 126.972656 42.707031 L 128.410156 42.132812 L 129.917969 41.339844 L 130.347656 41.054688 L 131.710938 40.765625 L 132.285156 40.476562 L 132.214844 40.1875 L 131.640625 39.828125 L 131.066406 39.539062 L 130.347656 38.316406 L 129.988281 37.886719 L 129.847656 37.886719 L 129.699219 37.597656 L 128.480469 36.375 L 127.90625 35.871094 L 126.902344 34.863281 L 126.328125 34.359375 L 124.175781 32.34375 L 123.097656 31.261719 L 122.523438 30.761719 L 121.089844 29.320312 L 120.511719 28.816406 L 119.078125 27.519531 L 118.289062 26.875 L 117.214844 26.007812 Z M 109.101562 34.789062 L 107.738281 35.652344 L 106.160156 36.519531 L 104.796875 37.09375 L 104.148438 37.382812 L 104.722656 38.53125 L 105.511719 40.1875 L 106.375 41.773438 L 107.308594 43.425781 L 108.671875 45.730469 L 109.675781 47.171875 L 109.746094 46.957031 L 109.605469 41.84375 L 109.316406 35.941406 L 109.246094 34.789062 Z M 39.765625 69.84375 L 40.984375 69.917969 L 42.132812 70.203125 L 43.136719 70.707031 L 43.855469 71.285156 L 44.5 72.078125 L 44.933594 72.796875 L 45.433594 74.164062 L 45.722656 75.460938 L 45.863281 76.609375 L 45.9375 77.617188 L 45.9375 80.28125 L 45.722656 83.664062 L 45.507812 86.398438 L 45.433594 87.839844 L 45.148438 88.34375 L 44.5 88.917969 L 43.351562 89.496094 L 41.917969 90.070312 L 39.550781 90.789062 L 37.394531 91.367188 L 37.324219 91.292969 L 37.324219 90.144531 L 37.683594 85.105469 L 37.753906 83.59375 L 37.753906 80.640625 L 37.609375 78.984375 L 37.253906 77.472656 L 36.75 76.324219 L 36.105469 75.242188 L 35.601562 74.738281 L 34.957031 74.453125 L 34.308594 74.453125 L 33.59375 74.808594 L 33.089844 75.242188 L 32.515625 76.035156 L 31.796875 77.1875 L 30.863281 79.128906 L 30.074219 81.003906 L 29.285156 82.945312 L 28.136719 85.894531 L 27.132812 88.628906 L 26.125 91.507812 L 24.976562 95.109375 L 23.902344 98.925781 L 22.894531 102.957031 L 22.324219 105.617188 L 22.25 105.761719 L 24.332031 104.898438 L 26.488281 103.964844 L 31.082031 101.804688 L 33.089844 100.867188 L 35.527344 99.789062 L 37.539062 98.996094 L 39.191406 98.421875 L 40.769531 97.917969 L 42.851562 97.414062 L 43.566406 97.199219 L 44.933594 96.476562 L 47.300781 95.398438 L 48.664062 94.820312 L 50.386719 94.171875 L 52.539062 93.453125 L 54.835938 92.878906 L 57.566406 92.375 L 59.71875 92.085938 L 62.589844 91.292969 L 62.875 91.367188 L 62.949219 91.871094 L 64.3125 91.796875 L 64.957031 91.582031 L 66.898438 90.574219 L 68.476562 89.855469 L 69.695312 89.351562 L 71.492188 88.773438 L 73.5 88.273438 L 74.722656 88.054688 L 77.019531 87.839844 L 77.949219 87.839844 L 79.027344 87.550781 L 79.316406 87.621094 L 79.386719 88.054688 L 80.316406 88.199219 L 81.539062 88.488281 L 82.976562 88.992188 L 84.265625 89.566406 L 85.628906 90.285156 L 86.851562 91.078125 L 88.070312 91.941406 L 89.074219 92.734375 L 90.082031 93.597656 L 90.871094 94.246094 L 91.949219 95.253906 L 92.878906 96.117188 L 93.382812 96.621094 L 93.597656 96.765625 L 93.597656 96.910156 L 93.882812 97.050781 L 94.890625 98.058594 L 95.464844 98.5625 L 95.964844 99.066406 L 96.542969 99.574219 L 97.328125 100.21875 L 98.476562 101.15625 L 99.269531 101.804688 L 100.203125 102.667969 L 101.0625 103.601562 L 101.78125 104.683594 L 102.136719 105.617188 L 102.210938 105.90625 L 102.210938 106.914062 L 101.921875 107.703125 L 101.636719 108.136719 L 101.136719 108.714844 L 100.128906 109.433594 L 98.980469 110.082031 L 97.042969 111.015625 L 95.03125 111.953125 L 92.164062 113.175781 L 93.097656 114.113281 L 93.667969 114.617188 L 94.460938 115.335938 L 95.03125 115.839844 L 95.75 116.488281 L 96.542969 117.132812 L 97.617188 118.070312 L 98.621094 118.933594 L 99.410156 119.582031 L 100.558594 120.515625 L 101.351562 121.164062 L 103.359375 122.75 L 104.292969 123.46875 L 105.800781 124.621094 L 107.164062 125.628906 L 109.746094 127.5 L 111.398438 128.652344 L 114.484375 130.738281 L 117.570312 132.753906 L 117.929688 132.898438 L 117.929688 133.113281 L 117.140625 133.546875 L 115.703125 134.554688 L 113.769531 135.851562 L 111.972656 136.785156 L 110.894531 137.074219 L 110.324219 137.074219 L 109.390625 136.570312 L 108.167969 135.777344 L 106.730469 134.84375 L 104.148438 133.113281 L 102.5 131.964844 L 101.277344 131.097656 L 100.488281 130.523438 L 99.484375 129.804688 L 98.121094 128.796875 L 95.394531 126.707031 L 94.460938 125.988281 L 93.667969 125.339844 L 92.519531 124.40625 L 91.800781 123.828125 L 90.582031 122.820312 L 89.578125 121.957031 L 88.789062 121.308594 L 88.070312 120.664062 L 87.28125 120.011719 L 86.277344 119.078125 L 85.703125 118.574219 L 84.839844 117.78125 L 84.050781 117.0625 L 83.691406 116.703125 L 83.980469 116.414062 L 84.910156 115.769531 L 81.539062 116.777344 L 80.964844 116.917969 L 81.035156 120.300781 L 81.035156 128.433594 L 80.964844 131.316406 L 80.605469 131.890625 L 80.03125 132.320312 L 78.882812 132.898438 L 77.878906 133.328125 L 76.300781 133.832031 L 73.285156 134.699219 L 72.925781 134.769531 L 72.855469 134.625 L 72.855469 123.253906 L 72.710938 116.125 L 72.496094 110.152344 L 72.136719 103.460938 L 71.777344 98.203125 L 71.777344 97.84375 L 71.058594 98.058594 L 70.269531 98.277344 L 69.550781 98.277344 L 68.980469 97.988281 L 67.902344 97.414062 L 66.394531 96.835938 L 64.816406 96.40625 L 63.453125 96.117188 L 63.59375 96.765625 L 64.097656 99.644531 L 64.671875 102.523438 L 65.605469 106.480469 L 66.609375 110.007812 L 67.398438 112.527344 L 68.1875 114.832031 L 68.90625 116.777344 L 68.90625 117.207031 L 68.046875 118 L 66.753906 118.71875 L 64.957031 119.582031 L 63.308594 120.230469 L 62.160156 120.589844 L 61.011719 120.804688 L 60.722656 120.445312 L 59.71875 117.710938 L 58.425781 113.75 L 57.78125 111.519531 L 56.777344 107.488281 L 56.128906 104.46875 L 55.554688 101.300781 L 55.050781 97.773438 L 54.835938 95.972656 L 54.835938 95.613281 L 53.042969 95.828125 L 50.746094 96.191406 L 48.953125 96.621094 L 47.589844 97.050781 L 46.871094 97.339844 L 47.085938 97.484375 L 48.234375 98.058594 L 48.953125 98.78125 L 49.527344 99.859375 L 49.742188 100.796875 L 49.742188 102.164062 L 49.457031 103.601562 L 48.953125 105.042969 L 47.945312 106.984375 L 46.726562 109 L 45.9375 110.296875 L 44.644531 112.238281 L 43.855469 113.390625 L 42.921875 114.6875 L 42.132812 115.769531 L 41.128906 117.0625 L 40.339844 118.070312 L 39.476562 119.078125 L 38.6875 120.011719 L 37.824219 121.019531 L 36.824219 122.101562 L 36.175781 122.820312 L 35.601562 123.394531 L 35.097656 123.972656 L 32.730469 126.347656 L 32.15625 126.851562 L 31.582031 127.429688 L 31.007812 127.933594 L 30.074219 128.796875 L 29.285156 129.441406 L 28.496094 130.164062 L 27.488281 130.953125 L 26.269531 131.964844 L 25.121094 132.824219 L 23.757812 133.832031 L 22.464844 134.769531 L 19.882812 136.496094 L 18.375 137.433594 L 17.441406 138.007812 L 15.863281 138.945312 L 13.855469 139.953125 L 12.558594 140.457031 L 10.980469 140.886719 L 10.410156 140.960938 L 8.542969 140.960938 L 7.679688 140.742188 L 6.53125 140.167969 L 5.742188 139.589844 L 4.808594 138.730469 L 4.164062 137.9375 L 3.445312 136.859375 L 2.65625 135.347656 L 1.9375 133.472656 L 1.4375 131.816406 L 1.003906 129.945312 L 0.574219 127.5 L 0.144531 123.757812 L 0.0742188 122.75 L 0 122.535156 L 0 117.496094 L 0.429688 116.199219 L 1.074219 114.976562 L 2.082031 113.894531 L 2.800781 113.390625 L 3.875 112.816406 L 4.953125 112.457031 L 6.246094 112.167969 L 7.464844 112.023438 L 10.480469 112.023438 L 12.488281 112.238281 L 14.855469 112.671875 L 17.082031 113.246094 L 19.8125 114.183594 L 21.746094 115.046875 L 21.894531 115.335938 L 21.03125 115.769531 L 19.8125 116.628906 L 18.375 117.636719 L 16.9375 118.503906 L 15.863281 119.007812 L 15.144531 119.222656 L 14.285156 119.222656 L 13.492188 118.863281 L 11.410156 117.855469 L 9.402344 117.0625 L 7.824219 116.558594 L 7.894531 117.855469 L 8.253906 120.515625 L 8.828125 123.542969 L 9.332031 125.917969 L 9.90625 127.933594 L 10.695312 130.019531 L 11.699219 132.105469 L 12.632812 133.761719 L 13.707031 135.488281 L 14.425781 136.496094 L 14.929688 136.929688 L 15.359375 137 L 16.003906 136.640625 L 16.796875 135.992188 L 17.730469 135.203125 L 18.878906 134.339844 L 20.097656 133.328125 L 20.886719 132.683594 L 22.894531 130.953125 L 24.042969 129.875 L 24.761719 129.226562 L 25.984375 128.074219 L 27.417969 126.636719 L 27.921875 126.058594 L 28.566406 125.414062 L 28.636719 125.269531 L 28.785156 125.269531 L 28.925781 124.980469 L 30.074219 123.757812 L 30.71875 122.964844 L 31.367188 122.246094 L 32.011719 121.453125 L 32.945312 120.300781 L 33.734375 119.292969 L 34.597656 118.214844 L 35.386719 117.132812 L 36.320312 115.839844 L 37.179688 114.617188 L 38.113281 113.175781 L 38.972656 111.808594 L 39.691406 110.511719 L 40.484375 109 L 41.128906 107.199219 L 41.488281 105.835938 L 41.632812 104.753906 L 41.632812 103.890625 L 41.417969 102.882812 L 41.054688 102.164062 L 40.554688 101.730469 L 39.691406 101.371094 L 39.191406 101.300781 L 38.1875 101.300781 L 37.109375 101.441406 L 35.3125 101.945312 L 33.808594 102.523438 L 32.15625 103.242188 L 31.007812 103.816406 L 29.644531 104.46875 L 28.28125 105.1875 L 26.558594 105.976562 L 24.261719 106.914062 L 21.316406 107.992188 L 19.882812 108.496094 L 16.367188 109.722656 L 14.855469 110.152344 L 14.070312 110.226562 L 14.070312 109.648438 L 14.640625 106.984375 L 15.574219 103.242188 L 16.507812 100.003906 L 17.152344 97.917969 L 18.015625 95.324219 L 18.949219 92.589844 L 20.242188 89.0625 L 21.390625 85.96875 L 22.179688 83.953125 L 23.113281 81.792969 L 23.902344 80.210938 L 24.976562 78.480469 L 25.695312 77.472656 L 26.628906 76.394531 L 27.132812 75.816406 L 27.273438 75.816406 L 27.347656 75.601562 L 28.925781 74.308594 L 30.003906 73.585938 L 31.082031 72.9375 L 32.875 71.929688 L 34.882812 70.996094 L 36.320312 70.492188 L 37.539062 70.132812 L 38.832031 69.917969 Z M 68.832031 91.582031 L 68.261719 91.726562 L 68.261719 91.796875 L 70.699219 92.011719 L 71.277344 92.085938 L 71.277344 91.726562 L 70.628906 91.582031 Z M 80.03125 95.757812 L 80.03125 96.621094 L 80.464844 103.890625 L 80.605469 106.699219 L 80.894531 114.757812 L 81.464844 114.6875 L 85.058594 113.894531 L 87.207031 113.390625 L 89.148438 112.816406 L 90.4375 112.386719 L 92.089844 111.664062 L 93.167969 111.015625 L 93.667969 110.800781 L 94.816406 110.582031 L 95.246094 110.367188 L 95.320312 110.152344 L 95.03125 109.863281 L 94.097656 109.359375 L 93.382812 108.136719 L 90.4375 105.1875 L 90.296875 105.1875 L 90.152344 104.898438 L 89.578125 104.394531 L 88.355469 103.242188 L 87.640625 102.59375 L 86.421875 101.371094 L 85.84375 100.867188 L 84.625 99.644531 L 84.050781 99.140625 L 82.976562 98.132812 L 82.398438 97.628906 L 81.683594 96.980469 L 80.679688 96.191406 Z M 80.03125 95.757812 "/>
<path style=" stroke:none;fill-rule:nonzero;fill:rgb(99.607843%,99.607843%,99.607843%);fill-opacity:1;" d="M 220.425781 0.0273438 L 222.507812 0.0273438 L 223.945312 0.457031 L 224.734375 0.886719 L 225.453125 1.464844 L 226.097656 2.257812 L 226.671875 3.335938 L 227.03125 4.414062 L 227.316406 5.710938 L 227.535156 7.941406 L 227.535156 10.175781 L 227.316406 13.628906 L 227.101562 16.148438 L 227.03125 17.949219 L 226.746094 18.523438 L 226.242188 18.953125 L 225.523438 19.386719 L 224.234375 19.960938 L 221.863281 20.753906 L 219.277344 21.472656 L 218.921875 21.472656 L 218.921875 20.179688 L 219.277344 14.996094 L 219.351562 13.628906 L 219.351562 10.894531 L 219.207031 9.308594 L 218.921875 7.871094 L 218.347656 6.503906 L 217.699219 5.421875 L 217.199219 4.917969 L 216.625 4.632812 L 216.195312 4.558594 L 215.617188 4.703125 L 214.832031 5.277344 L 214.328125 5.855469 L 213.609375 6.933594 L 212.820312 8.445312 L 211.886719 10.605469 L 210.808594 13.269531 L 209.734375 16.003906 L 208.726562 18.738281 L 207.652344 21.835938 L 206.71875 24.785156 L 205.785156 27.953125 L 204.851562 31.480469 L 203.917969 35.652344 L 203.917969 35.871094 L 206.074219 35.007812 L 208.011719 34.144531 L 214.46875 31.121094 L 217.054688 29.96875 L 219.640625 28.960938 L 222.292969 28.097656 L 224.375 27.59375 L 225.882812 27.378906 L 227.316406 27.378906 L 228.539062 27.59375 L 229.6875 28.167969 L 230.40625 28.816406 L 230.835938 29.464844 L 231.125 30.109375 L 231.339844 31.121094 L 231.339844 32.199219 L 231.050781 33.710938 L 230.546875 35.148438 L 229.761719 36.734375 L 228.753906 38.460938 L 227.820312 39.972656 L 227.316406 40.765625 L 225.597656 43.355469 L 224.734375 44.507812 L 224.019531 45.515625 L 223.300781 46.453125 L 221.722656 48.464844 L 220.859375 49.472656 L 220.210938 50.265625 L 219.496094 51.058594 L 218.992188 51.632812 L 218.347656 52.351562 L 217.484375 53.289062 L 216.910156 53.863281 L 216.410156 54.441406 L 215.261719 55.59375 L 215.117188 55.59375 L 215.117188 55.734375 L 214.757812 56.097656 L 213.898438 56.886719 L 212.675781 58.039062 L 211.957031 58.6875 L 209.949219 60.414062 L 209.160156 61.0625 L 208.011719 61.996094 L 206.574219 63.078125 L 205.355469 64.015625 L 203.992188 64.949219 L 203.273438 65.453125 L 202.414062 66.03125 L 200.976562 66.964844 L 199.253906 68.042969 L 198.035156 68.765625 L 196.457031 69.628906 L 194.875 70.347656 L 193.367188 70.851562 L 192.363281 71.070312 L 191.863281 71.140625 L 190.28125 71.140625 L 189.132812 70.851562 L 187.984375 70.277344 L 187.269531 69.699219 L 186.40625 68.910156 L 185.542969 67.828125 L 184.972656 66.894531 L 184.539062 66.171875 L 184.039062 65.023438 L 183.535156 63.726562 L 183.105469 62.285156 L 182.457031 62.648438 L 181.164062 63.4375 L 179.445312 64.375 L 178.367188 64.878906 L 177.21875 65.308594 L 176.355469 65.527344 L 175.710938 65.527344 L 175.28125 65.023438 L 173.269531 61.996094 L 171.761719 59.695312 L 170.6875 58.039062 L 169.894531 56.816406 L 168.894531 55.230469 L 167.816406 53.503906 L 166.667969 51.632812 L 165.449219 49.617188 L 164.585938 48.179688 L 163.652344 46.59375 L 162.574219 44.722656 L 161.855469 43.425781 L 160.855469 41.558594 L 159.992188 39.902344 L 159.128906 38.316406 L 158.195312 36.660156 L 157.046875 34.71875 L 156.476562 33.566406 L 156.113281 32.992188 L 156.113281 32.847656 L 155.46875 32.847656 L 154.894531 33.136719 L 154.394531 33.855469 L 153.890625 35.007812 L 153.246094 36.878906 L 152.957031 37.308594 L 152.382812 37.8125 L 152.023438 38.03125 L 152.097656 39.613281 L 152.382812 44.363281 L 152.527344 46.667969 L 152.527344 47.675781 L 152.238281 48.179688 L 151.667969 48.683594 L 150.445312 49.332031 L 149.371094 49.761719 L 147 50.554688 L 144.628906 51.203125 L 144.414062 51.128906 L 144.199219 48.035156 L 143.914062 43.210938 L 143.339844 35.296875 L 142.765625 28.527344 L 142.191406 22.410156 L 141.617188 16.941406 L 141.402344 14.996094 L 141.402344 14.492188 L 141.6875 14.0625 L 142.332031 13.484375 L 143.84375 12.691406 L 145.707031 11.972656 L 147.859375 11.324219 L 149.371094 10.964844 L 149.511719 11.035156 L 149.726562 12.765625 L 150.445312 19.675781 L 151.019531 25.867188 L 151.449219 31.046875 L 151.449219 31.914062 L 152.597656 31.191406 L 153.964844 30.398438 L 155.46875 29.535156 L 156.546875 28.960938 L 157.910156 28.3125 L 159.273438 27.808594 L 160.421875 27.519531 L 162.289062 27.519531 L 162.933594 27.808594 L 163.652344 28.3125 L 164.226562 28.960938 L 164.730469 29.753906 L 165.589844 31.40625 L 166.449219 33.277344 L 167.3125 34.863281 L 168.390625 36.804688 L 170.398438 40.332031 L 171.332031 41.917969 L 172.191406 43.425781 L 173.703125 45.949219 L 174.636719 47.53125 L 175.566406 49.042969 L 177.71875 52.496094 L 178.867188 54.296875 L 179.945312 55.953125 L 181.238281 57.894531 L 182.457031 59.765625 L 182.3125 58.613281 L 182.027344 56.742188 L 181.667969 53.359375 L 181.597656 52.496094 L 181.527344 50.121094 L 180.519531 50.121094 L 179.082031 49.761719 L 177.933594 49.257812 L 176.859375 48.613281 L 175.925781 47.890625 L 175.351562 47.386719 L 174.851562 46.957031 L 174.851562 46.808594 L 174.707031 46.808594 L 174.417969 46.304688 L 173.773438 45.515625 L 173.054688 44.4375 L 172.339844 43.210938 L 171.476562 41.558594 L 170.472656 39.035156 L 169.96875 37.527344 L 169.394531 35.4375 L 168.894531 32.847656 L 168.605469 30.398438 L 168.605469 28.746094 L 168.894531 28.3125 L 169.609375 27.664062 L 170.828125 27.015625 L 172.839844 26.296875 L 176.429688 25.289062 L 176.714844 25.289062 L 176.859375 27.953125 L 177.074219 29.894531 L 177.503906 32.054688 L 178.082031 34 L 178.726562 35.726562 L 179.585938 37.597656 L 180.59375 39.324219 L 181.742188 41.054688 L 182.386719 41.917969 L 183.320312 43.070312 L 183.964844 43.789062 L 184.609375 43.425781 L 185.617188 42.921875 L 186.121094 42.707031 L 186.261719 41.484375 L 186.40625 38.820312 L 186.40625 36.085938 L 186.261719 34.070312 L 185.972656 31.839844 L 185.402344 28.960938 L 185.113281 27.878906 L 185.113281 27.449219 L 185.472656 26.945312 L 186.191406 26.441406 L 187.339844 25.792969 L 188.917969 25.074219 L 190.714844 24.425781 L 192.21875 23.992188 L 192.578125 23.921875 L 193.152344 23.921875 L 193.296875 24.136719 L 193.726562 26.007812 L 194.160156 28.242188 L 194.445312 30.398438 L 194.589844 31.839844 L 194.660156 33.421875 L 194.660156 34.789062 L 194.589844 36.375 L 194.300781 38.75 L 193.941406 40.621094 L 193.441406 42.347656 L 194.230469 42.417969 L 196.8125 42.921875 L 198.679688 43.425781 L 201.265625 44.292969 L 203.347656 45.226562 L 203.488281 45.515625 L 202.84375 45.800781 L 202.050781 46.304688 L 200.976562 47.097656 L 199.46875 48.109375 L 198.464844 48.683594 L 197.386719 49.1875 L 196.671875 49.402344 L 195.953125 49.402344 L 195.234375 49.113281 L 193.367188 48.179688 L 191.429688 47.386719 L 190.210938 46.957031 L 189.78125 47.027344 L 189.492188 47.242188 L 189.492188 48.179688 L 189.78125 50.339844 L 190.425781 53.792969 L 190.855469 55.882812 L 191.359375 57.679688 L 191.863281 59.117188 L 192.433594 60.488281 L 193.296875 62.285156 L 194.230469 63.941406 L 195.308594 65.667969 L 196.023438 66.675781 L 196.457031 67.039062 L 196.671875 67.183594 L 197.027344 67.109375 L 197.746094 66.675781 L 198.535156 66.03125 L 199.398438 65.308594 L 200.617188 64.375 L 201.835938 63.367188 L 202.769531 62.574219 L 203.199219 62.214844 L 203.347656 62.214844 L 203.347656 62.070312 L 204.132812 61.421875 L 205.140625 60.488281 L 205.714844 59.984375 L 206.792969 58.976562 L 207.363281 58.398438 L 207.507812 58.398438 L 207.578125 58.183594 L 207.941406 57.894531 L 208.371094 57.390625 L 208.511719 57.390625 L 208.585938 57.175781 L 208.726562 57.175781 L 208.871094 56.886719 L 209.949219 55.808594 L 210.453125 55.230469 L 211.238281 54.371094 L 211.886719 53.648438 L 212.75 52.640625 L 213.394531 51.847656 L 214.398438 50.625 L 214.972656 49.90625 L 215.761719 48.898438 L 217.484375 46.59375 L 218.347656 45.371094 L 219.78125 43.210938 L 220.574219 41.917969 L 221.433594 40.40625 L 222.222656 38.75 L 222.652344 37.527344 L 223.011719 36.300781 L 223.226562 34.789062 L 223.15625 33.710938 L 222.941406 32.917969 L 222.507812 32.199219 L 221.863281 31.765625 L 221.359375 31.550781 L 220.929688 31.480469 L 219.566406 31.480469 L 218.347656 31.695312 L 216.625 32.199219 L 215.1875 32.773438 L 213.753906 33.421875 L 211.671875 34.429688 L 209.519531 35.511719 L 207.4375 36.445312 L 204.636719 37.527344 L 202.484375 38.316406 L 198.105469 39.828125 L 196.457031 40.332031 L 195.738281 40.40625 L 195.664062 40.332031 L 195.664062 39.757812 L 196.308594 36.734375 L 196.957031 34.144531 L 198.035156 30.328125 L 199.324219 26.222656 L 200.402344 23.128906 L 201.050781 21.332031 L 201.980469 18.8125 L 202.769531 16.652344 L 203.992188 13.558594 L 204.636719 12.117188 L 205.210938 10.964844 L 205.929688 9.597656 L 206.644531 8.519531 L 207.507812 7.367188 L 208.371094 6.359375 L 209.230469 5.496094 L 210.019531 4.847656 L 211.3125 3.914062 L 212.75 3.046875 L 214.039062 2.328125 L 215.1875 1.753906 L 216.625 1.101562 L 218.5625 0.457031 Z M 136.449219 91.65625 L 136.953125 91.726562 L 137.023438 91.941406 L 136.664062 92.375 L 135.371094 93.3125 L 133.863281 94.246094 L 132.5 94.890625 L 131.28125 95.324219 L 129.773438 95.683594 L 113.910156 97.628906 L 113.40625 97.628906 L 113.550781 98.421875 L 114.269531 103.3125 L 114.699219 105.835938 L 114.699219 106.195312 L 115.992188 105.691406 L 119.867188 104.320312 L 122.238281 103.460938 L 124.605469 102.667969 L 125.105469 102.738281 L 125.324219 102.957031 L 125.105469 103.3125 L 124.675781 103.816406 L 123.742188 104.394531 L 121.304688 105.617188 L 119.363281 106.410156 L 117.285156 107.128906 L 115.132812 107.921875 L 115.203125 108.640625 L 115.917969 112.023438 L 116.351562 113.75 L 116.851562 115.121094 L 117.5 116.34375 L 117.929688 116.917969 L 117.859375 117.566406 L 117.714844 117.925781 L 118.363281 117.566406 L 119.796875 116.628906 L 122.957031 114.617188 L 124.460938 113.679688 L 126.402344 112.671875 L 127.621094 112.238281 L 128.480469 112.097656 L 129.484375 112.097656 L 129.773438 112.238281 L 129.699219 112.527344 L 129.054688 113.03125 L 127.835938 113.824219 L 125.753906 115.191406 L 124.535156 115.984375 L 122.738281 117.132812 L 121.160156 118.070312 L 119.867188 118.789062 L 118.363281 119.582031 L 116.351562 120.515625 L 114.917969 121.09375 L 113.40625 121.527344 L 112.835938 121.597656 L 111.613281 121.597656 L 110.824219 121.382812 L 110.035156 120.949219 L 109.175781 120.085938 L 108.527344 118.933594 L 108.027344 117.496094 L 107.59375 115.550781 L 107.019531 112.238281 L 106.445312 109.144531 L 105.730469 104.753906 L 105.011719 99.355469 L 104.9375 98.421875 L 104.003906 98.5625 L 102.355469 98.996094 L 100.128906 99.859375 L 98.980469 100.21875 L 98.621094 100.21875 L 98.550781 99.929688 L 99.125 99.285156 L 100.203125 98.492188 L 101.277344 97.84375 L 102.285156 97.269531 L 104.078125 96.476562 L 105.65625 95.902344 L 108.242188 95.109375 L 110.609375 94.535156 L 113.984375 93.886719 L 117.5 93.382812 L 121.519531 92.949219 L 129.558594 92.300781 L 133.578125 91.941406 Z M 136.449219 91.65625 "/>
</g>
</svg>
