<?xml version="1.0" encoding="UTF-8"?>
<svg version="1.1" viewBox="0 0 2048 2048" width="512" height="512" xmlns="http://www.w3.org/2000/svg">
<path transform="translate(993)" d="m0 0h59l38 5 26 5 31 8 37 13 34 16 22 12 22 14 18 13 18 14 15 14 8 7 14 14 7 8 10 11 10 13 14 19 10 15 15 26 8 16 10 21 11 30 8 27 6 26 5 34 2 26 1 25v74h386l16 3 12 5 14 9 10 9 10 13 7 15 4 16 1 14v1161l-2 36-4 25-5 20-10 30-9 20-10 19-11 17-10 14-9 11-18 20-14 13-14 11-17 12-25 15-23 11-28 10-32 8-29 5h-1235l-39-7-27-7-27-10-16-8-15-8-19-12-17-13-11-9-16-15-12-13-11-14-11-15-13-21-9-17-11-27-6-19-6-25-3-20-2-25v-1181l3-17 5-13 6-10 7-9 9-9 14-9 10-5 12-3 8-1 382-1 1-90 2-30 5-34 5-23 8-29 12-33 7-16 8-16 9-17 15-24 12-17 13-17 12-14 16-17 6-7 11-9 8-8 14-11 13-10 18-13 27-16 12-7 23-11 26-10 20-7 29-8 31-6 28-4zm6 105-26 3-25 5-19 5-21 7-21 9-22 11-26 16-18 14-11 9-7 7-8 7-8 8-7 8-7 7-8 11-14 19-13 22-8 15-9 20-9 25-7 27-5 29-2 25v92l100 1h60l489-1v-86l-2-28-4-26-7-28-8-24-9-21-10-20-12-20-10-14-9-12-12-14-12-13-8-8-8-7-13-11-11-8-10-7-13-8-17-10-30-14-33-11-25-6-28-4-13-1zm-758 505v1033h1565l1-5v-1028h-355v113l7 6 13 10 9 10 10 15 8 18 3 11 3 22-1 12-2 14-6 18-10 19-12 14-9 8-10 7-16 8-16 5-9 2-10 1h-17l-17-3-15-5-18-10-11-9-12-12-9-14-8-16-5-19-1-8v-25l5-21 7-16 7-10 8-10 7-8 14-10 8-6v-111h-649v113l14 10 10 9 11 13 8 14 6 15 4 20 1 17-2 18-6 18-8 16-7 10-9 10-10 9-17 10-15 6-16 4-11 1h-16l-14-2-21-7-14-8-14-11-8-8-9-12-9-17-6-19-2-15v-14l4-24 10-23 6-9 11-13 5-5 18-13 1-3v-110z" fill="#FEFEFE"/>
</svg>
