<?xml version="1.0" encoding="UTF-8"?>
<svg version="1.1" viewBox="0 0 1737 842" width="1737" height="842" xmlns="http://www.w3.org/2000/svg">
<path transform="translate(418,47)" d="m0 0 3 1 5 35 7 33 8 30 11 32 7 17v2h16l3-10 13-35 14-40 14-43 5-6 16-8 24-8 3 1 5 35 7 33 5 19v4l21-12 16-8 19-7 16-4 7-1 17-1 7-1 1 3 9 1 15 5 17 9 16 12 14 12 16 15 8 8 11 9 13 11 9 9 5 8 1 3v11l-4 6-9 7-16 8-22 10-5 2h-3l7 8 11 10 11 9 15 13 14 11 15 12 19 14 17 12 39 26 4 4-28 18-9 4-6 1-7-3-33-22-20-14-19-14-28-22-26-22-10-9-8-7-7-6v-2l6-4-11 3-12 3v85l-5 6-16 7-24 7h-2v-19l-4-2-9-11-13-16-13-18-10-15-13-21-12-22-13-26-5-11-43 2-13 1-3 10-9 21 1 4 12 20 11 16 14 19 13 16 8 10-5 5-20 12-11 5-3 1h-8l-13-15-13-17-11-15-10-15-18 4-8 2 1-5 10-22-1-5-15-29-4-8-9 1-14 3 1-4 12-9 5-2-3-6-43 2-13 1-3 10-18 41-8 16-9 6-18 6-17 4 1-5 17-38 14-34-15 2-35 7-14 3 1-4 12-9 12-6 20-6 23-5h4l3-9 15-40 15-42 18-54 6-5 14-7zm205 81-8 4-13 8-12 5-3 1 2 9 11 31 5 11h41l-4-55-1-11-1-3zm-236 19-4 9-18 46v2l14-1 25-3-1-5-12-37-3-11zm146 0-4 9-18 46v2l14-1 25-3-1-5-12-37-3-11zm158 5 4 76 1 29 1 8 25-5 23-6 16-6 11-6 9-2 1-4-8-5-5-8-14-14-8-7-9-9-8-7-15-15-8-7-13-11zm-46 52-11 7-15 7-3 1 1 5 14 27 12 20 5 8h1v-22l-2-44-1-9z" fill="#F7831E"/>
<path transform="translate(1474,413)" d="m0 0h7l12 34 5 16 50 25 23 13 18 10 24 15 30 20 14 10 19 14 17 12 11 9 10 9 10 10 9 14 4 12v13l-4 12-8 11-12 10-17 10-21 9-25 9-26 8-37 9-63 13-43 7-49 6-22 1-13-2-9-4-7-6-2-4v-10l6-10 6-7-15-2-10-4-9-8-6-10-2-3-11 8-16 8-13 5-17 4-7 1h-19l-13-4-8-6-7-9-4-10-2-9v-24l4-16 8-16 11-12 2-2-12 1-31 6-36 9-42 13h-3l2 12 3 31 2 33v71l-1 14-5 5-12 6-23 7-7 2v-74l-2-39-5-51-41 14-19 6-2-2 7-8 10-6 36-12 8-2-2-9-7-39-5-25 5-6 16-8 21-7h6l2 9 10-3 27-7 30-5 30-3 54-3-2 4-10 8-16 8-13 4-53 4-34 4-20 3 7 39 2 14 9-2 36-12 40-12 36-9 15-3 12-6 18-6 10-2h10l13 3 11 6 10 10 8 14 3 9 7-6 11-9 5-3-14 1 2-4 7-6 14-7 18-6 10-2h10l13 3 11 6 10 10 7 11-6-38-8-38-9-33v-3l-6-2-38-16-30-11-20-7-1-2 18-13 12-7 9-3 7 1 31 11 1-4 7-6 21-10zm38 104 1 9 7 41 4 34 2 24 6-2 15-7 21-7-2 5-12 7-26 12-1 1v44l-5 6-11 5-19 6-11 3-1-37-4 1-5 12-7 9-11 8-24 12-3 5v8l4 5 9 4 10 2 25 1 30-2 38-5 47-9 40-9 28-6 14-5 11-7 6-9 2-7-1-13-5-13-8-11-9-10-14-12-18-13-18-14-17-12-23-16-16-10-21-13-25-14zm-222 79-7 14-3 11-1 7v19l3 15 6 12 8 7 9 3 8 1 3-9 2-14v-22l-3-14-7-14-11-12-5-4zm115 0-7 14-3 11-1 7v19l3 15 6 12 8 7 9 3h8l3-8 2-14v-22l-3-14-7-14-11-12-5-4z" fill="#F7831E"/>
<path transform="translate(227,411)" d="m0 0h19l9 4 8 7 5 10 3 12 1 9v22l-3 41-5 6-10 5-18 6-11 3h-3v-17l2-31v-13l-2-16-5-13-7-8-6-1-7 4-6 8-8 16-14 34-11 30-11 34-9 33-6 26 32-14 36-17 25-10 18-6 16-4 25-12 25-9 24-6 22-3 14-4h3l1 2h10l16-8 14-6 20-6 12-2 17-1 7-1 1 3 9 1 15 5 17 9 16 12 14 12 16 15 8 8 11 9 13 11 9 9 5 8 1 3v11l-4 6-9 7-16 8-22 10-5 2h-3l7 8 11 10 11 9 15 13 14 11 15 12 19 14 17 12 39 26 4 4-28 18-9 4-6 1-7-3-33-22-20-14-19-14-28-22-26-22-10-9-8-7-7-6v-2l6-4-11 3-12 3v85l-5 6-16 7-24 7h-2l-1-90-2-59-4-66-1-2-6 2h-7l-15-7-19-5 1 11 7 35 8 31 12 36 3 8-1 4-8 6-19 9-17 5-4-4-12-35-10-37-7-35-4-27-1-9h-9l-19 3-17 5-2 1 8 5 6 7 2 6v14l-5 15-11 20-18 27-14 19-9 11-11 13-11 12-12 13-9 9-8 7-13 12-11 9-18 14-23 16-25 15-16 8-12 4-6 1h-10l-11-4-8-6-7-7-8-13-6-15-6-24-3-20-2-23v-25l3-10 6-9 8-7 12-5 10-2h29l18 3 22 6 15 6 6 3-4 3-24 16-9 4-7 1-22-10-14-5h-3l3 25 6 30 7 21 8 17 11 18 5 7 6 1 9-7 14-11 13-11 10-9 8-7 26-26 7-8 11-13 11-14 12-16 14-21 9-16 7-16 2-9v-15l-5-8-5-2h-15l-17 5-20 9-22 11-28 11-37 13-6 2h-7l2-12 9-36 11-35 10-29 15-40 9-20 9-15 8-10 11-11 15-10 21-11 18-6zm178 127-2 2 19 1v-3zm68 24 4 76 1 29 1 8 25-5 23-6 16-6 11-6 9-2 1-4-8-5-5-8-14-14-8-7-9-9-8-7-15-15-8-7-13-11z" fill="#F7831E"/>
<path transform="translate(1298,1)" d="m0 0h19l9 4 8 7 5 10 3 12 1 9v22l-3 41-5 6-10 5-18 6-11 3h-3v-17l2-31v-13l-2-16-5-13-7-8-6-1-7 4-6 8-8 16-14 34-11 30-11 34-9 33-6 26 32-14 36-17 25-10 18-6 13-3 13-1 10 2 6 3 7 8 2 6v14l-5 15-11 20-18 27-14 19-9 11-11 13-11 12-12 13-9 9-8 7-13 12-11 9-18 14-23 16-25 15-16 8-12 4-6 1h-10l-11-4-8-6-7-7-8-13-6-15-1-7-19 11-13 6-9 2-4-2-25-38-14-22-15-24-16-27-13-23-12-23-14-24-5-9-7 1-5 8-5 15-7 6 3 51v6l-4 5-14 7-23 7-7 1-6-90-6-68-5-49v-10l7-6 14-6 23-7h3l3 24 7 74 2 24 33-18 16-6 4-1h10l8 4 7 9 10 21 13 23 15 27 15 25 14 23 14 22 21 32-2-18-2-23v-12l-11-1-12-5-13-10-11-13-11-19-9-23-6-23-3-22v-10l4-5 12-6 26-8 6-1 1 20 4 22 6 18 8 16 7 12 12 16 4 4 5-2 9-3 1-23v-17l-2-21-5-25v-5l7-6 14-7 18-6 8-1 5 21 3 22v33l-3 20-4 13 11 1 24 6 18 7 6 3-4 3-24 16-9 4-7 1-22-10-11-4-5 1v9l4 24 5 23 6 18 8 17 11 18 5 7 6 1 9-7 14-11 13-11 10-9 8-7 26-26 7-8 11-13 11-14 12-16 14-21 9-16 7-16 2-9v-15l-5-8-5-2h-15l-17 5-20 9-22 11-28 11-37 13-6 2h-7l2-12 9-36 11-35 10-29 15-40 9-20 9-15 8-10 11-11 15-10 21-11 18-6z" fill="#F7831E"/>
<path transform="translate(991,537)" d="m0 0h3l1 2h29l21 2 19 5 14 7v2l-16 10-10 7-12 5h-7l-15-7-19-5 1 11 7 35 8 31 12 36 3 8-1 4-8 6-19 9-17 5-4-4-12-35-10-37-7-35-4-27-1-9h-9l-19 3-17 5-21 9-3 1h-7l1-4 9-6 12-6-15 1-56 7h-10l8 50 5-1 43-15 8-3h5l1 3h-2l-1 3-23 12-33 12 1 10 6 26 4 10 5 7-1 6 18-11 17-11 12-7 15-5h8v3l-27 18-21 13-27 14-15 6-10 2-10-1-9-6-6-10-4-14-10-56-6-42v-8l-17 4-15 6-5 1v-3l8-7 16-9 18-7 21-6 31-6 31-4 82-7 18-1-2 4-3 3 22-4 12-2z" fill="#F7831E"/>
<path transform="translate(802,539)" d="m0 0h8l-2 4-13 9-12 6-14 4-88 11h-10l8 50 5-1 43-15 8-3h5l1 3h-2l-1 3-23 12-33 12 1 10 6 26 4 10 5 7-1 6 18-11 17-11 12-7 15-5h8v3l-27 18-21 13-27 14-15 6-10 2-10-1-9-6-6-10-4-14-10-56-6-42v-8l-17 4-15 6-5 1v-3l8-7 16-9 18-7 21-6 31-6 31-4 82-7z" fill="#F7831E"/>
</svg>
