<?xml version="1.0" encoding="UTF-8"?>
<svg xmlns="http://www.w3.org/2000/svg" xmlns:xlink="http://www.w3.org/1999/xlink" width="1148px" height="557px" viewBox="0 0 585 284" version="1.1">
<g id="surface1">
<path style=" stroke:none;fill-rule:nonzero;fill:rgb(99.607843%,99.607843%,99.607843%);fill-opacity:1;" d="M 498.019531 139.425781 L 498.59375 139.570312 L 499.164062 140.714844 L 500.59375 144.574219 L 502.878906 151.292969 L 504.589844 156.722656 L 504.589844 157.011719 L 506.019531 157.4375 L 511.304688 160.011719 L 514.589844 161.585938 L 518.875 163.730469 L 521.585938 165.15625 L 525.585938 167.300781 L 527.871094 168.589844 L 530.441406 170.019531 L 533.871094 172.019531 L 537.011719 173.878906 L 539.582031 175.449219 L 542.296875 177.167969 L 545.867188 179.453125 L 550.578125 182.597656 L 555.722656 186.171875 L 558.292969 188.03125 L 561.007812 190.03125 L 566.148438 193.75 L 568.574219 195.464844 L 570.859375 197.179688 L 572.859375 198.75 L 574.429688 200.039062 L 576.003906 201.46875 L 577.144531 202.46875 L 579.714844 205.042969 L 581.285156 207.042969 L 582.429688 208.617188 L 583.570312 210.617188 L 584.714844 213.332031 L 584.714844 213.90625 L 585 213.90625 L 585 220.480469 L 584.714844 220.480469 L 584.429688 221.765625 L 583.285156 224.054688 L 582 225.914062 L 581.144531 226.914062 L 580.574219 227.484375 L 580.285156 227.484375 L 580.144531 227.914062 L 578.574219 229.199219 L 576.859375 230.488281 L 574.859375 231.773438 L 571.859375 233.488281 L 569.148438 234.777344 L 565.433594 236.347656 L 562.148438 237.636719 L 556.722656 239.636719 L 551.292969 241.351562 L 543.4375 243.496094 L 537.441406 244.925781 L 528.871094 246.785156 L 519.300781 248.785156 L 510.445312 250.5 L 503.449219 251.644531 L 497.308594 252.5 L 482.023438 254.359375 L 478.597656 254.644531 L 473.882812 254.644531 L 471.027344 254.21875 L 468.457031 253.359375 L 466.886719 252.359375 L 465.457031 251.074219 L 464.601562 249.929688 L 464.171875 248.640625 L 464.171875 247.070312 L 464.742188 245.210938 L 465.601562 243.640625 L 466.886719 241.921875 L 468.457031 240.207031 L 467.3125 240.066406 L 464.601562 239.777344 L 462.457031 239.207031 L 460.171875 238.207031 L 458.460938 236.921875 L 457.175781 235.632812 L 455.746094 233.488281 L 454.890625 231.628906 L 454.746094 230.773438 L 453.890625 231.34375 L 452.03125 232.773438 L 449.460938 234.347656 L 445.890625 236.207031 L 442.605469 237.492188 L 439.464844 238.492188 L 435.75 239.351562 L 431.609375 239.921875 L 426.753906 239.921875 L 424.183594 239.492188 L 421.753906 238.492188 L 419.753906 237.207031 L 418.039062 235.492188 L 416.613281 233.347656 L 415.613281 231.058594 L 414.757812 227.769531 L 414.46875 225.484375 L 414.46875 220.765625 L 414.898438 217.480469 L 415.753906 214.046875 L 417.039062 211.046875 L 418.328125 208.757812 L 420.039062 206.472656 L 421.753906 204.613281 L 423.183594 203.328125 L 420.613281 203.613281 L 414.613281 204.613281 L 409.1875 205.757812 L 403.757812 207.042969 L 397.761719 208.617188 L 390.90625 210.617188 L 383.621094 212.902344 L 381.90625 213.476562 L 382.90625 222.769531 L 383.476562 229.914062 L 383.90625 237.347656 L 384.191406 245.496094 L 384.191406 256.789062 L 383.90625 264.507812 L 383.761719 267.082031 L 383.050781 268.511719 L 381.476562 269.65625 L 378.765625 270.941406 L 374.050781 272.515625 L 368.339844 274.085938 L 367.480469 274.375 L 367.625 273.800781 L 367.910156 263.652344 L 367.910156 252.789062 L 367.765625 247.210938 L 367.339844 238.921875 L 366.765625 231.488281 L 365.769531 222.054688 L 365.480469 219.910156 L 365.480469 219.050781 L 359.199219 221.195312 L 346.34375 225.484375 L 345.34375 225.769531 L 344.628906 225.769531 L 345.628906 228.773438 L 346.773438 231.773438 L 346.773438 232.773438 L 345.628906 233.917969 L 343.34375 235.347656 L 340.203125 236.921875 L 336.488281 238.492188 L 333.347656 239.492188 L 331.0625 239.921875 L 330.347656 238.777344 L 328.777344 234.488281 L 326.921875 229.058594 L 325.0625 222.910156 L 323.777344 218.050781 L 322.777344 214.046875 L 321.492188 208.1875 L 320.351562 201.898438 L 319.492188 196.179688 L 318.78125 190.460938 L 318.78125 189.890625 L 315.207031 190.316406 L 311.351562 190.890625 L 308.066406 191.605469 L 304.640625 192.605469 L 301.640625 193.890625 L 298.355469 195.320312 L 296.070312 196.179688 L 294.214844 196.609375 L 293.070312 196.464844 L 292.929688 196.320312 L 292.929688 195.605469 L 293.640625 194.75 L 295.640625 193.460938 L 297.070312 192.605469 L 300.5 191.03125 L 300.925781 190.746094 L 293.355469 191.605469 L 274.648438 193.890625 L 273.789062 194.035156 L 274.933594 202.039062 L 276.074219 209.042969 L 276.359375 210.761719 L 280.503906 209.332031 L 286.5 207.1875 L 292.929688 204.898438 L 295.5 204.042969 L 296.640625 203.898438 L 297.355469 204.328125 L 297.214844 204.898438 L 295.929688 206.328125 L 294.355469 207.328125 L 291.359375 208.757812 L 289.070312 209.902344 L 285.074219 211.472656 L 277.789062 214.046875 L 277.074219 214.332031 L 277.648438 217.480469 L 278.933594 223.484375 L 279.789062 226.628906 L 280.644531 228.773438 L 281.644531 230.773438 L 282.644531 232.203125 L 282.644531 233.203125 L 282.359375 234.203125 L 285.074219 232.488281 L 287.5 230.917969 L 290.644531 228.914062 L 293.355469 227.199219 L 296.214844 225.484375 L 299.210938 223.910156 L 301.496094 223.054688 L 303.640625 222.625 L 305.78125 222.625 L 306.355469 222.910156 L 306.066406 223.484375 L 304.640625 224.625 L 301.925781 226.339844 L 299.785156 227.769531 L 294.070312 231.488281 L 291.070312 233.347656 L 287.359375 235.492188 L 282.644531 237.921875 L 278.933594 239.636719 L 276.789062 240.492188 L 273.648438 241.351562 L 272.503906 241.496094 L 270.078125 241.496094 L 268.21875 240.921875 L 266.792969 240.066406 L 265.507812 238.777344 L 264.363281 236.921875 L 263.363281 234.488281 L 262.507812 231.488281 L 261.507812 225.769531 L 259.507812 214.90625 L 258.367188 207.613281 L 257.367188 200.324219 L 256.9375 196.609375 L 256.9375 195.320312 L 253.222656 196.179688 L 250.9375 196.894531 L 248.082031 198.039062 L 245.511719 198.894531 L 244.367188 199.039062 L 244.226562 198.324219 L 245.796875 196.75 L 248.796875 194.75 L 251.367188 193.320312 L 253.796875 192.175781 L 257.507812 190.746094 L 261.9375 189.316406 L 265.507812 188.316406 L 270.933594 187.171875 L 275.789062 186.316406 L 283.074219 185.3125 L 291.5 184.457031 L 305.925781 183.3125 L 313.921875 182.597656 L 319.492188 182.027344 L 320.492188 182.167969 L 320.636719 182.597656 L 319.636719 183.742188 L 318.636719 184.457031 L 324.207031 183.457031 L 328.492188 182.882812 L 334.203125 181.3125 L 334.773438 181.453125 L 334.917969 182.457031 L 337.488281 182.3125 L 346.488281 182.3125 L 350.773438 182.742188 L 355.199219 183.597656 L 359.054688 184.886719 L 363.195312 186.886719 L 363.339844 187.316406 L 361.769531 188.171875 L 358.484375 190.460938 L 355.914062 192.175781 L 354.054688 193.320312 L 351.769531 194.464844 L 349.628906 195.179688 L 348.199219 195.179688 L 346.914062 194.605469 L 344.773438 193.460938 L 341.773438 192.320312 L 338.632812 191.460938 L 335.917969 190.890625 L 336.203125 192.03125 L 337.347656 198.609375 L 338.488281 204.183594 L 340.058594 210.902344 L 341.488281 216.050781 L 343.203125 221.625 L 344.34375 225.054688 L 344.914062 224.484375 L 345.914062 223.339844 L 346.914062 222.339844 L 348.914062 221.050781 L 351.34375 219.910156 L 354.628906 218.765625 L 359.199219 217.335938 L 364.625 215.476562 L 364.910156 215.476562 L 363.339844 205.898438 L 361.910156 198.324219 L 360.484375 191.746094 L 360.484375 190.460938 L 361.054688 189.746094 L 362.910156 188.460938 L 365.910156 186.886719 L 369.910156 185.3125 L 373.050781 184.3125 L 375.335938 183.742188 L 376.335938 183.597656 L 376.621094 183.886719 L 377.195312 186.742188 L 377.195312 187.171875 L 380.765625 185.886719 L 384.191406 184.886719 L 388.191406 183.886719 L 394.046875 182.742188 L 401.046875 181.742188 L 406.472656 181.167969 L 413.757812 180.597656 L 427.324219 179.882812 L 428.324219 179.882812 L 428.46875 180.453125 L 427.039062 181.742188 L 424.324219 183.742188 L 421.183594 185.457031 L 418.753906 186.601562 L 416.183594 187.457031 L 414.183594 187.886719 L 410.613281 188.171875 L 403.757812 188.601562 L 394.1875 189.460938 L 385.046875 190.605469 L 379.621094 191.460938 L 378.480469 191.746094 L 378.621094 193.460938 L 379.90625 200.324219 L 381.191406 208.472656 L 381.335938 209.617188 L 381.90625 209.617188 L 387.621094 207.613281 L 393.761719 205.613281 L 398.617188 204.042969 L 404.757812 202.183594 L 410.898438 200.46875 L 417.039062 198.894531 L 422.609375 197.609375 L 425.894531 196.894531 L 429.179688 195.320312 L 431.179688 194.464844 L 436.320312 192.746094 L 439.035156 192.175781 L 441.464844 191.890625 L 444.035156 192.03125 L 446.890625 192.605469 L 449.03125 193.460938 L 451.03125 194.605469 L 452.890625 196.035156 L 454.460938 197.609375 L 455.890625 199.464844 L 457.175781 201.753906 L 458.316406 204.328125 L 459.03125 206.472656 L 459.316406 206.472656 L 459.601562 205.898438 L 460.601562 204.757812 L 460.886719 204.757812 L 461.171875 204.183594 L 462.742188 202.898438 L 464.457031 201.609375 L 467.027344 199.894531 L 465.742188 200.039062 L 463.171875 200.609375 L 462.171875 200.609375 L 461.886719 200.324219 L 462.457031 199.324219 L 463.742188 198.039062 L 465.742188 196.609375 L 467.886719 195.464844 L 471.457031 194.035156 L 475.882812 192.605469 L 478.027344 192.175781 L 480.453125 191.890625 L 483.023438 192.03125 L 485.882812 192.605469 L 488.453125 193.605469 L 490.453125 194.890625 L 491.878906 196.035156 L 493.738281 197.894531 L 494.878906 199.464844 L 496.023438 201.324219 L 496.308594 201.898438 L 496.023438 199.179688 L 494.734375 191.175781 L 493.738281 185.886719 L 492.59375 180.453125 L 491.453125 175.738281 L 490.453125 171.734375 L 488.878906 166.015625 L 488.308594 164.445312 L 483.882812 162.441406 L 478.742188 160.296875 L 473.027344 158.011719 L 467.742188 156.007812 L 462.601562 154.152344 L 456.460938 152.007812 L 456.746094 151.433594 L 459.171875 149.71875 L 461.457031 148.003906 L 464.316406 146.144531 L 466.601562 144.859375 L 468.3125 144.144531 L 470.171875 143.714844 L 471.457031 143.859375 L 476.597656 145.574219 L 482.167969 147.574219 L 482.738281 147.859375 L 482.597656 146.859375 L 483.167969 146.003906 L 484.597656 144.859375 L 486.882812 143.574219 L 489.167969 142.429688 L 492.453125 141 L 495.878906 139.855469 Z M 509.160156 174.878906 L 510.734375 182.882812 L 512.019531 190.746094 L 513.160156 199.894531 L 513.875 208.1875 L 514.160156 211.1875 L 515.015625 210.902344 L 520.160156 208.328125 L 524.15625 206.757812 L 527.15625 205.898438 L 528.300781 205.898438 L 528.15625 206.757812 L 527.300781 207.757812 L 525.015625 209.1875 L 522.300781 210.472656 L 518.585938 212.1875 L 514.589844 214.191406 L 514.445312 214.332031 L 514.445312 229.34375 L 513.875 230.203125 L 512.730469 231.203125 L 510.445312 232.34375 L 507.449219 233.488281 L 504.304688 234.488281 L 499.164062 235.917969 L 498.449219 236.0625 L 498.59375 234.917969 L 498.59375 230.917969 L 498.449219 225.484375 L 498.308594 223.339844 L 497.59375 223.625 L 497.164062 224.199219 L 496.023438 226.914062 L 494.734375 229.199219 L 493.164062 230.917969 L 491.878906 232.058594 L 489.738281 233.488281 L 487.453125 234.777344 L 483.882812 236.492188 L 481.453125 237.492188 L 480.882812 238.207031 L 480.3125 239.777344 L 480.3125 241.636719 L 481.167969 242.925781 L 482.3125 243.78125 L 483.882812 244.496094 L 486.023438 245.066406 L 488.738281 245.496094 L 490.453125 245.640625 L 499.304688 245.640625 L 503.734375 245.355469 L 509.304688 244.78125 L 515.730469 243.925781 L 522.871094 242.78125 L 530.871094 241.207031 L 536.296875 240.066406 L 547.007812 237.636719 L 554.863281 236.0625 L 558.292969 235.203125 L 561.71875 234.0625 L 564.003906 232.917969 L 565.71875 231.773438 L 567.003906 230.628906 L 568.289062 228.628906 L 568.859375 227.054688 L 569.003906 226.484375 L 569.003906 223.339844 L 568.289062 220.335938 L 567.148438 217.621094 L 565.71875 215.335938 L 564.148438 213.332031 L 562.148438 211.1875 L 560.863281 209.902344 L 559.71875 208.902344 L 557.863281 207.328125 L 555.007812 205.183594 L 553.152344 203.753906 L 550.578125 201.898438 L 546.296875 198.609375 L 540.867188 194.605469 L 535.15625 190.605469 L 530.011719 187.171875 L 527.15625 185.3125 L 524.445312 183.597656 L 521.871094 182.027344 L 518.300781 179.882812 L 515.875 178.453125 L 512.875 176.738281 L 509.445312 174.878906 Z M 434.464844 201.609375 L 433.464844 203.039062 L 432.179688 205.898438 L 431.324219 208.757812 L 430.75 211.617188 L 430.609375 213.332031 L 430.609375 217.765625 L 431.039062 220.910156 L 431.75 223.625 L 432.609375 225.769531 L 433.609375 227.34375 L 434.894531 228.773438 L 436.179688 229.773438 L 438.035156 230.628906 L 441.179688 231.203125 L 442.035156 231.203125 L 442.75 228.484375 L 443.320312 224.769531 L 443.464844 223.339844 L 443.605469 219.480469 L 443.464844 216.476562 L 442.890625 213.332031 L 442.179688 211.046875 L 441.035156 208.617188 L 439.890625 206.757812 L 438.605469 205.042969 L 437.035156 203.328125 L 435.609375 202.183594 L 434.75 201.609375 Z M 473.457031 201.609375 L 472.457031 203.183594 L 471.3125 205.613281 L 470.3125 208.902344 L 469.886719 210.902344 L 469.601562 213.90625 L 469.601562 217.335938 L 470.027344 220.625 L 470.597656 223.054688 L 471.457031 225.339844 L 472.457031 227.054688 L 473.457031 228.34375 L 474.742188 229.488281 L 476.742188 230.488281 L 478.3125 230.917969 L 480.167969 231.203125 L 481.167969 230.628906 L 481.738281 228.628906 L 482.3125 225.199219 L 482.597656 222.195312 L 482.597656 218.050781 L 482.3125 215.191406 L 481.738281 212.617188 L 480.738281 209.902344 L 479.167969 207.042969 L 477.742188 205.183594 L 476.167969 203.46875 L 474.457031 202.039062 L 473.742188 201.609375 Z M 140.964844 15.773438 L 141.679688 15.917969 L 142.25 20.347656 L 143.394531 27.78125 L 144.964844 35.644531 L 146.394531 41.648438 L 148.25 48.367188 L 150.820312 56.230469 L 152.675781 61.230469 L 154.535156 65.808594 L 154.675781 66.378906 L 155.960938 66.234375 L 159.53125 66.09375 L 160.390625 64.089844 L 164.246094 53.796875 L 166.246094 48.222656 L 167.386719 45.078125 L 168.816406 40.789062 L 170.386719 36.359375 L 171.816406 31.785156 L 173.386719 27.066406 L 174.671875 22.921875 L 175.527344 21.777344 L 178.097656 20.203125 L 180.8125 18.917969 L 185.667969 17.058594 L 188.382812 16.203125 L 190.097656 15.773438 L 190.667969 15.773438 L 191.097656 18.632812 L 192.097656 25.636719 L 193.238281 31.925781 L 194.382812 37.214844 L 195.238281 40.789062 L 196.523438 45.652344 L 196.808594 46.652344 L 197.523438 46.363281 L 199.808594 44.9375 L 202.523438 43.363281 L 205.949219 41.503906 L 210.378906 39.503906 L 214.375 38.074219 L 217.234375 37.214844 L 220.375 36.5 L 223.375 36.074219 L 226.375 35.785156 L 228.515625 35.785156 L 230.65625 35.214844 L 231.371094 35.359375 L 231.515625 36.214844 L 232.941406 36.359375 L 235.371094 36.929688 L 238.371094 37.929688 L 241.371094 39.21875 L 244.511719 40.933594 L 247.652344 43.078125 L 250.367188 45.078125 L 252.367188 46.792969 L 253.9375 48.082031 L 256.222656 50.226562 L 257.652344 51.511719 L 259.9375 53.65625 L 260.9375 54.65625 L 262.078125 55.65625 L 263.9375 57.515625 L 265.078125 58.515625 L 267.21875 60.375 L 269.078125 61.804688 L 270.933594 63.375 L 272.648438 64.949219 L 274.21875 66.519531 L 275.789062 68.664062 L 276.789062 70.953125 L 276.933594 71.523438 L 276.933594 73.667969 L 276.359375 75.242188 L 275.21875 76.8125 L 273.648438 78.101562 L 271.503906 79.386719 L 267.21875 81.53125 L 263.222656 83.390625 L 258.9375 85.25 L 257.078125 85.960938 L 257.078125 86.25 L 258.367188 87.535156 L 259.507812 88.535156 L 261.222656 90.109375 L 262.363281 91.109375 L 263.792969 92.394531 L 265.363281 93.683594 L 266.792969 94.96875 L 268.363281 96.253906 L 270.363281 97.972656 L 271.933594 99.257812 L 276.503906 102.972656 L 278.359375 104.402344 L 280.929688 106.40625 L 283.929688 108.691406 L 289.359375 112.695312 L 292.070312 114.554688 L 294.214844 116.125 L 298.925781 119.269531 L 305.070312 123.417969 L 307.925781 125.132812 L 308.351562 125.558594 L 306.640625 126.5625 L 304.355469 128.132812 L 302.925781 129.132812 L 300.355469 130.851562 L 297.785156 132.277344 L 296.214844 132.992188 L 293.929688 133.566406 L 292.5 133.28125 L 291.070312 132.421875 L 288.359375 130.707031 L 281.503906 126.132812 L 278.789062 124.273438 L 275.933594 122.273438 L 273.363281 120.414062 L 271.363281 118.984375 L 268.648438 116.984375 L 266.792969 115.554688 L 264.507812 113.839844 L 262.507812 112.265625 L 261.078125 111.121094 L 259.078125 109.550781 L 255.9375 106.976562 L 254.507812 105.832031 L 252.507812 104.117188 L 250.9375 102.832031 L 249.367188 101.402344 L 247.796875 100.113281 L 246.082031 98.542969 L 244.941406 97.542969 L 243.511719 96.253906 L 241.65625 94.539062 L 240.226562 93.253906 L 240.371094 92.679688 L 241.65625 91.824219 L 242.65625 91.109375 L 239.085938 92.253906 L 234.800781 93.539062 L 234.800781 116.839844 L 234.65625 122.128906 L 234.085938 122.988281 L 232.941406 123.988281 L 231.515625 124.847656 L 229.085938 125.847656 L 226.230469 126.847656 L 219.230469 128.847656 L 218.660156 128.847656 L 218.519531 128.5625 L 218.519531 124.132812 L 218.660156 122.84375 L 217.945312 122.273438 L 216.945312 121.128906 L 215.660156 119.699219 L 213.089844 116.554688 L 211.519531 114.554688 L 209.519531 111.980469 L 208.234375 110.265625 L 206.378906 107.691406 L 204.378906 104.832031 L 203.234375 103.117188 L 201.664062 100.6875 L 199.953125 97.972656 L 198.664062 95.828125 L 196.808594 92.679688 L 194.523438 88.535156 L 191.953125 83.53125 L 189.953125 79.386719 L 188.097656 75.097656 L 187.953125 74.527344 L 181.382812 74.667969 L 174.8125 75.097656 L 169.101562 75.527344 L 168.957031 76.242188 L 166.101562 82.960938 L 164.816406 85.960938 L 164.960938 86.820312 L 167.386719 90.824219 L 169.246094 93.824219 L 170.671875 95.96875 L 172.816406 99.113281 L 174.671875 101.6875 L 176.671875 104.402344 L 178.671875 106.976562 L 180.242188 108.976562 L 182.242188 111.410156 L 184.8125 114.410156 L 184.667969 115.125 L 182.8125 116.554688 L 179.242188 118.84375 L 176.671875 120.269531 L 174.386719 121.414062 L 172.242188 122.273438 L 170.53125 122.703125 L 169.53125 122.703125 L 168.386719 121.699219 L 167.101562 120.269531 L 165.816406 118.699219 L 163.816406 116.269531 L 162.101562 114.125 L 160.816406 112.410156 L 158.53125 109.40625 L 156.960938 107.121094 L 155.246094 104.691406 L 153.390625 101.832031 L 153.105469 101.402344 L 151.675781 101.6875 L 144.964844 103.402344 L 143.964844 103.546875 L 144.394531 102.257812 L 145.394531 100.113281 L 147.679688 94.96875 L 148.25 93.539062 L 146.679688 90.679688 L 144.964844 87.535156 L 143.394531 84.535156 L 141.824219 81.246094 L 141.394531 79.957031 L 136.109375 81.101562 L 134.109375 81.53125 L 133.253906 81.53125 L 133.394531 80.671875 L 134.394531 79.671875 L 136.679688 77.957031 L 138.539062 76.8125 L 139.109375 76.527344 L 139.539062 76.527344 L 138.964844 74.957031 L 138.964844 74.527344 L 132.539062 74.667969 L 127.539062 74.957031 L 120.113281 75.527344 L 119.683594 76.8125 L 115.398438 86.820312 L 113.117188 91.96875 L 111.257812 96.113281 L 110.542969 97.542969 L 109.542969 98.6875 L 107.546875 99.828125 L 105.546875 100.6875 L 102.546875 101.6875 L 97.546875 102.972656 L 95.546875 103.546875 L 94.976562 103.546875 L 95.121094 102.832031 L 97.261719 98.113281 L 99.832031 92.253906 L 101.546875 88.25 L 103.546875 83.53125 L 104.832031 80.53125 L 105.6875 78.242188 L 105.972656 77.527344 L 104.261719 77.671875 L 96.976562 78.957031 L 90.121094 80.386719 L 85.121094 81.53125 L 84.265625 81.53125 L 84.121094 80.960938 L 84.980469 79.957031 L 87.265625 78.242188 L 89.265625 76.957031 L 91.40625 75.8125 L 94.40625 74.667969 L 97.117188 73.8125 L 103.117188 72.382812 L 108.402344 71.238281 L 108.832031 70.523438 L 110.117188 67.234375 L 111.828125 62.804688 L 113.972656 57.085938 L 116.113281 51.226562 L 117.972656 46.078125 L 119.96875 40.359375 L 121.683594 35.214844 L 124.113281 27.78125 L 125.539062 23.207031 L 126.253906 22.0625 L 127.539062 21.0625 L 131.109375 19.203125 L 135.824219 17.347656 L 138.824219 16.34375 Z M 211.664062 43.078125 L 209.664062 43.363281 L 207.378906 44.507812 L 204.949219 46.078125 L 202.378906 47.507812 L 200.949219 48.222656 L 198.664062 49.082031 L 197.664062 49.367188 L 197.808594 50.367188 L 198.953125 53.941406 L 200.808594 59.230469 L 202.949219 64.664062 L 203.664062 66.378906 L 210.519531 66.378906 L 217.234375 66.519531 L 216.660156 58.085938 L 215.804688 47.222656 L 215.375 43.363281 L 214.949219 43.21875 Z M 130.253906 49.511719 L 128.683594 53.796875 L 126.828125 58.660156 L 125.253906 62.660156 L 123.398438 67.378906 L 122.828125 68.808594 L 125.683594 68.523438 L 133.253906 67.664062 L 135.96875 67.378906 L 132.539062 57.085938 L 130.539062 50.082031 Z M 179.382812 49.511719 L 178.242188 52.371094 L 176.101562 58.085938 L 173.386719 64.949219 L 171.957031 68.523438 L 171.957031 68.808594 L 177.101562 68.238281 L 184.953125 67.378906 L 184.527344 65.808594 L 182.667969 60.515625 L 180.8125 54.511719 L 179.671875 50.367188 L 179.527344 49.511719 Z M 232.800781 51.511719 L 232.800781 53.082031 L 233.800781 69.808594 L 234.226562 80.816406 L 234.515625 89.25 L 238.226562 88.535156 L 244.511719 87.105469 L 248.511719 86.105469 L 252.652344 84.820312 L 255.507812 83.675781 L 258.507812 82.101562 L 259.367188 81.53125 L 262.078125 80.960938 L 263.222656 80.386719 L 263.078125 79.816406 L 261.9375 79.101562 L 260.792969 78.53125 L 259.367188 76.097656 L 258.652344 75.242188 L 258.367188 75.242188 L 258.078125 74.667969 L 255.652344 72.238281 L 254.507812 71.238281 L 252.507812 69.238281 L 251.367188 68.238281 L 247.082031 64.234375 L 244.941406 62.089844 L 243.796875 61.089844 L 240.941406 58.230469 L 239.796875 57.230469 L 236.941406 54.65625 L 235.371094 53.371094 L 233.230469 51.65625 Z M 217.089844 69.09375 L 214.375 70.808594 L 211.234375 72.523438 L 208.519531 73.667969 L 207.234375 74.242188 L 208.378906 76.527344 L 209.949219 79.816406 L 211.664062 82.960938 L 213.519531 86.25 L 216.234375 90.824219 L 218.234375 93.683594 L 218.375 93.253906 L 218.089844 83.105469 L 217.519531 71.382812 L 217.375 69.09375 Z M 79.125 138.710938 L 81.550781 138.855469 L 83.835938 139.425781 L 85.835938 140.425781 L 87.265625 141.570312 L 88.550781 143.144531 L 89.40625 144.574219 L 90.40625 147.289062 L 90.976562 149.863281 L 91.261719 152.148438 L 91.40625 154.152344 L 91.40625 159.441406 L 90.976562 166.160156 L 90.550781 171.589844 L 90.40625 174.449219 L 89.835938 175.449219 L 88.550781 176.59375 L 86.265625 177.738281 L 83.40625 178.882812 L 78.695312 180.3125 L 74.410156 181.453125 L 74.265625 181.3125 L 74.265625 179.023438 L 74.980469 169.019531 L 75.125 166.015625 L 75.125 160.15625 L 74.839844 156.867188 L 74.125 153.863281 L 73.125 151.578125 L 71.839844 149.433594 L 70.839844 148.433594 L 69.554688 147.859375 L 68.269531 147.859375 L 66.839844 148.574219 L 65.839844 149.433594 L 64.699219 151.007812 L 63.269531 153.292969 L 61.414062 157.152344 L 59.84375 160.871094 L 58.273438 164.730469 L 55.984375 170.589844 L 53.988281 176.023438 L 51.988281 181.742188 L 49.703125 188.886719 L 47.558594 196.464844 L 45.558594 204.46875 L 44.417969 209.757812 L 44.273438 210.046875 L 48.417969 208.328125 L 52.703125 206.472656 L 61.84375 202.183594 L 65.839844 200.324219 L 70.695312 198.179688 L 74.695312 196.609375 L 77.980469 195.464844 L 81.125 194.464844 L 85.265625 193.460938 L 86.691406 193.035156 L 89.40625 191.605469 L 94.121094 189.460938 L 96.832031 188.316406 L 100.261719 187.03125 L 104.546875 185.601562 L 109.117188 184.457031 L 114.542969 183.457031 L 118.828125 182.882812 L 124.539062 181.3125 L 125.113281 181.453125 L 125.253906 182.457031 L 127.96875 182.3125 L 129.253906 181.882812 L 133.109375 179.882812 L 136.253906 178.453125 L 138.679688 177.453125 L 142.25 176.308594 L 146.25 175.308594 L 148.679688 174.878906 L 153.25 174.449219 L 155.105469 174.449219 L 157.246094 173.878906 L 157.820312 174.019531 L 157.960938 174.878906 L 159.816406 175.164062 L 162.246094 175.738281 L 165.101562 176.738281 L 167.671875 177.882812 L 170.386719 179.308594 L 172.816406 180.882812 L 175.242188 182.597656 L 177.242188 184.171875 L 179.242188 185.886719 L 180.8125 187.171875 L 182.957031 189.175781 L 184.8125 190.890625 L 185.8125 191.890625 L 186.242188 192.175781 L 186.242188 192.460938 L 186.8125 192.746094 L 188.8125 194.75 L 189.953125 195.75 L 190.953125 196.75 L 192.097656 197.75 L 193.667969 199.039062 L 195.953125 200.894531 L 197.523438 202.183594 L 199.378906 203.898438 L 201.09375 205.757812 L 202.523438 207.902344 L 203.234375 209.757812 L 203.378906 210.332031 L 203.378906 212.332031 L 202.808594 213.90625 L 202.234375 214.761719 L 201.238281 215.90625 L 199.238281 217.335938 L 196.953125 218.621094 L 193.09375 220.480469 L 189.097656 222.339844 L 183.382812 224.769531 L 185.242188 226.628906 L 186.382812 227.628906 L 187.953125 229.058594 L 189.097656 230.058594 L 190.523438 231.34375 L 192.097656 232.632812 L 194.238281 234.488281 L 196.238281 236.207031 L 197.808594 237.492188 L 200.09375 239.351562 L 201.664062 240.636719 L 205.664062 243.78125 L 207.519531 245.210938 L 210.519531 247.5 L 213.234375 249.5 L 218.375 253.214844 L 221.660156 255.503906 L 227.800781 259.648438 L 233.941406 263.652344 L 234.65625 263.9375 L 234.65625 264.367188 L 233.085938 265.222656 L 230.230469 267.226562 L 226.375 269.800781 L 222.804688 271.65625 L 220.660156 272.230469 L 219.519531 272.230469 L 217.660156 271.226562 L 215.234375 269.65625 L 212.375 267.796875 L 207.234375 264.367188 L 203.949219 262.078125 L 201.523438 260.363281 L 199.953125 259.21875 L 197.953125 257.789062 L 195.238281 255.789062 L 189.8125 251.644531 L 187.953125 250.214844 L 186.382812 248.929688 L 184.097656 247.070312 L 182.667969 245.925781 L 180.242188 243.925781 L 178.242188 242.210938 L 176.671875 240.921875 L 175.242188 239.636719 L 173.671875 238.347656 L 171.671875 236.492188 L 170.53125 235.492188 L 168.816406 233.917969 L 167.246094 232.488281 L 166.53125 231.773438 L 167.101562 231.203125 L 168.957031 229.914062 L 162.246094 231.917969 L 161.101562 232.203125 L 161.246094 238.921875 L 161.246094 255.074219 L 161.101562 260.792969 L 160.390625 261.9375 L 159.246094 262.792969 L 156.960938 263.9375 L 154.960938 264.796875 L 151.820312 265.796875 L 145.820312 267.511719 L 145.109375 267.65625 L 144.964844 267.367188 L 144.964844 244.78125 L 144.679688 230.628906 L 144.25 218.765625 L 143.535156 205.46875 L 142.820312 195.035156 L 142.820312 194.320312 L 141.394531 194.75 L 139.824219 195.179688 L 138.394531 195.179688 L 137.253906 194.605469 L 135.109375 193.460938 L 132.109375 192.320312 L 128.96875 191.460938 L 126.253906 190.890625 L 126.539062 192.175781 L 127.539062 197.894531 L 128.683594 203.613281 L 130.539062 211.472656 L 132.539062 218.480469 L 134.109375 223.484375 L 135.679688 228.058594 L 137.109375 231.917969 L 137.109375 232.773438 L 135.394531 234.347656 L 132.824219 235.777344 L 129.253906 237.492188 L 125.96875 238.777344 L 123.683594 239.492188 L 121.398438 239.921875 L 120.828125 239.207031 L 118.828125 233.773438 L 116.257812 225.914062 L 114.972656 221.480469 L 112.972656 213.476562 L 111.6875 207.472656 L 110.542969 201.183594 L 109.542969 194.175781 L 109.117188 190.605469 L 109.117188 189.890625 L 105.546875 190.316406 L 100.976562 191.03125 L 97.40625 191.890625 L 94.691406 192.746094 L 93.261719 193.320312 L 93.691406 193.605469 L 95.976562 194.75 L 97.40625 196.179688 L 98.546875 198.324219 L 98.976562 200.179688 L 98.976562 202.898438 L 98.40625 205.757812 L 97.40625 208.617188 L 95.40625 212.476562 L 92.976562 216.476562 L 91.40625 219.050781 L 88.835938 222.910156 L 87.265625 225.199219 L 85.40625 227.769531 L 83.835938 229.914062 L 81.835938 232.488281 L 80.265625 234.488281 L 78.550781 236.492188 L 76.980469 238.347656 L 75.265625 240.351562 L 73.269531 242.496094 L 71.984375 243.925781 L 70.839844 245.066406 L 69.839844 246.210938 L 65.125 250.929688 L 63.984375 251.929688 L 62.84375 253.074219 L 61.699219 254.074219 L 59.84375 255.789062 L 58.273438 257.078125 L 56.699219 258.503906 L 54.699219 260.078125 L 52.273438 262.078125 L 49.988281 263.796875 L 47.273438 265.796875 L 44.703125 267.65625 L 39.5625 271.085938 L 36.5625 272.945312 L 34.707031 274.085938 L 31.5625 275.945312 L 27.566406 277.945312 L 24.992188 278.949219 L 21.851562 279.804688 L 20.710938 279.949219 L 16.996094 279.949219 L 15.28125 279.519531 L 12.996094 278.375 L 11.425781 277.234375 L 9.570312 275.515625 L 8.285156 273.945312 L 6.855469 271.800781 L 5.285156 268.796875 L 3.855469 265.082031 L 2.855469 261.792969 L 2 258.078125 L 1.140625 253.214844 L 0.285156 245.78125 L 0.144531 243.78125 L 0 243.351562 L 0 233.347656 L 0.855469 230.773438 L 2.140625 228.34375 L 4.140625 226.199219 L 5.570312 225.199219 L 7.710938 224.054688 L 9.855469 223.339844 L 12.425781 222.769531 L 14.851562 222.480469 L 20.851562 222.480469 L 24.851562 222.910156 L 29.5625 223.769531 L 33.992188 224.910156 L 39.417969 226.769531 L 43.273438 228.484375 L 43.5625 229.058594 L 41.847656 229.914062 L 39.417969 231.628906 L 36.5625 233.632812 L 33.707031 235.347656 L 31.5625 236.347656 L 30.136719 236.777344 L 28.421875 236.777344 L 26.851562 236.0625 L 22.707031 234.0625 L 18.710938 232.488281 L 15.566406 231.488281 L 15.710938 234.0625 L 16.425781 239.351562 L 17.566406 245.355469 L 18.566406 250.070312 L 19.710938 254.074219 L 21.28125 258.21875 L 23.28125 262.367188 L 25.136719 265.652344 L 27.277344 269.085938 L 28.707031 271.085938 L 29.707031 271.941406 L 30.5625 272.085938 L 31.847656 271.371094 L 33.421875 270.085938 L 35.277344 268.511719 L 37.5625 266.796875 L 39.992188 264.796875 L 41.5625 263.507812 L 45.558594 260.078125 L 47.84375 257.933594 L 49.273438 256.648438 L 51.703125 254.359375 L 54.558594 251.5 L 55.558594 250.359375 L 56.84375 249.070312 L 56.984375 248.785156 L 57.273438 248.785156 L 57.558594 248.214844 L 59.84375 245.78125 L 61.128906 244.210938 L 62.414062 242.78125 L 63.699219 241.207031 L 65.554688 238.921875 L 67.125 236.921875 L 68.839844 234.777344 L 70.410156 232.632812 L 72.269531 230.058594 L 73.980469 227.628906 L 75.839844 224.769531 L 77.550781 222.054688 L 78.980469 219.480469 L 80.550781 216.476562 L 81.835938 212.902344 L 82.550781 210.1875 L 82.835938 208.042969 L 82.835938 206.328125 L 82.410156 204.328125 L 81.695312 202.898438 L 80.695312 202.039062 L 78.980469 201.324219 L 77.980469 201.183594 L 75.980469 201.183594 L 73.839844 201.46875 L 70.269531 202.46875 L 67.269531 203.613281 L 63.984375 205.042969 L 61.699219 206.183594 L 58.984375 207.472656 L 56.273438 208.902344 L 52.84375 210.472656 L 48.273438 212.332031 L 42.417969 214.476562 L 39.5625 215.476562 L 32.5625 217.90625 L 29.5625 218.765625 L 27.992188 218.90625 L 27.992188 217.765625 L 29.136719 212.476562 L 30.992188 205.042969 L 32.847656 198.609375 L 34.132812 194.464844 L 35.847656 189.316406 L 37.703125 183.886719 L 40.277344 176.878906 L 42.5625 170.734375 L 44.132812 166.730469 L 45.988281 162.441406 L 47.558594 159.296875 L 49.703125 155.867188 L 51.128906 153.863281 L 52.988281 151.722656 L 53.988281 150.578125 L 54.273438 150.578125 L 54.414062 150.148438 L 57.558594 147.574219 L 59.699219 146.144531 L 61.84375 144.859375 L 65.414062 142.859375 L 69.410156 141 L 72.269531 140 L 74.695312 139.285156 L 77.265625 138.855469 Z M 136.964844 181.882812 L 135.824219 182.167969 L 135.824219 182.3125 L 140.679688 182.742188 L 141.824219 182.882812 L 141.824219 182.167969 L 140.539062 181.882812 Z M 159.246094 190.175781 L 159.246094 191.890625 L 160.105469 206.328125 L 160.390625 211.902344 L 160.960938 227.914062 L 162.101562 227.769531 L 169.246094 226.199219 L 173.527344 225.199219 L 177.386719 224.054688 L 179.957031 223.195312 L 183.242188 221.765625 L 185.382812 220.480469 L 186.382812 220.050781 L 188.667969 219.621094 L 189.523438 219.195312 L 189.667969 218.765625 L 189.097656 218.191406 L 187.238281 217.191406 L 185.8125 214.761719 L 179.957031 208.902344 L 179.671875 208.902344 L 179.382812 208.328125 L 178.242188 207.328125 L 175.8125 205.042969 L 174.386719 203.753906 L 171.957031 201.324219 L 170.816406 200.324219 L 168.386719 197.894531 L 167.246094 196.894531 L 165.101562 194.890625 L 163.960938 193.890625 L 162.53125 192.605469 L 160.53125 191.03125 Z M 159.246094 190.175781 "/>
<path style=" stroke:none;fill-rule:nonzero;fill:rgb(99.607843%,99.607843%,99.607843%);fill-opacity:1;" d="M 438.605469 0.046875 L 442.75 0.046875 L 445.605469 0.90625 L 447.175781 1.765625 L 448.605469 2.90625 L 449.890625 4.480469 L 451.03125 6.625 L 451.746094 8.769531 L 452.316406 11.34375 L 452.746094 15.773438 L 452.746094 20.203125 L 452.316406 27.066406 L 451.890625 32.070312 L 451.746094 35.644531 L 451.175781 36.789062 L 450.175781 37.644531 L 448.746094 38.503906 L 446.175781 39.644531 L 441.464844 41.21875 L 436.320312 42.648438 L 435.609375 42.648438 L 435.609375 40.074219 L 436.320312 29.78125 L 436.464844 27.066406 L 436.464844 21.632812 L 436.179688 18.488281 L 435.609375 15.628906 L 434.464844 12.914062 L 433.179688 10.769531 L 432.179688 9.769531 L 431.039062 9.199219 L 430.179688 9.054688 L 429.039062 9.339844 L 427.46875 10.484375 L 426.46875 11.628906 L 425.039062 13.773438 L 423.46875 16.773438 L 421.609375 21.0625 L 419.46875 26.351562 L 417.328125 31.785156 L 415.328125 37.214844 L 413.183594 43.363281 L 411.328125 49.222656 L 409.472656 55.515625 L 407.613281 62.519531 L 405.757812 70.808594 L 405.757812 71.238281 L 410.042969 69.523438 L 413.898438 67.808594 L 426.753906 61.804688 L 431.894531 59.515625 L 437.035156 57.515625 L 442.320312 55.800781 L 446.460938 54.800781 L 449.460938 54.371094 L 452.316406 54.371094 L 454.746094 54.800781 L 457.03125 55.941406 L 458.460938 57.230469 L 459.316406 58.515625 L 459.886719 59.800781 L 460.316406 61.804688 L 460.316406 63.949219 L 459.746094 66.949219 L 458.746094 69.808594 L 457.175781 72.953125 L 455.175781 76.386719 L 453.316406 79.386719 L 452.316406 80.960938 L 448.890625 86.105469 L 447.175781 88.394531 L 445.75 90.394531 L 444.320312 92.253906 L 441.179688 96.253906 L 439.464844 98.257812 L 438.179688 99.828125 L 436.75 101.402344 L 435.75 102.546875 L 434.464844 103.976562 L 432.75 105.832031 L 431.609375 106.976562 L 430.609375 108.121094 L 428.324219 110.40625 L 428.039062 110.40625 L 428.039062 110.695312 L 427.324219 111.410156 L 425.609375 112.980469 L 423.183594 115.269531 L 421.753906 116.554688 L 417.753906 119.984375 L 416.183594 121.273438 L 413.898438 123.128906 L 411.042969 125.273438 L 408.613281 127.132812 L 405.902344 128.992188 L 404.472656 129.992188 L 402.757812 131.136719 L 399.902344 132.992188 L 396.476562 135.136719 L 394.046875 136.566406 L 390.90625 138.285156 L 387.761719 139.710938 L 384.761719 140.714844 L 382.765625 141.140625 L 381.765625 141.285156 L 378.621094 141.285156 L 376.335938 140.714844 L 374.050781 139.570312 L 372.625 138.425781 L 370.910156 136.855469 L 369.195312 134.710938 L 368.054688 132.851562 L 367.195312 131.421875 L 366.195312 129.132812 L 365.195312 126.5625 L 364.339844 123.703125 L 363.054688 124.417969 L 360.484375 125.988281 L 357.054688 127.847656 L 354.914062 128.847656 L 352.628906 129.707031 L 350.914062 130.136719 L 349.628906 130.136719 L 348.773438 129.132812 L 344.773438 123.128906 L 341.773438 118.554688 L 339.632812 115.269531 L 338.058594 112.835938 L 336.0625 109.691406 L 333.917969 106.261719 L 331.632812 102.546875 L 329.207031 98.542969 L 327.492188 95.683594 L 325.632812 92.539062 L 323.492188 88.820312 L 322.0625 86.25 L 320.066406 82.53125 L 318.351562 79.242188 L 316.636719 76.097656 L 314.78125 72.8125 L 312.496094 68.953125 L 311.351562 66.664062 L 310.636719 65.519531 L 310.636719 65.234375 L 309.351562 65.234375 L 308.210938 65.808594 L 307.210938 67.234375 L 306.210938 69.523438 L 304.925781 73.238281 L 304.355469 74.097656 L 303.210938 75.097656 L 302.496094 75.527344 L 302.640625 78.671875 L 303.210938 88.105469 L 303.496094 92.679688 L 303.496094 94.683594 L 302.925781 95.683594 L 301.785156 96.683594 L 299.355469 97.972656 L 297.214844 98.828125 L 292.5 100.402344 L 287.785156 101.6875 L 287.359375 101.542969 L 286.929688 95.398438 L 286.359375 85.820312 L 285.214844 70.09375 L 284.074219 56.65625 L 282.929688 44.507812 L 281.789062 33.640625 L 281.359375 29.78125 L 281.359375 28.78125 L 281.929688 27.925781 L 283.214844 26.78125 L 286.214844 25.207031 L 289.929688 23.777344 L 294.214844 22.492188 L 297.214844 21.777344 L 297.5 21.921875 L 297.925781 25.351562 L 299.355469 39.074219 L 300.5 51.367188 L 301.355469 61.660156 L 301.355469 63.375 L 303.640625 61.945312 L 306.355469 60.375 L 309.351562 58.660156 L 311.496094 57.515625 L 314.210938 56.230469 L 316.921875 55.226562 L 319.207031 54.65625 L 322.921875 54.65625 L 324.207031 55.226562 L 325.632812 56.230469 L 326.777344 57.515625 L 327.777344 59.089844 L 329.492188 62.375 L 331.203125 66.09375 L 332.917969 69.238281 L 335.0625 73.097656 L 339.058594 80.101562 L 340.917969 83.246094 L 342.628906 86.25 L 345.628906 91.253906 L 347.488281 94.398438 L 349.34375 97.398438 L 353.628906 104.261719 L 355.914062 107.835938 L 358.054688 111.121094 L 360.625 114.980469 L 363.054688 118.699219 L 362.769531 116.410156 L 362.195312 112.695312 L 361.484375 105.976562 L 361.339844 104.261719 L 361.199219 99.542969 L 359.199219 99.542969 L 356.339844 98.828125 L 354.054688 97.828125 L 351.914062 96.542969 L 350.058594 95.113281 L 348.914062 94.109375 L 347.914062 93.253906 L 347.914062 92.96875 L 347.628906 92.96875 L 347.058594 91.96875 L 345.773438 90.394531 L 344.34375 88.25 L 342.917969 85.820312 L 341.203125 82.53125 L 339.203125 77.527344 L 338.203125 74.527344 L 337.0625 70.382812 L 336.0625 65.234375 L 335.488281 60.375 L 335.488281 57.085938 L 336.0625 56.230469 L 337.488281 54.941406 L 339.917969 53.65625 L 343.914062 52.226562 L 351.058594 50.226562 L 351.628906 50.226562 L 351.914062 55.515625 L 352.34375 59.375 L 353.199219 63.664062 L 354.34375 67.523438 L 355.628906 70.953125 L 357.339844 74.667969 L 359.339844 78.101562 L 361.625 81.53125 L 362.910156 83.246094 L 364.769531 85.535156 L 366.054688 86.964844 L 367.339844 86.25 L 369.339844 85.25 L 370.339844 84.820312 L 370.625 82.390625 L 370.910156 77.101562 L 370.910156 71.667969 L 370.625 67.664062 L 370.050781 63.234375 L 368.910156 57.515625 L 368.339844 55.371094 L 368.339844 54.511719 L 369.054688 53.511719 L 370.480469 52.511719 L 372.765625 51.226562 L 375.90625 49.796875 L 379.480469 48.507812 L 382.476562 47.652344 L 383.191406 47.507812 L 384.335938 47.507812 L 384.621094 47.9375 L 385.476562 51.65625 L 386.335938 56.085938 L 386.90625 60.375 L 387.191406 63.234375 L 387.335938 66.378906 L 387.335938 69.09375 L 387.191406 72.238281 L 386.621094 76.957031 L 385.90625 80.671875 L 384.90625 84.105469 L 386.476562 84.246094 L 391.617188 85.25 L 395.332031 86.25 L 400.472656 87.964844 L 404.617188 89.824219 L 404.902344 90.394531 L 403.617188 90.964844 L 402.042969 91.96875 L 399.902344 93.539062 L 396.902344 95.539062 L 394.902344 96.683594 L 392.761719 97.683594 L 391.332031 98.113281 L 389.90625 98.113281 L 388.476562 97.542969 L 384.761719 95.683594 L 380.90625 94.109375 L 378.480469 93.253906 L 377.621094 93.394531 L 377.050781 93.824219 L 377.050781 95.683594 L 377.621094 99.972656 L 378.90625 106.832031 L 379.765625 110.980469 L 380.765625 114.554688 L 381.765625 117.414062 L 382.90625 120.128906 L 384.621094 123.703125 L 386.476562 126.988281 L 388.621094 130.421875 L 390.046875 132.421875 L 390.90625 133.136719 L 391.332031 133.421875 L 392.046875 133.28125 L 393.476562 132.421875 L 395.046875 131.136719 L 396.761719 129.707031 L 399.1875 127.847656 L 401.617188 125.847656 L 403.472656 124.273438 L 404.328125 123.558594 L 404.617188 123.558594 L 404.617188 123.273438 L 406.1875 121.988281 L 408.1875 120.128906 L 409.328125 119.128906 L 411.472656 117.125 L 412.613281 115.984375 L 412.898438 115.984375 L 413.042969 115.554688 L 413.757812 114.980469 L 414.613281 113.980469 L 414.898438 113.980469 L 415.042969 113.550781 L 415.328125 113.550781 L 415.613281 112.980469 L 417.753906 110.835938 L 418.753906 109.691406 L 420.324219 107.976562 L 421.609375 106.546875 L 423.324219 104.546875 L 424.609375 102.972656 L 426.609375 100.542969 L 427.753906 99.113281 L 429.324219 97.113281 L 432.75 92.539062 L 434.464844 90.109375 L 437.320312 85.820312 L 438.894531 83.246094 L 440.605469 80.246094 L 442.179688 76.957031 L 443.035156 74.527344 L 443.75 72.097656 L 444.175781 69.09375 L 444.035156 66.949219 L 443.605469 65.378906 L 442.75 63.949219 L 441.464844 63.089844 L 440.464844 62.660156 L 439.605469 62.519531 L 436.894531 62.519531 L 434.464844 62.949219 L 431.039062 63.949219 L 428.179688 65.09375 L 425.324219 66.378906 L 421.183594 68.378906 L 416.898438 70.523438 L 412.757812 72.382812 L 407.1875 74.527344 L 402.902344 76.097656 L 394.1875 79.101562 L 390.90625 80.101562 L 389.476562 80.246094 L 389.332031 80.101562 L 389.332031 78.957031 L 390.617188 72.953125 L 391.90625 67.808594 L 394.046875 60.230469 L 396.617188 52.082031 L 398.757812 45.9375 L 400.046875 42.363281 L 401.902344 37.359375 L 403.472656 33.070312 L 405.902344 26.921875 L 407.1875 24.066406 L 408.328125 21.777344 L 409.757812 19.0625 L 411.183594 16.917969 L 412.898438 14.628906 L 414.613281 12.628906 L 416.328125 10.914062 L 417.898438 9.625 L 420.46875 7.769531 L 423.324219 6.054688 L 425.894531 4.625 L 428.179688 3.480469 L 431.039062 2.191406 L 434.894531 0.90625 Z M 271.503906 182.027344 L 272.503906 182.167969 L 272.648438 182.597656 L 271.933594 183.457031 L 269.363281 185.3125 L 266.363281 187.171875 L 263.648438 188.460938 L 261.222656 189.316406 L 258.222656 190.03125 L 226.660156 193.890625 L 225.660156 193.890625 L 225.945312 195.464844 L 227.375 205.183594 L 228.230469 210.1875 L 228.230469 210.902344 L 230.800781 209.902344 L 238.511719 207.1875 L 243.226562 205.46875 L 247.9375 203.898438 L 248.9375 204.042969 L 249.367188 204.46875 L 248.9375 205.183594 L 248.082031 206.183594 L 246.226562 207.328125 L 241.371094 209.757812 L 237.511719 211.332031 L 233.371094 212.761719 L 229.085938 214.332031 L 229.230469 215.761719 L 230.65625 222.480469 L 231.515625 225.914062 L 232.515625 228.628906 L 233.800781 231.058594 L 234.65625 232.203125 L 234.515625 233.488281 L 234.226562 234.203125 L 235.515625 233.488281 L 238.371094 231.628906 L 244.65625 227.628906 L 247.652344 225.769531 L 251.511719 223.769531 L 253.9375 222.910156 L 255.652344 222.625 L 257.652344 222.625 L 258.222656 222.910156 L 258.078125 223.484375 L 256.792969 224.484375 L 254.367188 226.054688 L 250.226562 228.773438 L 247.796875 230.34375 L 244.226562 232.632812 L 241.085938 234.488281 L 238.511719 235.917969 L 235.515625 237.492188 L 231.515625 239.351562 L 228.660156 240.492188 L 225.660156 241.351562 L 224.515625 241.496094 L 222.089844 241.496094 L 220.515625 241.066406 L 218.945312 240.207031 L 217.234375 238.492188 L 215.945312 236.207031 L 214.949219 233.347656 L 214.089844 229.488281 L 212.949219 222.910156 L 211.804688 216.765625 L 210.378906 208.042969 L 208.949219 197.324219 L 208.804688 195.464844 L 206.949219 195.75 L 203.664062 196.609375 L 199.238281 198.324219 L 196.953125 199.039062 L 196.238281 199.039062 L 196.09375 198.464844 L 197.238281 197.179688 L 199.378906 195.605469 L 201.523438 194.320312 L 203.523438 193.175781 L 207.09375 191.605469 L 210.234375 190.460938 L 215.375 188.886719 L 220.089844 187.746094 L 226.800781 186.457031 L 233.800781 185.457031 L 241.796875 184.601562 L 257.792969 183.3125 L 265.792969 182.597656 Z M 271.503906 182.027344 "/>
</g>
</svg>
