<?xml version="1.0" encoding="UTF-8"?>
<svg xmlns="http://www.w3.org/2000/svg" xmlns:xlink="http://www.w3.org/1999/xlink" width="1148px" height="557px" viewBox="0 0 861 418" version="1.1">
<g id="surface1">
<path style=" stroke:none;fill-rule:nonzero;fill:rgb(99.607843%,99.607843%,99.607843%);fill-opacity:1;" d="M 732.792969 205.214844 L 733.636719 205.425781 L 734.476562 207.109375 L 736.578125 212.785156 L 739.941406 222.675781 L 742.457031 230.671875 L 742.457031 231.09375 L 744.5625 231.71875 L 752.335938 235.511719 L 757.164062 237.828125 L 763.46875 240.984375 L 767.453125 243.085938 L 773.335938 246.238281 L 776.699219 248.136719 L 780.480469 250.242188 L 785.527344 253.183594 L 790.148438 255.917969 L 793.925781 258.230469 L 797.921875 260.757812 L 803.171875 264.125 L 810.097656 268.753906 L 817.667969 274.015625 L 821.449219 276.753906 L 825.4375 279.695312 L 833.003906 285.167969 L 836.570312 287.691406 L 839.933594 290.214844 L 842.875 292.523438 L 845.183594 294.421875 L 847.496094 296.527344 L 849.175781 297.996094 L 852.957031 301.789062 L 855.269531 304.734375 L 856.949219 307.050781 L 858.625 309.996094 L 860.308594 313.992188 L 860.308594 314.835938 L 860.730469 314.835938 L 860.730469 324.507812 L 860.308594 324.507812 L 859.890625 326.398438 L 858.210938 329.769531 L 856.316406 332.507812 L 855.058594 333.976562 L 854.222656 334.820312 L 853.792969 334.820312 L 853.589844 335.453125 L 851.28125 337.34375 L 848.757812 339.238281 L 845.816406 341.128906 L 841.402344 343.65625 L 837.410156 345.554688 L 831.949219 347.863281 L 827.117188 349.761719 L 819.140625 352.703125 L 811.152344 355.226562 L 799.597656 358.386719 L 790.777344 360.488281 L 778.175781 363.226562 L 764.097656 366.171875 L 751.070312 368.695312 L 740.777344 370.378906 L 731.746094 371.636719 L 709.261719 374.375 L 704.226562 374.792969 L 697.289062 374.792969 L 693.089844 374.164062 L 689.3125 372.902344 L 687.003906 371.433594 L 684.898438 369.535156 L 683.640625 367.855469 L 683.007812 365.953125 L 683.007812 363.644531 L 683.84375 360.910156 L 685.113281 358.597656 L 687.003906 356.070312 L 689.3125 353.542969 L 687.628906 353.335938 L 683.640625 352.910156 L 680.488281 352.074219 L 677.125 350.597656 L 674.609375 348.707031 L 672.71875 346.8125 L 670.613281 343.65625 L 669.355469 340.917969 L 669.144531 339.660156 L 667.882812 340.496094 L 665.152344 342.605469 L 661.367188 344.921875 L 656.121094 347.65625 L 651.285156 349.550781 L 646.667969 351.019531 L 641.199219 352.285156 L 635.109375 353.125 L 627.96875 353.125 L 624.191406 352.496094 L 620.617188 351.019531 L 617.675781 349.128906 L 615.15625 346.605469 L 613.054688 343.445312 L 611.582031 340.082031 L 610.324219 335.234375 L 609.902344 331.875 L 609.902344 324.929688 L 610.535156 320.09375 L 611.792969 315.039062 L 613.679688 310.625 L 615.574219 307.253906 L 618.089844 303.890625 L 620.617188 301.15625 L 622.71875 299.265625 L 618.9375 299.683594 L 610.113281 301.15625 L 602.136719 302.84375 L 594.144531 304.734375 L 585.324219 307.050781 L 575.242188 309.996094 L 564.527344 313.355469 L 562.007812 314.203125 L 563.472656 327.878906 L 564.316406 338.394531 L 564.949219 349.335938 L 565.371094 361.332031 L 565.371094 377.953125 L 564.949219 389.3125 L 564.730469 393.097656 L 563.691406 395.203125 L 561.375 396.890625 L 557.386719 398.78125 L 550.449219 401.097656 L 542.050781 403.410156 L 540.785156 403.832031 L 540.996094 402.988281 L 541.417969 388.054688 L 541.417969 372.066406 L 541.207031 363.855469 L 540.582031 351.652344 L 539.734375 340.714844 L 538.269531 326.824219 L 537.84375 323.671875 L 537.84375 322.40625 L 528.601562 325.5625 L 509.699219 331.875 L 508.226562 332.292969 L 507.171875 332.292969 L 508.648438 336.714844 L 510.332031 341.128906 L 510.332031 342.605469 L 508.648438 344.289062 L 505.285156 346.390625 L 500.664062 348.707031 L 495.199219 351.019531 L 490.578125 352.496094 L 487.222656 353.125 L 486.167969 351.441406 L 483.859375 345.125 L 481.128906 337.136719 L 478.394531 328.085938 L 476.507812 320.933594 L 475.035156 315.039062 L 473.144531 306.417969 L 471.464844 297.160156 L 470.203125 288.746094 L 469.15625 280.328125 L 469.15625 279.484375 L 463.898438 280.113281 L 458.230469 280.960938 L 453.398438 282.007812 L 448.355469 283.484375 L 443.945312 285.375 L 439.117188 287.480469 L 435.753906 288.746094 L 433.019531 289.375 L 431.335938 289.164062 L 431.132812 288.949219 L 431.132812 287.894531 L 432.179688 286.636719 L 435.121094 284.742188 L 437.21875 283.484375 L 442.269531 281.164062 L 442.894531 280.746094 L 431.757812 282.007812 L 404.246094 285.375 L 402.980469 285.585938 L 404.660156 297.363281 L 406.339844 307.675781 L 406.757812 310.207031 L 412.855469 308.105469 L 421.675781 304.945312 L 431.132812 301.578125 L 434.910156 300.316406 L 436.589844 300.105469 L 437.640625 300.734375 L 437.4375 301.578125 L 435.542969 303.679688 L 433.230469 305.15625 L 428.820312 307.253906 L 425.457031 308.941406 L 419.582031 311.253906 L 408.859375 315.039062 L 407.8125 315.460938 L 408.65625 320.09375 L 410.542969 328.933594 L 411.800781 333.5625 L 413.066406 336.714844 L 414.53125 339.660156 L 416.007812 341.761719 L 416.007812 343.234375 L 415.585938 344.703125 L 419.582031 342.183594 L 423.148438 339.871094 L 427.769531 336.921875 L 431.757812 334.398438 L 435.960938 331.875 L 440.371094 329.558594 L 443.730469 328.300781 L 446.886719 327.667969 L 450.035156 327.667969 L 450.878906 328.085938 L 450.457031 328.933594 L 448.355469 330.613281 L 444.363281 333.132812 L 441.214844 335.234375 L 432.808594 340.714844 L 428.394531 343.445312 L 422.9375 346.605469 L 416.007812 350.183594 L 410.542969 352.703125 L 407.390625 353.964844 L 402.769531 355.226562 L 401.085938 355.445312 L 397.519531 355.445312 L 394.785156 354.59375 L 392.6875 353.335938 L 390.796875 351.441406 L 389.113281 348.707031 L 387.644531 345.125 L 386.386719 340.714844 L 384.914062 332.292969 L 381.972656 316.304688 L 380.292969 305.570312 L 378.824219 294.84375 L 378.195312 289.375 L 378.195312 287.480469 L 372.730469 288.746094 L 369.367188 289.796875 L 365.167969 291.476562 L 361.382812 292.742188 L 359.707031 292.953125 L 359.496094 291.898438 L 361.804688 289.582031 L 366.222656 286.636719 L 370 284.535156 L 373.574219 282.851562 L 379.03125 280.746094 L 385.546875 278.644531 L 390.796875 277.167969 L 398.777344 275.484375 L 405.921875 274.226562 L 416.636719 272.75 L 429.03125 271.492188 L 450.246094 269.804688 L 462.007812 268.753906 L 470.203125 267.914062 L 471.671875 268.121094 L 471.886719 268.753906 L 470.414062 270.4375 L 468.945312 271.492188 L 477.140625 270.015625 L 483.4375 269.175781 L 491.835938 266.863281 L 492.679688 267.066406 L 492.890625 268.546875 L 496.675781 268.332031 L 509.910156 268.332031 L 516.214844 268.964844 L 522.726562 270.226562 L 528.394531 272.125 L 534.480469 275.066406 L 534.699219 275.699219 L 532.386719 276.957031 L 527.554688 280.328125 L 523.773438 282.851562 L 521.039062 284.535156 L 517.675781 286.222656 L 514.53125 287.269531 L 512.425781 287.269531 L 510.535156 286.425781 L 507.390625 284.742188 L 502.972656 283.0625 L 498.351562 281.796875 L 494.363281 280.960938 L 494.777344 282.640625 L 496.464844 292.320312 L 498.140625 300.523438 L 500.453125 310.410156 L 502.558594 317.988281 L 505.078125 326.195312 L 506.757812 331.246094 L 507.59375 330.402344 L 509.066406 328.714844 L 510.535156 327.246094 L 513.476562 325.351562 L 517.050781 323.671875 L 521.882812 321.984375 L 528.601562 319.878906 L 536.585938 317.144531 L 537.007812 317.144531 L 534.699219 303.046875 L 532.59375 291.898438 L 530.5 282.21875 L 530.5 280.328125 L 531.335938 279.273438 L 534.066406 277.386719 L 538.476562 275.066406 L 544.359375 272.75 L 548.980469 271.273438 L 552.34375 270.4375 L 553.8125 270.226562 L 554.234375 270.648438 L 555.074219 274.851562 L 555.074219 275.484375 L 560.328125 273.59375 L 565.371094 272.125 L 571.246094 270.648438 L 579.863281 268.964844 L 590.15625 267.496094 L 598.140625 266.644531 L 608.855469 265.808594 L 628.8125 264.753906 L 630.28125 264.753906 L 630.492188 265.597656 L 628.390625 267.496094 L 624.394531 270.4375 L 619.777344 272.960938 L 616.203125 274.644531 L 612.421875 275.90625 L 609.480469 276.535156 L 604.230469 276.957031 L 594.144531 277.589844 L 580.066406 278.855469 L 566.625 280.539062 L 558.644531 281.796875 L 556.964844 282.21875 L 557.175781 284.742188 L 559.0625 294.84375 L 560.953125 306.835938 L 561.164062 308.519531 L 562.007812 308.519531 L 570.410156 305.570312 L 579.441406 302.625 L 586.582031 300.316406 L 595.621094 297.582031 L 604.648438 295.054688 L 613.679688 292.742188 L 621.875 290.84375 L 626.707031 289.796875 L 631.539062 287.480469 L 634.480469 286.222656 L 642.042969 283.6875 L 646.035156 282.851562 L 649.609375 282.429688 L 653.390625 282.640625 L 657.589844 283.484375 L 660.734375 284.742188 L 663.675781 286.425781 L 666.414062 288.527344 L 668.726562 290.84375 L 670.824219 293.578125 L 672.71875 296.949219 L 674.390625 300.734375 L 675.445312 303.890625 L 675.867188 303.890625 L 676.289062 303.046875 L 677.753906 301.367188 L 678.175781 301.367188 L 678.597656 300.523438 L 680.902344 298.636719 L 683.429688 296.734375 L 687.207031 294.210938 L 685.316406 294.421875 L 681.535156 295.265625 L 680.066406 295.265625 L 679.644531 294.84375 L 680.488281 293.375 L 682.375 291.476562 L 685.316406 289.375 L 688.46875 287.691406 L 693.722656 285.585938 L 700.234375 283.484375 L 703.386719 282.851562 L 706.953125 282.429688 L 710.738281 282.640625 L 714.941406 283.484375 L 718.722656 284.953125 L 721.664062 286.847656 L 723.761719 288.527344 L 726.492188 291.265625 L 728.171875 293.578125 L 729.855469 296.316406 L 730.277344 297.160156 L 729.855469 293.15625 L 727.960938 281.375 L 726.492188 273.59375 L 724.808594 265.597656 L 723.136719 258.65625 L 721.664062 252.765625 L 719.347656 244.347656 L 718.511719 242.035156 L 712 239.085938 L 704.4375 235.933594 L 696.03125 232.566406 L 688.261719 229.617188 L 680.699219 226.886719 L 671.667969 223.730469 L 672.085938 222.882812 L 675.65625 220.359375 L 679.011719 217.835938 L 683.21875 215.097656 L 686.582031 213.207031 L 689.097656 212.15625 L 691.832031 211.523438 L 693.722656 211.738281 L 701.285156 214.261719 L 709.480469 217.203125 L 710.316406 217.625 L 710.109375 216.152344 L 710.949219 214.894531 L 713.054688 213.207031 L 716.410156 211.316406 L 719.773438 209.632812 L 724.605469 207.53125 L 729.648438 205.84375 Z M 749.183594 257.394531 L 751.492188 269.175781 L 753.386719 280.746094 L 755.066406 294.210938 L 756.113281 306.417969 L 756.535156 310.832031 L 757.792969 310.410156 L 765.359375 306.625 L 771.238281 304.3125 L 775.648438 303.046875 L 777.332031 303.046875 L 777.121094 304.3125 L 775.863281 305.785156 L 772.5 307.886719 L 768.507812 309.777344 L 763.042969 312.304688 L 757.164062 315.253906 L 756.953125 315.460938 L 756.953125 337.554688 L 756.113281 338.816406 L 754.429688 340.292969 L 751.070312 341.972656 L 746.660156 343.65625 L 742.039062 345.125 L 734.476562 347.234375 L 733.425781 347.445312 L 733.636719 345.757812 L 733.636719 339.871094 L 733.425781 331.875 L 733.21875 328.714844 L 732.167969 329.136719 L 731.535156 329.984375 L 729.855469 333.976562 L 727.960938 337.34375 L 725.652344 339.871094 L 723.761719 341.550781 L 720.609375 343.65625 L 717.253906 345.554688 L 712 348.074219 L 708.425781 349.550781 L 707.585938 350.597656 L 706.75 352.910156 L 706.75 355.648438 L 708.003906 357.546875 L 709.691406 358.804688 L 712 359.855469 L 715.148438 360.695312 L 719.140625 361.332031 L 721.664062 361.542969 L 734.683594 361.542969 L 741.199219 361.121094 L 749.390625 360.277344 L 758.84375 359.019531 L 769.347656 357.335938 L 781.109375 355.015625 L 789.09375 353.335938 L 804.851562 349.761719 L 816.402344 347.445312 L 821.449219 346.179688 L 826.488281 344.5 L 829.847656 342.816406 L 832.371094 341.128906 L 834.257812 339.449219 L 836.148438 336.503906 L 836.992188 334.1875 L 837.203125 333.34375 L 837.203125 328.714844 L 836.148438 324.296875 L 834.46875 320.300781 L 832.371094 316.933594 L 830.058594 313.992188 L 827.117188 310.832031 L 825.230469 308.941406 L 823.542969 307.464844 L 820.8125 305.15625 L 816.613281 301.996094 L 813.886719 299.894531 L 810.097656 297.160156 L 803.804688 292.320312 L 795.816406 286.425781 L 787.414062 280.539062 L 779.847656 275.484375 L 775.648438 272.75 L 771.664062 270.226562 L 767.875 267.914062 L 762.621094 264.753906 L 759.054688 262.65625 L 754.644531 260.125 L 749.597656 257.394531 Z M 639.3125 296.734375 L 637.84375 298.839844 L 635.953125 303.046875 L 634.691406 307.253906 L 633.847656 311.464844 L 633.644531 313.992188 L 633.644531 320.515625 L 634.273438 325.140625 L 635.320312 329.136719 L 636.585938 332.292969 L 638.054688 334.609375 L 639.941406 336.714844 L 641.835938 338.183594 L 644.5625 339.449219 L 649.1875 340.292969 L 650.445312 340.292969 L 651.5 336.289062 L 652.335938 330.824219 L 652.550781 328.714844 L 652.757812 323.039062 L 652.550781 318.613281 L 651.703125 313.992188 L 650.65625 310.625 L 648.980469 307.050781 L 647.292969 304.3125 L 645.40625 301.789062 L 643.09375 299.265625 L 640.996094 297.582031 L 639.730469 296.734375 Z M 696.664062 296.734375 L 695.195312 299.050781 L 693.511719 302.625 L 692.039062 307.464844 L 691.414062 310.410156 L 690.992188 314.835938 L 690.992188 319.878906 L 691.621094 324.726562 L 692.460938 328.300781 L 693.722656 331.660156 L 695.195312 334.1875 L 696.664062 336.085938 L 698.554688 337.769531 L 701.496094 339.238281 L 703.804688 339.871094 L 706.539062 340.292969 L 708.003906 339.449219 L 708.847656 336.503906 L 709.691406 331.457031 L 710.109375 327.035156 L 710.109375 320.933594 L 709.691406 316.726562 L 708.847656 312.9375 L 707.375 308.941406 L 705.0625 304.734375 L 702.96875 301.996094 L 700.652344 299.472656 L 698.132812 297.363281 L 697.085938 296.734375 Z M 207.609375 23.214844 L 208.664062 23.425781 L 209.5 29.945312 L 211.183594 40.890625 L 213.496094 52.460938 L 215.59375 61.296875 L 218.328125 71.1875 L 222.105469 82.765625 L 224.835938 90.121094 L 227.574219 96.855469 L 227.777344 97.699219 L 229.667969 97.484375 L 234.917969 97.277344 L 236.183594 94.328125 L 241.855469 79.183594 L 244.796875 70.976562 L 246.476562 66.347656 L 248.578125 60.035156 L 250.886719 53.515625 L 252.992188 46.785156 L 255.296875 39.835938 L 257.191406 33.738281 L 258.449219 32.054688 L 262.226562 29.734375 L 266.222656 27.84375 L 273.363281 25.105469 L 277.359375 23.847656 L 279.878906 23.214844 L 280.714844 23.214844 L 281.347656 27.425781 L 282.820312 37.730469 L 284.5 46.988281 L 286.183594 54.773438 L 287.441406 60.035156 L 289.332031 67.191406 L 289.753906 68.664062 L 290.800781 68.238281 L 294.164062 66.136719 L 298.15625 63.824219 L 303.195312 61.085938 L 309.710938 58.144531 L 315.585938 56.035156 L 319.792969 54.773438 L 324.414062 53.71875 L 328.824219 53.09375 L 333.238281 52.671875 L 336.386719 52.671875 L 339.539062 51.828125 L 340.585938 52.046875 L 340.800781 53.304688 L 342.894531 53.515625 L 346.46875 54.355469 L 350.886719 55.824219 L 355.296875 57.722656 L 359.914062 60.25 L 364.535156 63.40625 L 368.523438 66.347656 L 371.46875 68.871094 L 373.777344 70.765625 L 377.140625 73.925781 L 379.246094 75.816406 L 382.605469 78.972656 L 384.078125 80.445312 L 385.757812 81.914062 L 388.488281 84.65625 L 390.167969 86.125 L 393.3125 88.863281 L 396.050781 90.964844 L 398.777344 93.273438 L 401.300781 95.59375 L 403.613281 97.90625 L 405.921875 101.066406 L 407.390625 104.429688 L 407.601562 105.273438 L 407.601562 108.425781 L 406.757812 110.746094 L 405.082031 113.054688 L 402.769531 114.953125 L 399.617188 116.84375 L 393.3125 120.003906 L 387.433594 122.734375 L 381.136719 125.476562 L 378.398438 126.523438 L 378.398438 126.945312 L 380.292969 128.835938 L 381.972656 130.308594 L 384.492188 132.625 L 386.171875 134.09375 L 388.277344 135.992188 L 390.585938 137.886719 L 392.6875 139.777344 L 394.996094 141.667969 L 397.9375 144.195312 L 400.25 146.09375 L 406.96875 151.558594 L 409.703125 153.660156 L 413.480469 156.609375 L 417.894531 159.976562 L 425.878906 165.867188 L 429.867188 168.605469 L 433.019531 170.917969 L 439.953125 175.542969 L 448.988281 181.652344 L 453.1875 184.175781 L 453.8125 184.800781 L 451.296875 186.28125 L 447.933594 188.585938 L 445.835938 190.0625 L 442.050781 192.589844 L 438.273438 194.691406 L 435.960938 195.746094 L 432.605469 196.585938 L 430.5 196.164062 L 428.394531 194.902344 L 424.410156 192.378906 L 414.328125 185.648438 L 410.332031 182.910156 L 406.132812 179.964844 L 402.355469 177.226562 L 399.414062 175.125 L 395.417969 172.183594 L 392.6875 170.074219 L 389.328125 167.554688 L 386.386719 165.234375 L 384.28125 163.550781 L 381.339844 161.238281 L 376.71875 157.453125 L 374.621094 155.765625 L 371.679688 153.246094 L 369.367188 151.355469 L 367.058594 149.246094 L 364.746094 147.351562 L 362.226562 145.039062 L 360.546875 143.566406 L 358.441406 141.667969 L 355.714844 139.144531 L 353.609375 137.253906 L 353.828125 136.40625 L 355.714844 135.148438 L 357.183594 134.09375 L 351.933594 135.78125 L 345.632812 137.671875 L 345.632812 171.964844 L 345.417969 179.753906 L 344.578125 181.019531 L 342.894531 182.488281 L 340.800781 183.753906 L 337.226562 185.226562 L 333.027344 186.695312 L 322.730469 189.640625 L 321.890625 189.640625 L 321.683594 189.226562 L 321.683594 182.707031 L 321.890625 180.804688 L 320.839844 179.964844 L 319.371094 178.28125 L 317.476562 176.179688 L 313.699219 171.550781 L 311.386719 168.605469 L 308.445312 164.816406 L 306.554688 162.292969 L 303.824219 158.503906 L 300.882812 154.296875 L 299.203125 151.769531 L 296.894531 148.195312 L 294.375 144.195312 L 292.476562 141.042969 L 289.753906 136.40625 L 286.390625 130.308594 L 282.609375 122.945312 L 279.667969 116.84375 L 276.9375 110.535156 L 276.726562 109.691406 L 267.058594 109.894531 L 257.398438 110.535156 L 248.996094 111.164062 L 248.78125 112.214844 L 244.582031 122.105469 L 242.691406 126.523438 L 242.910156 127.785156 L 246.476562 133.679688 L 249.207031 138.09375 L 251.308594 141.246094 L 254.460938 145.875 L 257.191406 149.667969 L 260.132812 153.660156 L 263.074219 157.453125 L 265.378906 160.394531 L 268.324219 163.976562 L 272.105469 168.390625 L 271.890625 169.445312 L 269.164062 171.550781 L 263.914062 174.914062 L 260.132812 177.015625 L 256.769531 178.703125 L 253.617188 179.964844 L 251.097656 180.597656 L 249.628906 180.597656 L 247.945312 179.117188 L 246.054688 177.015625 L 244.167969 174.707031 L 241.222656 171.128906 L 238.699219 167.976562 L 236.808594 165.445312 L 233.453125 161.027344 L 231.140625 157.664062 L 228.613281 154.085938 L 225.890625 149.878906 L 225.46875 149.246094 L 223.367188 149.667969 L 213.496094 152.191406 L 212.019531 152.402344 L 212.652344 150.503906 L 214.125 147.351562 L 217.488281 139.777344 L 218.328125 137.671875 L 216.015625 133.464844 L 213.496094 128.835938 L 211.183594 124.421875 L 208.875 119.582031 L 208.242188 117.683594 L 200.46875 119.363281 L 197.527344 120.003906 L 196.269531 120.003906 L 196.476562 118.734375 L 197.949219 117.265625 L 201.304688 114.742188 L 204.042969 113.054688 L 204.878906 112.636719 L 205.511719 112.636719 L 204.667969 110.324219 L 204.667969 109.691406 L 195.21875 109.894531 L 187.867188 110.324219 L 176.941406 111.164062 L 176.308594 113.054688 L 170.007812 127.785156 L 166.652344 135.359375 L 163.914062 141.464844 L 162.867188 143.566406 L 161.394531 145.25 L 158.457031 146.929688 L 155.515625 148.195312 L 151.105469 149.667969 L 143.746094 151.558594 L 140.804688 152.402344 L 139.96875 152.402344 L 140.179688 151.355469 L 143.332031 144.40625 L 147.109375 135.78125 L 149.632812 129.886719 L 152.574219 122.945312 L 154.460938 118.527344 L 155.71875 115.15625 L 156.140625 114.109375 L 153.625 114.320312 L 142.910156 116.210938 L 132.828125 118.316406 L 125.46875 120.003906 L 124.210938 120.003906 L 124 119.160156 L 125.265625 117.683594 L 128.628906 115.15625 L 131.570312 113.265625 L 134.714844 111.582031 L 139.125 109.894531 L 143.117188 108.636719 L 151.941406 106.535156 L 159.714844 104.851562 L 160.347656 103.796875 L 162.234375 98.957031 L 164.757812 92.4375 L 167.910156 84.023438 L 171.054688 75.394531 L 173.792969 67.816406 L 176.730469 59.402344 L 179.25 51.828125 L 182.824219 40.890625 L 184.921875 34.15625 L 185.96875 32.476562 L 187.867188 31 L 193.117188 28.261719 L 200.046875 25.535156 L 204.464844 24.054688 Z M 311.597656 63.40625 L 308.65625 63.824219 L 305.300781 65.503906 L 301.726562 67.816406 L 297.941406 69.925781 L 295.839844 70.976562 L 292.476562 72.242188 L 291.011719 72.664062 L 291.222656 74.132812 L 292.90625 79.394531 L 295.628906 87.175781 L 298.785156 95.175781 L 299.835938 97.699219 L 309.917969 97.699219 L 319.792969 97.90625 L 318.949219 85.492188 L 317.691406 69.503906 L 317.0625 63.824219 L 316.433594 63.609375 Z M 191.855469 72.875 L 189.550781 79.183594 L 186.816406 86.339844 L 184.503906 92.226562 L 181.769531 99.167969 L 180.933594 101.273438 L 185.132812 100.855469 L 196.269531 99.589844 L 200.265625 99.167969 L 195.21875 84.023438 L 192.273438 73.710938 Z M 264.117188 72.875 L 262.4375 77.082031 L 259.292969 85.492188 L 255.296875 95.59375 L 253.195312 100.855469 L 253.195312 101.273438 L 260.765625 100.433594 L 272.3125 99.167969 L 271.683594 96.855469 L 268.949219 89.066406 L 266.222656 80.230469 L 264.542969 74.132812 L 264.332031 72.875 Z M 342.691406 75.816406 L 342.691406 78.128906 L 344.160156 102.746094 L 344.785156 118.949219 L 345.210938 131.363281 L 350.667969 130.308594 L 359.914062 128.203125 L 365.800781 126.734375 L 371.886719 124.84375 L 376.089844 123.15625 L 380.503906 120.839844 L 381.765625 120.003906 L 385.757812 119.160156 L 387.433594 118.316406 L 387.222656 117.476562 L 385.546875 116.421875 L 383.859375 115.585938 L 381.765625 112.003906 L 380.714844 110.746094 L 380.292969 110.746094 L 379.871094 109.894531 L 376.304688 106.320312 L 374.621094 104.851562 L 371.679688 101.90625 L 370 100.433594 L 363.695312 94.539062 L 360.546875 91.386719 L 358.863281 89.914062 L 354.664062 85.707031 L 352.980469 84.234375 L 348.78125 80.445312 L 346.46875 78.550781 L 343.324219 76.027344 Z M 319.582031 101.695312 L 315.585938 104.21875 L 310.964844 106.742188 L 306.976562 108.425781 L 305.082031 109.269531 L 306.765625 112.636719 L 309.078125 117.476562 L 311.597656 122.105469 L 314.328125 126.945312 L 318.324219 133.679688 L 321.265625 137.886719 L 321.472656 137.253906 L 321.050781 122.316406 L 320.214844 105.0625 L 320.003906 101.695312 Z M 116.65625 204.160156 L 120.222656 204.371094 L 123.582031 205.214844 L 126.523438 206.683594 L 128.628906 208.367188 L 130.515625 210.683594 L 131.773438 212.785156 L 133.25 216.785156 L 134.085938 220.574219 L 134.507812 223.933594 L 134.714844 226.886719 L 134.714844 234.667969 L 134.085938 244.558594 L 133.460938 252.554688 L 133.25 256.761719 L 132.40625 258.230469 L 130.515625 259.914062 L 127.152344 261.601562 L 122.949219 263.285156 L 116.019531 265.386719 L 109.71875 267.066406 L 109.507812 266.863281 L 109.507812 263.492188 L 110.554688 248.765625 L 110.769531 244.347656 L 110.769531 235.722656 L 110.351562 230.882812 L 109.296875 226.464844 L 107.828125 223.097656 L 105.933594 219.9375 L 104.464844 218.46875 L 102.578125 217.625 L 100.6875 217.625 L 98.582031 218.675781 L 97.113281 219.9375 L 95.433594 222.253906 L 93.328125 225.621094 L 90.605469 231.304688 L 88.292969 236.773438 L 85.984375 242.457031 L 82.613281 251.078125 L 79.679688 259.078125 L 76.738281 267.496094 L 73.378906 278.011719 L 70.222656 289.164062 L 67.277344 300.941406 L 65.601562 308.730469 L 65.390625 309.152344 L 71.484375 306.625 L 77.789062 303.890625 L 91.234375 297.582031 L 97.113281 294.84375 L 104.253906 291.6875 L 110.140625 289.375 L 114.972656 287.691406 L 119.589844 286.222656 L 125.6875 284.742188 L 127.78125 284.113281 L 131.773438 282.007812 L 138.710938 278.855469 L 142.695312 277.167969 L 147.742188 275.277344 L 154.046875 273.171875 L 160.765625 271.492188 L 168.746094 270.015625 L 175.050781 269.175781 L 183.449219 266.863281 L 184.296875 267.066406 L 184.503906 268.546875 L 188.496094 268.332031 L 190.386719 267.699219 L 196.058594 264.753906 L 200.679688 262.65625 L 204.246094 261.179688 L 209.5 259.496094 L 215.382812 258.023438 L 218.957031 257.394531 L 225.679688 256.761719 L 228.410156 256.761719 L 231.554688 255.917969 L 232.40625 256.128906 L 232.609375 257.394531 L 235.339844 257.816406 L 238.914062 258.65625 L 243.113281 260.125 L 246.890625 261.8125 L 250.886719 263.914062 L 254.460938 266.230469 L 258.027344 268.753906 L 260.96875 271.070312 L 263.914062 273.59375 L 266.222656 275.484375 L 269.375 278.433594 L 272.105469 280.960938 L 273.574219 282.429688 L 274.207031 282.851562 L 274.207031 283.273438 L 275.046875 283.6875 L 277.992188 286.636719 L 279.667969 288.113281 L 281.136719 289.582031 L 282.820312 291.054688 L 285.132812 292.953125 L 288.488281 295.683594 L 290.800781 297.582031 L 293.53125 300.105469 L 296.050781 302.84375 L 298.15625 305.996094 L 299.203125 308.730469 L 299.414062 309.574219 L 299.414062 312.515625 L 298.574219 314.835938 L 297.730469 316.09375 L 296.269531 317.777344 L 293.328125 319.878906 L 289.964844 321.773438 L 284.285156 324.507812 L 278.40625 327.246094 L 270 330.824219 L 272.738281 333.5625 L 274.417969 335.03125 L 276.726562 337.136719 L 278.40625 338.605469 L 280.503906 340.496094 L 282.820312 342.398438 L 285.96875 345.125 L 288.910156 347.65625 L 291.222656 349.550781 L 294.582031 352.285156 L 296.894531 354.175781 L 302.777344 358.804688 L 305.503906 360.910156 L 309.917969 364.28125 L 313.910156 367.21875 L 321.472656 372.691406 L 326.300781 376.054688 L 335.332031 382.160156 L 344.371094 388.054688 L 345.417969 388.46875 L 345.417969 389.101562 L 343.113281 390.363281 L 338.90625 393.316406 L 333.238281 397.101562 L 327.988281 399.835938 L 324.835938 400.675781 L 323.15625 400.675781 L 320.417969 399.203125 L 316.851562 396.890625 L 312.644531 394.152344 L 305.082031 389.101562 L 300.25 385.734375 L 296.683594 383.214844 L 294.375 381.527344 L 291.429688 379.421875 L 287.441406 376.476562 L 279.457031 370.378906 L 276.726562 368.273438 L 274.417969 366.382812 L 271.054688 363.644531 L 268.949219 361.964844 L 265.378906 359.019531 L 262.4375 356.492188 L 260.132812 354.59375 L 258.027344 352.703125 L 255.71875 350.808594 L 252.777344 348.074219 L 251.097656 346.605469 L 248.578125 344.289062 L 246.265625 342.183594 L 245.214844 341.128906 L 246.054688 340.292969 L 248.78125 338.394531 L 238.914062 341.34375 L 237.230469 341.761719 L 237.441406 351.652344 L 237.441406 375.425781 L 237.230469 383.84375 L 236.183594 385.523438 L 234.5 386.789062 L 231.140625 388.46875 L 228.199219 389.738281 L 223.578125 391.207031 L 214.753906 393.730469 L 213.707031 393.945312 L 213.496094 393.519531 L 213.496094 360.277344 L 213.074219 339.449219 L 212.441406 321.984375 L 211.390625 302.414062 L 210.34375 287.058594 L 210.34375 286.003906 L 208.242188 286.636719 L 205.933594 287.269531 L 203.832031 287.269531 L 202.152344 286.425781 L 198.996094 284.742188 L 194.585938 283.0625 L 189.964844 281.796875 L 185.96875 280.960938 L 186.390625 282.851562 L 187.867188 291.265625 L 189.550781 299.683594 L 192.273438 311.253906 L 195.21875 321.566406 L 197.527344 328.933594 L 199.839844 335.664062 L 201.9375 341.34375 L 201.9375 342.605469 L 199.417969 344.921875 L 195.636719 347.023438 L 190.386719 349.550781 L 185.554688 351.441406 L 182.191406 352.496094 L 178.828125 353.125 L 177.992188 352.074219 L 175.050781 344.074219 L 171.273438 332.507812 L 169.378906 325.984375 L 166.441406 314.203125 L 164.546875 305.363281 L 162.867188 296.105469 L 161.394531 285.792969 L 160.765625 280.539062 L 160.765625 279.484375 L 155.515625 280.113281 L 148.792969 281.164062 L 143.542969 282.429688 L 139.546875 283.6875 L 137.449219 284.535156 L 138.078125 284.953125 L 141.4375 286.636719 L 143.542969 288.746094 L 145.222656 291.898438 L 145.851562 294.632812 L 145.851562 298.636719 L 145.011719 302.84375 L 143.542969 307.050781 L 140.601562 312.726562 L 137.027344 318.613281 L 134.714844 322.40625 L 130.9375 328.085938 L 128.628906 331.457031 L 125.890625 335.234375 L 123.582031 338.394531 L 120.636719 342.183594 L 118.328125 345.125 L 115.808594 348.074219 L 113.496094 350.808594 L 110.976562 353.757812 L 108.039062 356.914062 L 106.152344 359.019531 L 104.464844 360.695312 L 103 362.378906 L 96.0625 369.324219 L 94.382812 370.800781 L 92.703125 372.480469 L 91.019531 373.953125 L 88.292969 376.476562 L 85.984375 378.375 L 83.667969 380.472656 L 80.726562 382.792969 L 77.15625 385.734375 L 73.792969 388.265625 L 69.804688 391.207031 L 66.023438 393.945312 L 58.457031 398.992188 L 54.050781 401.730469 L 51.316406 403.410156 L 46.695312 406.144531 L 40.820312 409.085938 L 37.027344 410.566406 L 32.40625 411.824219 L 30.734375 412.035156 L 25.265625 412.035156 L 22.746094 411.40625 L 19.382812 409.71875 L 17.078125 408.039062 L 14.347656 405.511719 L 12.457031 403.199219 L 10.351562 400.042969 L 8.042969 395.625 L 5.941406 390.15625 L 4.46875 385.316406 L 3.210938 379.847656 L 1.945312 372.691406 L 0.691406 361.746094 L 0.484375 358.804688 L 0.269531 358.171875 L 0.269531 343.445312 L 1.527344 339.660156 L 3.421875 336.085938 L 6.355469 332.929688 L 8.460938 331.457031 L 11.609375 329.769531 L 14.769531 328.714844 L 18.546875 327.878906 L 22.113281 327.453125 L 30.941406 327.453125 L 36.824219 328.085938 L 43.753906 329.347656 L 50.269531 331.027344 L 58.25 333.765625 L 63.921875 336.289062 L 64.34375 337.136719 L 61.820312 338.394531 L 58.25 340.917969 L 54.050781 343.867188 L 49.847656 346.390625 L 46.695312 347.863281 L 44.597656 348.496094 L 42.078125 348.496094 L 39.765625 347.445312 L 33.671875 344.5 L 27.792969 342.183594 L 23.167969 340.714844 L 23.378906 344.5 L 24.429688 352.285156 L 26.109375 361.121094 L 27.578125 368.0625 L 29.261719 373.953125 L 31.570312 380.054688 L 34.511719 386.164062 L 37.246094 390.996094 L 40.390625 396.046875 L 42.492188 398.992188 L 43.964844 400.25 L 45.222656 400.464844 L 47.113281 399.414062 L 49.429688 397.523438 L 52.160156 395.203125 L 55.515625 392.683594 L 59.089844 389.738281 L 61.402344 387.835938 L 67.277344 382.792969 L 70.640625 379.632812 L 72.742188 377.742188 L 76.316406 374.375 L 80.519531 370.164062 L 81.988281 368.488281 L 83.878906 366.585938 L 84.089844 366.171875 L 84.511719 366.171875 L 84.929688 365.328125 L 88.292969 361.746094 L 90.183594 359.433594 L 92.074219 357.335938 L 93.960938 355.015625 L 96.691406 351.652344 L 99.003906 348.707031 L 101.523438 345.554688 L 103.835938 342.398438 L 106.570312 338.605469 L 109.085938 335.03125 L 111.816406 330.824219 L 114.339844 326.824219 L 116.4375 323.039062 L 118.75 318.613281 L 120.636719 313.355469 L 121.691406 309.363281 L 122.113281 306.203125 L 122.113281 303.679688 L 121.488281 300.734375 L 120.433594 298.636719 L 118.960938 297.363281 L 116.4375 296.316406 L 114.972656 296.105469 L 112.027344 296.105469 L 108.875 296.527344 L 103.628906 297.996094 L 99.214844 299.683594 L 94.382812 301.789062 L 91.019531 303.46875 L 87.03125 305.363281 L 83.042969 307.464844 L 77.996094 309.777344 L 71.273438 312.515625 L 62.660156 315.671875 L 58.457031 317.144531 L 48.164062 320.722656 L 43.753906 321.984375 L 41.445312 322.191406 L 41.445312 320.515625 L 43.128906 312.726562 L 45.855469 301.789062 L 48.585938 292.320312 L 50.476562 286.222656 L 52.996094 278.644531 L 55.726562 270.648438 L 59.511719 260.335938 L 62.875 251.289062 L 65.183594 245.402344 L 67.910156 239.085938 L 70.222656 234.457031 L 73.378906 229.414062 L 75.472656 226.464844 L 78.210938 223.308594 L 79.679688 221.625 L 80.101562 221.625 L 80.304688 220.992188 L 84.929688 217.203125 L 88.078125 215.097656 L 91.234375 213.207031 L 96.488281 210.265625 L 102.359375 207.53125 L 106.570312 206.054688 L 110.140625 205.003906 L 113.917969 204.371094 Z M 201.726562 267.699219 L 200.046875 268.121094 L 200.046875 268.332031 L 207.191406 268.964844 L 208.875 269.175781 L 208.875 268.121094 L 206.984375 267.699219 Z M 234.5 279.90625 L 234.5 282.429688 L 235.761719 303.679688 L 236.183594 311.882812 L 237.023438 335.453125 L 238.699219 335.234375 L 249.207031 332.929688 L 255.507812 331.457031 L 261.179688 329.769531 L 264.964844 328.503906 L 269.796875 326.398438 L 272.941406 324.507812 L 274.417969 323.875 L 277.773438 323.246094 L 279.03125 322.617188 L 279.25 321.984375 L 278.40625 321.144531 L 275.675781 319.667969 L 273.574219 316.09375 L 264.964844 307.464844 L 264.542969 307.464844 L 264.117188 306.625 L 262.4375 305.15625 L 258.863281 301.789062 L 256.769531 299.894531 L 253.195312 296.316406 L 251.519531 294.84375 L 247.945312 291.265625 L 246.265625 289.796875 L 243.113281 286.847656 L 241.433594 285.375 L 239.335938 283.484375 L 236.394531 281.164062 Z M 234.5 279.90625 "/>
<path style=" stroke:none;fill-rule:nonzero;fill:rgb(99.607843%,99.607843%,99.607843%);fill-opacity:1;" d="M 645.40625 0.0703125 L 651.5 0.0703125 L 655.699219 1.335938 L 658.007812 2.597656 L 660.109375 4.277344 L 662.003906 6.59375 L 663.675781 9.75 L 664.730469 12.90625 L 665.570312 16.695312 L 666.203125 23.214844 L 666.203125 29.734375 L 665.570312 39.835938 L 664.941406 47.199219 L 664.730469 52.460938 L 663.894531 54.144531 L 662.417969 55.40625 L 660.320312 56.667969 L 656.535156 58.347656 L 649.609375 60.664062 L 642.042969 62.773438 L 640.996094 62.773438 L 640.996094 58.980469 L 642.042969 43.835938 L 642.253906 39.835938 L 642.253906 31.835938 L 641.835938 27.214844 L 640.996094 23.003906 L 639.3125 19.007812 L 637.421875 15.847656 L 635.953125 14.378906 L 634.273438 13.542969 L 633.011719 13.324219 L 631.332031 13.746094 L 629.023438 15.433594 L 627.546875 17.117188 L 625.449219 20.273438 L 623.136719 24.683594 L 620.402344 31 L 617.253906 38.785156 L 614.109375 46.785156 L 611.164062 54.773438 L 608.007812 63.824219 L 605.28125 72.445312 L 602.550781 81.710938 L 599.820312 92.015625 L 597.085938 104.21875 L 597.085938 104.851562 L 603.394531 102.328125 L 609.058594 99.800781 L 627.96875 90.964844 L 635.53125 87.597656 L 643.09375 84.65625 L 650.867188 82.132812 L 656.957031 80.65625 L 661.367188 80.023438 L 665.570312 80.023438 L 669.144531 80.65625 L 672.503906 82.335938 L 674.609375 84.234375 L 675.867188 86.125 L 676.703125 88.015625 L 677.335938 90.964844 L 677.335938 94.125 L 676.496094 98.535156 L 675.03125 102.746094 L 672.71875 107.375 L 669.777344 112.429688 L 667.039062 116.84375 L 665.570312 119.160156 L 660.53125 126.734375 L 658.007812 130.105469 L 655.910156 133.046875 L 653.808594 135.78125 L 649.1875 141.667969 L 646.667969 144.617188 L 644.773438 146.929688 L 642.671875 149.246094 L 641.199219 150.933594 L 639.3125 153.035156 L 636.789062 155.765625 L 635.109375 157.453125 L 633.644531 159.136719 L 630.28125 162.496094 L 629.859375 162.496094 L 629.859375 162.925781 L 628.8125 163.976562 L 626.285156 166.289062 L 622.71875 169.65625 L 620.617188 171.550781 L 614.734375 176.59375 L 612.421875 178.492188 L 609.058594 181.226562 L 604.859375 184.378906 L 601.289062 187.117188 L 597.296875 189.855469 L 595.199219 191.324219 L 592.675781 193.011719 L 588.472656 195.746094 L 583.4375 198.898438 L 579.863281 201 L 575.242188 203.535156 L 570.617188 205.628906 L 566.207031 207.109375 L 563.269531 207.734375 L 561.796875 207.945312 L 557.175781 207.945312 L 553.8125 207.109375 L 550.449219 205.425781 L 548.355469 203.738281 L 545.832031 201.425781 L 543.308594 198.273438 L 541.628906 195.535156 L 540.367188 193.433594 L 538.898438 190.0625 L 537.421875 186.28125 L 536.164062 182.066406 L 534.277344 183.121094 L 530.5 185.433594 L 525.449219 188.171875 L 522.304688 189.640625 L 518.941406 190.90625 L 516.421875 191.535156 L 514.53125 191.535156 L 513.273438 190.0625 L 507.390625 181.226562 L 502.972656 174.496094 L 499.828125 169.65625 L 497.511719 166.074219 L 494.574219 161.449219 L 491.421875 156.398438 L 488.058594 150.933594 L 484.492188 145.039062 L 481.96875 140.832031 L 479.234375 136.203125 L 476.085938 130.730469 L 473.980469 126.945312 L 471.042969 121.472656 L 468.523438 116.632812 L 466.003906 112.003906 L 463.269531 107.167969 L 459.914062 101.484375 L 458.230469 98.121094 L 457.175781 96.433594 L 457.175781 96.015625 L 455.289062 96.015625 L 453.609375 96.855469 L 452.140625 98.957031 L 450.667969 102.328125 L 448.777344 107.792969 L 447.933594 109.058594 L 446.257812 110.535156 L 445.203125 111.164062 L 445.414062 115.789062 L 446.257812 129.675781 L 446.671875 136.40625 L 446.671875 139.355469 L 445.835938 140.832031 L 444.15625 142.300781 L 440.582031 144.195312 L 437.4375 145.460938 L 430.5 147.773438 L 423.5625 149.667969 L 422.9375 149.453125 L 422.304688 140.410156 L 421.46875 126.3125 L 419.785156 103.164062 L 418.105469 83.390625 L 416.421875 65.503906 L 414.742188 49.511719 L 414.113281 43.835938 L 414.113281 42.359375 L 414.953125 41.101562 L 416.84375 39.414062 L 421.253906 37.097656 L 426.722656 34.996094 L 433.019531 33.105469 L 437.4375 32.054688 L 437.851562 32.265625 L 438.476562 37.316406 L 440.582031 57.511719 L 442.269531 75.601562 L 443.527344 90.753906 L 443.527344 93.273438 L 446.886719 91.175781 L 450.878906 88.863281 L 455.289062 86.339844 L 458.441406 84.65625 L 462.433594 82.765625 L 466.421875 81.285156 L 469.78125 80.445312 L 475.242188 80.445312 L 477.140625 81.285156 L 479.234375 82.765625 L 480.917969 84.65625 L 482.390625 86.972656 L 484.910156 91.804688 L 487.425781 97.277344 L 489.949219 101.90625 L 493.105469 107.589844 L 498.984375 117.894531 L 501.714844 122.523438 L 504.230469 126.945312 L 508.648438 134.3125 L 511.378906 138.941406 L 514.109375 143.355469 L 520.414062 153.457031 L 523.773438 158.714844 L 526.925781 163.550781 L 530.703125 169.234375 L 534.277344 174.707031 L 533.855469 171.335938 L 533.011719 165.867188 L 531.964844 155.976562 L 531.753906 153.457031 L 531.546875 146.507812 L 528.601562 146.507812 L 524.398438 145.460938 L 521.039062 143.984375 L 517.886719 142.09375 L 515.164062 139.988281 L 513.476562 138.515625 L 512.011719 137.253906 L 512.011719 136.835938 L 511.589844 136.835938 L 510.746094 135.359375 L 508.855469 133.046875 L 506.757812 129.886719 L 504.65625 126.3125 L 502.136719 121.472656 L 499.195312 114.109375 L 497.722656 109.691406 L 496.046875 103.59375 L 494.574219 96.015625 L 493.730469 88.863281 L 493.730469 84.023438 L 494.574219 82.765625 L 496.675781 80.863281 L 500.246094 78.972656 L 506.125 76.871094 L 516.628906 73.925781 L 517.472656 73.925781 L 517.886719 81.710938 L 518.519531 87.386719 L 519.78125 93.703125 L 521.460938 99.386719 L 523.355469 104.429688 L 525.871094 109.894531 L 528.8125 114.953125 L 532.175781 120.003906 L 534.066406 122.523438 L 536.796875 125.890625 L 538.691406 127.996094 L 540.582031 126.945312 L 543.523438 125.476562 L 544.992188 124.84375 L 545.414062 121.265625 L 545.832031 113.476562 L 545.832031 105.484375 L 545.414062 99.589844 L 544.566406 93.070312 L 542.890625 84.65625 L 542.050781 81.496094 L 542.050781 80.230469 L 543.101562 78.761719 L 545.195312 77.285156 L 548.558594 75.394531 L 553.179688 73.296875 L 558.4375 71.394531 L 562.84375 70.136719 L 563.894531 69.925781 L 565.578125 69.925781 L 566 70.554688 L 567.257812 76.027344 L 568.523438 82.546875 L 569.359375 88.863281 L 569.777344 93.070312 L 569.988281 97.699219 L 569.988281 101.695312 L 569.777344 106.320312 L 568.941406 113.265625 L 567.890625 118.734375 L 566.417969 123.789062 L 568.726562 123.996094 L 576.289062 125.476562 L 581.75 126.945312 L 589.316406 129.472656 L 595.410156 132.207031 L 595.832031 133.046875 L 593.941406 133.886719 L 591.625 135.359375 L 588.472656 137.671875 L 584.0625 140.613281 L 581.121094 142.300781 L 577.972656 143.773438 L 575.867188 144.40625 L 573.773438 144.40625 L 571.667969 143.566406 L 566.207031 140.832031 L 560.53125 138.515625 L 556.964844 137.253906 L 555.699219 137.460938 L 554.863281 138.09375 L 554.863281 140.832031 L 555.699219 147.140625 L 557.589844 157.242188 L 558.859375 163.34375 L 560.328125 168.605469 L 561.796875 172.816406 L 563.472656 176.8125 L 566 182.066406 L 568.726562 186.90625 L 571.878906 191.957031 L 573.980469 194.902344 L 575.242188 195.953125 L 575.867188 196.375 L 576.921875 196.164062 L 579.027344 194.902344 L 581.332031 193.011719 L 583.859375 190.90625 L 587.425781 188.171875 L 591 185.226562 L 593.722656 182.910156 L 594.980469 181.855469 L 595.410156 181.855469 L 595.410156 181.433594 L 597.71875 179.546875 L 600.660156 176.8125 L 602.339844 175.335938 L 605.492188 172.386719 L 607.171875 170.707031 L 607.59375 170.707031 L 607.804688 170.074219 L 608.855469 169.234375 L 610.113281 167.757812 L 610.535156 167.757812 L 610.746094 167.125 L 611.164062 167.125 L 611.582031 166.289062 L 614.734375 163.128906 L 616.203125 161.449219 L 618.511719 158.921875 L 620.402344 156.820312 L 622.929688 153.875 L 624.816406 151.558594 L 627.757812 147.984375 L 629.445312 145.875 L 631.753906 142.933594 L 636.789062 136.203125 L 639.3125 132.625 L 643.511719 126.3125 L 645.828125 122.523438 L 648.347656 118.105469 L 650.65625 113.265625 L 651.921875 109.691406 L 652.96875 106.117188 L 653.59375 101.695312 L 653.390625 98.535156 L 652.757812 96.226562 L 651.5 94.125 L 649.609375 92.859375 L 648.136719 92.226562 L 646.875 92.015625 L 642.882812 92.015625 L 639.3125 92.648438 L 634.273438 94.125 L 630.070312 95.808594 L 625.871094 97.699219 L 619.777344 100.644531 L 613.476562 103.796875 L 607.382812 106.535156 L 599.191406 109.691406 L 592.886719 112.003906 L 580.066406 116.421875 L 575.242188 117.894531 L 573.140625 118.105469 L 572.925781 117.894531 L 572.925781 116.210938 L 574.816406 107.375 L 576.714844 99.800781 L 579.863281 88.652344 L 583.640625 76.65625 L 586.792969 67.613281 L 588.6875 62.351562 L 591.414062 54.988281 L 593.722656 48.675781 L 597.296875 39.625 L 599.191406 35.425781 L 600.867188 32.054688 L 602.972656 28.054688 L 605.070312 24.902344 L 607.59375 21.53125 L 610.113281 18.585938 L 612.632812 16.066406 L 614.945312 14.167969 L 618.726562 11.433594 L 622.929688 8.914062 L 626.707031 6.804688 L 630.070312 5.121094 L 634.273438 3.226562 L 639.941406 1.335938 Z M 399.617188 267.914062 L 401.085938 268.121094 L 401.300781 268.753906 L 400.25 270.015625 L 396.472656 272.75 L 392.054688 275.484375 L 388.0625 277.386719 L 384.492188 278.644531 L 380.082031 279.695312 L 333.660156 285.375 L 332.1875 285.375 L 332.605469 287.691406 L 334.707031 301.996094 L 335.96875 309.363281 L 335.96875 310.410156 L 339.75 308.941406 L 351.089844 304.945312 L 358.027344 302.414062 L 364.953125 300.105469 L 366.425781 300.316406 L 367.058594 300.941406 L 366.425781 301.996094 L 365.167969 303.46875 L 362.4375 305.15625 L 355.296875 308.730469 L 349.621094 311.046875 L 343.527344 313.148438 L 337.226562 315.460938 L 337.4375 317.566406 L 339.539062 327.453125 L 340.800781 332.507812 L 342.269531 336.503906 L 344.160156 340.082031 L 345.417969 341.761719 L 345.210938 343.65625 L 344.785156 344.703125 L 346.6875 343.65625 L 350.886719 340.917969 L 360.125 335.03125 L 364.535156 332.292969 L 370.210938 329.347656 L 373.777344 328.085938 L 376.304688 327.667969 L 379.246094 327.667969 L 380.082031 328.085938 L 379.871094 328.933594 L 377.976562 330.402344 L 374.410156 332.714844 L 368.320312 336.714844 L 364.746094 339.027344 L 359.496094 342.398438 L 354.875 345.125 L 351.089844 347.234375 L 346.6875 349.550781 L 340.800781 352.285156 L 336.601562 353.964844 L 332.1875 355.226562 L 330.5 355.445312 L 326.933594 355.445312 L 324.617188 354.8125 L 322.308594 353.542969 L 319.792969 351.019531 L 317.898438 347.65625 L 316.433594 343.445312 L 315.167969 337.769531 L 313.492188 328.085938 L 311.808594 319.042969 L 309.710938 306.203125 L 307.609375 290.429688 L 307.394531 287.691406 L 304.667969 288.113281 L 299.835938 289.375 L 293.328125 291.898438 L 289.964844 292.953125 L 288.910156 292.953125 L 288.699219 292.109375 L 290.382812 290.214844 L 293.53125 287.894531 L 296.683594 286.003906 L 299.625 284.320312 L 304.878906 282.007812 L 309.5 280.328125 L 317.0625 278.011719 L 323.992188 276.332031 L 333.863281 274.433594 L 344.160156 272.960938 L 355.921875 271.703125 L 379.449219 269.804688 L 391.21875 268.753906 Z M 399.617188 267.914062 "/>
</g>
</svg>
