<?xml version="1.0" encoding="UTF-8"?>
<svg xmlns="http://www.w3.org/2000/svg" xmlns:xlink="http://www.w3.org/1999/xlink" width="587px" height="285px" viewBox="0 0 587 285" version="1.1">
<g id="surface1">
<path style=" stroke:none;fill-rule:nonzero;fill:rgb(99.607843%,99.607843%,99.607843%);fill-opacity:1;" d="M 499.722656 139.917969 L 500.296875 140.0625 L 500.871094 141.207031 L 502.304688 145.082031 L 504.597656 151.824219 L 506.316406 157.277344 L 506.316406 157.5625 L 507.75 157.992188 L 513.050781 160.574219 L 516.347656 162.152344 L 520.648438 164.304688 L 523.371094 165.738281 L 527.382812 167.890625 L 529.675781 169.183594 L 532.253906 170.617188 L 535.695312 172.625 L 538.847656 174.492188 L 541.425781 176.070312 L 544.148438 177.789062 L 547.734375 180.085938 L 552.460938 183.242188 L 557.621094 186.828125 L 560.199219 188.691406 L 562.921875 190.699219 L 568.082031 194.429688 L 570.519531 196.152344 L 572.8125 197.875 L 574.820312 199.453125 L 576.394531 200.742188 L 577.972656 202.175781 L 579.117188 203.179688 L 581.699219 205.765625 L 583.273438 207.773438 L 584.421875 209.351562 L 585.566406 211.359375 L 586.714844 214.085938 L 586.714844 214.65625 L 587 214.65625 L 587 221.257812 L 586.714844 221.257812 L 586.425781 222.546875 L 585.28125 224.84375 L 583.992188 226.707031 L 583.128906 227.710938 L 582.558594 228.285156 L 582.269531 228.285156 L 582.128906 228.714844 L 580.550781 230.007812 L 578.832031 231.296875 L 576.824219 232.589844 L 573.816406 234.3125 L 571.09375 235.601562 L 567.367188 237.179688 L 564.070312 238.472656 L 558.625 240.480469 L 553.179688 242.203125 L 545.296875 244.351562 L 539.277344 245.789062 L 530.679688 247.652344 L 521.078125 249.660156 L 512.191406 251.382812 L 505.167969 252.53125 L 499.007812 253.390625 L 483.671875 255.253906 L 480.234375 255.542969 L 475.503906 255.542969 L 472.636719 255.113281 L 470.058594 254.25 L 468.480469 253.246094 L 467.050781 251.957031 L 466.1875 250.808594 L 465.757812 249.519531 L 465.757812 247.941406 L 466.332031 246.074219 L 467.191406 244.496094 L 468.480469 242.773438 L 470.058594 241.054688 L 468.914062 240.910156 L 466.1875 240.625 L 464.039062 240.050781 L 461.746094 239.046875 L 460.027344 237.753906 L 458.738281 236.464844 L 457.304688 234.3125 L 456.445312 232.445312 L 456.300781 231.585938 L 455.441406 232.160156 L 453.578125 233.59375 L 451 235.171875 L 447.414062 237.035156 L 444.121094 238.328125 L 440.964844 239.332031 L 437.242188 240.191406 L 433.085938 240.765625 L 428.210938 240.765625 L 425.632812 240.335938 L 423.195312 239.332031 L 421.191406 238.042969 L 419.46875 236.320312 L 418.035156 234.167969 L 417.035156 231.871094 L 416.171875 228.574219 L 415.886719 226.277344 L 415.886719 221.542969 L 416.316406 218.246094 L 417.175781 214.800781 L 418.46875 211.789062 L 419.757812 209.492188 L 421.476562 207.199219 L 423.195312 205.332031 L 424.628906 204.042969 L 422.050781 204.328125 L 416.03125 205.332031 L 410.585938 206.480469 L 405.140625 207.773438 L 399.121094 209.351562 L 392.242188 211.359375 L 384.933594 213.652344 L 383.210938 214.226562 L 384.214844 223.550781 L 384.789062 230.726562 L 385.21875 238.183594 L 385.503906 246.363281 L 385.503906 257.695312 L 385.21875 265.441406 L 385.074219 268.023438 L 384.359375 269.457031 L 382.78125 270.605469 L 380.058594 271.898438 L 375.332031 273.476562 L 369.597656 275.050781 L 368.738281 275.339844 L 368.882812 274.765625 L 369.167969 264.582031 L 369.167969 253.679688 L 369.023438 248.082031 L 368.59375 239.761719 L 368.023438 232.304688 L 367.019531 222.835938 L 366.730469 220.683594 L 366.730469 219.824219 L 360.425781 221.972656 L 347.527344 226.277344 L 346.523438 226.566406 L 345.808594 226.566406 L 346.8125 229.578125 L 347.957031 232.589844 L 347.957031 233.59375 L 346.8125 234.742188 L 344.519531 236.175781 L 341.367188 237.753906 L 337.640625 239.332031 L 334.488281 240.335938 L 332.195312 240.765625 L 331.476562 239.621094 L 329.902344 235.316406 L 328.039062 229.863281 L 326.175781 223.695312 L 324.886719 218.816406 L 323.882812 214.800781 L 322.59375 208.917969 L 321.445312 202.609375 L 320.585938 196.871094 L 319.867188 191.132812 L 319.867188 190.558594 L 316.285156 190.988281 L 312.417969 191.5625 L 309.121094 192.277344 L 305.679688 193.28125 L 302.671875 194.574219 L 299.375 196.007812 L 297.082031 196.871094 L 295.21875 197.300781 L 294.074219 197.15625 L 293.929688 197.011719 L 293.929688 196.296875 L 294.648438 195.433594 L 296.652344 194.144531 L 298.085938 193.28125 L 301.523438 191.707031 L 301.957031 191.417969 L 294.359375 192.277344 L 275.585938 194.574219 L 274.726562 194.71875 L 275.871094 202.75 L 277.019531 209.78125 L 277.304688 211.503906 L 281.460938 210.066406 L 287.480469 207.914062 L 293.929688 205.621094 L 296.507812 204.757812 L 297.65625 204.617188 L 298.371094 205.046875 L 298.230469 205.621094 L 296.9375 207.054688 L 295.363281 208.058594 L 292.351562 209.492188 L 290.0625 210.640625 L 286.046875 212.21875 L 278.738281 214.800781 L 278.023438 215.089844 L 278.59375 218.246094 L 279.886719 224.269531 L 280.746094 227.425781 L 281.605469 229.578125 L 282.609375 231.585938 L 283.613281 233.019531 L 283.613281 234.023438 L 283.324219 235.027344 L 286.046875 233.308594 L 288.484375 231.730469 L 291.636719 229.722656 L 294.359375 228 L 297.226562 226.277344 L 300.234375 224.699219 L 302.527344 223.839844 L 304.679688 223.410156 L 306.828125 223.410156 L 307.402344 223.695312 L 307.113281 224.269531 L 305.679688 225.417969 L 302.957031 227.136719 L 300.808594 228.574219 L 295.078125 232.304688 L 292.066406 234.167969 L 288.339844 236.320312 L 283.613281 238.757812 L 279.886719 240.480469 L 277.734375 241.339844 L 274.582031 242.203125 L 273.4375 242.34375 L 271 242.34375 L 269.136719 241.769531 L 267.703125 240.910156 L 266.414062 239.621094 L 265.269531 237.753906 L 264.265625 235.316406 L 263.40625 232.304688 L 262.402344 226.566406 L 260.394531 215.664062 L 259.25 208.347656 L 258.246094 201.03125 L 257.816406 197.300781 L 257.816406 196.007812 L 254.089844 196.871094 L 251.796875 197.585938 L 248.929688 198.734375 L 246.351562 199.59375 L 245.203125 199.738281 L 245.0625 199.019531 L 246.636719 197.441406 L 249.648438 195.433594 L 252.226562 194 L 254.664062 192.851562 L 258.390625 191.417969 L 262.832031 189.984375 L 266.414062 188.980469 L 271.859375 187.832031 L 276.734375 186.972656 L 284.042969 185.96875 L 292.496094 185.105469 L 306.972656 183.957031 L 314.996094 183.242188 L 320.585938 182.667969 L 321.589844 182.8125 L 321.730469 183.242188 L 320.730469 184.390625 L 319.726562 185.105469 L 325.316406 184.101562 L 329.613281 183.527344 L 335.347656 181.949219 L 335.921875 182.09375 L 336.0625 183.097656 L 338.644531 182.953125 L 347.671875 182.953125 L 351.96875 183.382812 L 356.414062 184.246094 L 360.28125 185.535156 L 364.4375 187.546875 L 364.582031 187.976562 L 363.003906 188.835938 L 359.710938 191.132812 L 357.128906 192.851562 L 355.265625 194 L 352.972656 195.148438 L 350.824219 195.867188 L 349.390625 195.867188 L 348.101562 195.292969 L 345.953125 194.144531 L 342.941406 192.996094 L 339.789062 192.136719 L 337.066406 191.5625 L 337.351562 192.710938 L 338.5 199.308594 L 339.644531 204.902344 L 341.222656 211.644531 L 342.65625 216.808594 L 344.375 222.40625 L 345.523438 225.847656 L 346.09375 225.273438 L 347.097656 224.125 L 348.101562 223.121094 L 350.109375 221.832031 L 352.542969 220.683594 L 355.839844 219.535156 L 360.425781 218.101562 L 365.871094 216.234375 L 366.160156 216.234375 L 364.582031 206.625 L 363.148438 199.019531 L 361.714844 192.421875 L 361.714844 191.132812 L 362.289062 190.414062 L 364.152344 189.121094 L 367.160156 187.546875 L 371.175781 185.96875 L 374.328125 184.960938 L 376.621094 184.390625 L 377.625 184.246094 L 377.910156 184.53125 L 378.484375 187.402344 L 378.484375 187.832031 L 382.066406 186.539062 L 385.503906 185.535156 L 389.519531 184.53125 L 395.394531 183.382812 L 402.414062 182.378906 L 407.863281 181.808594 L 415.171875 181.234375 L 428.785156 180.515625 L 429.789062 180.515625 L 429.929688 181.089844 L 428.5 182.378906 L 425.777344 184.390625 L 422.621094 186.109375 L 420.1875 187.257812 L 417.605469 188.117188 L 415.601562 188.550781 L 412.019531 188.835938 L 405.140625 189.265625 L 395.539062 190.128906 L 386.367188 191.273438 L 380.917969 192.136719 L 379.773438 192.421875 L 379.917969 194.144531 L 381.207031 201.03125 L 382.496094 209.207031 L 382.640625 210.355469 L 383.210938 210.355469 L 388.945312 208.347656 L 395.105469 206.335938 L 399.980469 204.757812 L 406.140625 202.894531 L 412.304688 201.171875 L 418.46875 199.59375 L 424.054688 198.304688 L 427.351562 197.585938 L 430.648438 196.007812 L 432.65625 195.148438 L 437.8125 193.425781 L 440.535156 192.851562 L 442.972656 192.566406 L 445.550781 192.710938 L 448.417969 193.28125 L 450.570312 194.144531 L 452.574219 195.292969 L 454.4375 196.726562 L 456.015625 198.304688 L 457.445312 200.167969 L 458.738281 202.464844 L 459.882812 205.046875 L 460.601562 207.199219 L 460.886719 207.199219 L 461.171875 206.625 L 462.175781 205.476562 L 462.464844 205.476562 L 462.75 204.902344 L 464.328125 203.613281 L 466.046875 202.320312 L 468.625 200.597656 L 467.335938 200.742188 L 464.757812 201.316406 L 463.753906 201.316406 L 463.464844 201.03125 L 464.039062 200.027344 L 465.328125 198.734375 L 467.335938 197.300781 L 469.484375 196.152344 L 473.066406 194.71875 L 477.511719 193.28125 L 479.660156 192.851562 L 482.097656 192.566406 L 484.675781 192.710938 L 487.542969 193.28125 L 490.121094 194.289062 L 492.128906 195.578125 L 493.5625 196.726562 L 495.425781 198.589844 L 496.570312 200.167969 L 497.71875 202.035156 L 498.003906 202.609375 L 497.71875 199.882812 L 496.429688 191.847656 L 495.425781 186.539062 L 494.277344 181.089844 L 493.132812 176.355469 L 492.128906 172.339844 L 490.550781 166.601562 L 489.980469 165.023438 L 485.535156 163.015625 L 480.375 160.863281 L 474.644531 158.566406 L 469.34375 156.558594 L 464.183594 154.695312 L 458.019531 152.542969 L 458.308594 151.96875 L 460.742188 150.246094 L 463.035156 148.523438 L 465.902344 146.660156 L 468.195312 145.367188 L 469.914062 144.652344 L 471.777344 144.222656 L 473.066406 144.363281 L 478.226562 146.085938 L 483.816406 148.09375 L 484.390625 148.382812 L 484.246094 147.378906 L 484.820312 146.515625 L 486.253906 145.367188 L 488.546875 144.078125 L 490.839844 142.929688 L 494.132812 141.496094 L 497.574219 140.347656 Z M 510.902344 175.496094 L 512.476562 183.527344 L 513.769531 191.417969 L 514.914062 200.597656 L 515.632812 208.917969 L 515.917969 211.933594 L 516.777344 211.644531 L 521.9375 209.0625 L 525.949219 207.484375 L 528.960938 206.625 L 530.105469 206.625 L 529.960938 207.484375 L 529.101562 208.488281 L 526.808594 209.925781 L 524.085938 211.214844 L 520.359375 212.9375 L 516.347656 214.945312 L 516.203125 215.089844 L 516.203125 230.152344 L 515.632812 231.011719 L 514.484375 232.015625 L 512.191406 233.164062 L 509.183594 234.3125 L 506.03125 235.316406 L 500.871094 236.75 L 500.152344 236.894531 L 500.296875 235.746094 L 500.296875 231.730469 L 500.152344 226.277344 L 500.011719 224.125 L 499.292969 224.414062 L 498.863281 224.988281 L 497.71875 227.710938 L 496.429688 230.007812 L 494.851562 231.730469 L 493.5625 232.875 L 491.410156 234.3125 L 489.117188 235.601562 L 485.535156 237.324219 L 483.101562 238.328125 L 482.527344 239.046875 L 481.953125 240.625 L 481.953125 242.488281 L 482.8125 243.78125 L 483.960938 244.640625 L 485.535156 245.355469 L 487.6875 245.929688 L 490.410156 246.363281 L 492.128906 246.503906 L 501.015625 246.503906 L 505.457031 246.21875 L 511.046875 245.644531 L 517.496094 244.785156 L 524.660156 243.636719 L 532.683594 242.058594 L 538.132812 240.910156 L 548.878906 238.472656 L 556.761719 236.894531 L 560.199219 236.03125 L 563.640625 234.886719 L 565.933594 233.738281 L 567.652344 232.589844 L 568.941406 231.441406 L 570.234375 229.433594 L 570.804688 227.855469 L 570.949219 227.28125 L 570.949219 224.125 L 570.234375 221.113281 L 569.085938 218.386719 L 567.652344 216.09375 L 566.078125 214.085938 L 564.070312 211.933594 L 562.78125 210.640625 L 561.632812 209.636719 L 559.769531 208.058594 L 556.90625 205.90625 L 555.042969 204.472656 L 552.460938 202.609375 L 548.164062 199.308594 L 542.71875 195.292969 L 536.984375 191.273438 L 531.824219 187.832031 L 528.960938 185.96875 L 526.234375 184.246094 L 523.65625 182.667969 L 520.074219 180.515625 L 517.636719 179.082031 L 514.628906 177.359375 L 511.1875 175.496094 Z M 435.949219 202.320312 L 434.949219 203.753906 L 433.65625 206.625 L 432.796875 209.492188 L 432.226562 212.363281 L 432.082031 214.085938 L 432.082031 218.53125 L 432.511719 221.6875 L 433.226562 224.414062 L 434.085938 226.566406 L 435.089844 228.144531 L 436.378906 229.578125 L 437.671875 230.582031 L 439.535156 231.441406 L 442.6875 232.015625 L 443.546875 232.015625 L 444.261719 229.289062 L 444.835938 225.5625 L 444.980469 224.125 L 445.121094 220.253906 L 444.980469 217.238281 L 444.40625 214.085938 L 443.6875 211.789062 L 442.542969 209.351562 L 441.398438 207.484375 L 440.105469 205.765625 L 438.53125 204.042969 L 437.097656 202.894531 L 436.238281 202.320312 Z M 475.074219 202.320312 L 474.070312 203.898438 L 472.925781 206.335938 L 471.921875 209.636719 L 471.492188 211.644531 L 471.203125 214.65625 L 471.203125 218.101562 L 471.636719 221.398438 L 472.207031 223.839844 L 473.066406 226.132812 L 474.070312 227.855469 L 475.074219 229.148438 L 476.363281 230.292969 L 478.371094 231.296875 L 479.945312 231.730469 L 481.808594 232.015625 L 482.8125 231.441406 L 483.386719 229.433594 L 483.960938 225.992188 L 484.246094 222.976562 L 484.246094 218.816406 L 483.960938 215.949219 L 483.386719 213.367188 L 482.382812 210.640625 L 480.808594 207.773438 L 479.375 205.90625 L 477.796875 204.1875 L 476.078125 202.75 L 475.359375 202.320312 Z M 141.449219 15.828125 L 142.164062 15.972656 L 142.738281 20.417969 L 143.882812 27.878906 L 145.460938 35.769531 L 146.894531 41.792969 L 148.757812 48.535156 L 151.335938 56.425781 L 153.199219 61.449219 L 155.0625 66.039062 L 155.207031 66.613281 L 156.496094 66.46875 L 160.078125 66.324219 L 160.9375 64.316406 L 164.808594 53.988281 L 166.8125 48.394531 L 167.960938 45.238281 L 169.394531 40.933594 L 170.96875 36.488281 L 172.402344 31.894531 L 173.980469 27.160156 L 175.269531 23 L 176.128906 21.855469 L 178.707031 20.277344 L 181.429688 18.984375 L 186.304688 17.121094 L 189.027344 16.257812 L 190.746094 15.828125 L 191.320312 15.828125 L 191.75 18.699219 L 192.753906 25.726562 L 193.898438 32.039062 L 195.046875 37.347656 L 195.90625 40.933594 L 197.195312 45.8125 L 197.480469 46.816406 L 198.199219 46.527344 L 200.492188 45.09375 L 203.214844 43.515625 L 206.652344 41.652344 L 211.097656 39.644531 L 215.109375 38.207031 L 217.976562 37.347656 L 221.128906 36.628906 L 224.136719 36.199219 L 227.148438 35.914062 L 229.296875 35.914062 L 231.445312 35.339844 L 232.164062 35.480469 L 232.304688 36.34375 L 233.738281 36.488281 L 236.175781 37.058594 L 239.183594 38.066406 L 242.195312 39.355469 L 245.347656 41.078125 L 248.5 43.230469 L 251.222656 45.238281 L 253.230469 46.957031 L 254.804688 48.25 L 257.097656 50.402344 L 258.53125 51.691406 L 260.824219 53.84375 L 261.828125 54.847656 L 262.976562 55.851562 L 264.835938 57.71875 L 265.984375 58.722656 L 268.132812 60.585938 L 269.996094 62.023438 L 271.859375 63.601562 L 273.578125 65.175781 L 275.15625 66.753906 L 276.734375 68.90625 L 277.734375 71.203125 L 277.878906 71.777344 L 277.878906 73.929688 L 277.304688 75.507812 L 276.160156 77.085938 L 274.582031 78.375 L 272.433594 79.667969 L 268.132812 81.820312 L 264.121094 83.683594 L 259.820312 85.546875 L 257.960938 86.265625 L 257.960938 86.550781 L 259.25 87.84375 L 260.394531 88.847656 L 262.113281 90.425781 L 263.261719 91.429688 L 264.695312 92.722656 L 266.269531 94.011719 L 267.703125 95.304688 L 269.28125 96.59375 L 271.285156 98.316406 L 272.863281 99.605469 L 277.449219 103.335938 L 279.3125 104.769531 L 281.890625 106.78125 L 284.902344 109.074219 L 290.347656 113.089844 L 293.070312 114.957031 L 295.21875 116.535156 L 299.949219 119.691406 L 306.109375 123.851562 L 308.976562 125.574219 L 309.40625 126.003906 L 307.6875 127.007812 L 305.394531 128.585938 L 303.960938 129.589844 L 301.382812 131.308594 L 298.800781 132.746094 L 297.226562 133.460938 L 294.933594 134.035156 L 293.5 133.75 L 292.066406 132.886719 L 289.34375 131.167969 L 282.464844 126.578125 L 279.742188 124.710938 L 276.875 122.703125 L 274.296875 120.839844 L 272.289062 119.402344 L 269.566406 117.394531 L 267.703125 115.960938 L 265.410156 114.238281 L 263.40625 112.660156 L 261.972656 111.515625 L 259.964844 109.9375 L 256.8125 107.351562 L 255.378906 106.207031 L 253.375 104.484375 L 251.796875 103.191406 L 250.21875 101.757812 L 248.644531 100.46875 L 246.925781 98.890625 L 245.777344 97.886719 L 244.34375 96.59375 L 242.480469 94.871094 L 241.046875 93.582031 L 241.191406 93.007812 L 242.480469 92.148438 L 243.484375 91.429688 L 239.902344 92.578125 L 235.601562 93.867188 L 235.601562 117.25 L 235.460938 122.558594 L 234.886719 123.421875 L 233.738281 124.425781 L 232.304688 125.285156 L 229.871094 126.289062 L 227.003906 127.292969 L 219.980469 129.300781 L 219.410156 129.300781 L 219.265625 129.015625 L 219.265625 124.566406 L 219.410156 123.277344 L 218.691406 122.703125 L 217.6875 121.554688 L 216.398438 120.121094 L 213.820312 116.964844 L 212.242188 114.957031 L 210.238281 112.375 L 208.945312 110.652344 L 207.082031 108.070312 L 205.078125 105.203125 L 203.929688 103.480469 L 202.355469 101.042969 L 200.632812 98.316406 L 199.34375 96.164062 L 197.480469 93.007812 L 195.1875 88.847656 L 192.609375 83.828125 L 190.601562 79.667969 L 188.738281 75.363281 L 188.597656 74.789062 L 182.003906 74.933594 L 175.414062 75.363281 L 169.679688 75.792969 L 169.535156 76.511719 L 166.671875 83.253906 L 165.378906 86.265625 L 165.523438 87.125 L 167.960938 91.144531 L 169.824219 94.15625 L 171.257812 96.308594 L 173.40625 99.464844 L 175.269531 102.046875 L 177.273438 104.769531 L 179.28125 107.351562 L 180.859375 109.363281 L 182.863281 111.800781 L 185.445312 114.8125 L 185.300781 115.53125 L 183.4375 116.964844 L 179.855469 119.261719 L 177.273438 120.695312 L 174.980469 121.84375 L 172.832031 122.703125 L 171.113281 123.132812 L 170.109375 123.132812 L 168.964844 122.128906 L 167.671875 120.695312 L 166.382812 119.117188 L 164.378906 116.679688 L 162.65625 114.527344 L 161.367188 112.804688 L 159.074219 109.792969 L 157.5 107.496094 L 155.777344 105.058594 L 153.914062 102.1875 L 153.628906 101.757812 L 152.195312 102.046875 L 145.460938 103.765625 L 144.457031 103.910156 L 144.886719 102.621094 L 145.890625 100.46875 L 148.183594 95.304688 L 148.757812 93.867188 L 147.179688 91 L 145.460938 87.84375 L 143.882812 84.832031 L 142.308594 81.53125 L 141.878906 80.242188 L 136.574219 81.386719 L 134.570312 81.820312 L 133.707031 81.820312 L 133.851562 80.957031 L 134.855469 79.953125 L 137.148438 78.230469 L 139.011719 77.085938 L 139.585938 76.796875 L 140.015625 76.796875 L 139.441406 75.21875 L 139.441406 74.789062 L 132.992188 74.933594 L 127.976562 75.21875 L 120.523438 75.792969 L 120.09375 77.085938 L 115.796875 87.125 L 113.5 92.289062 L 111.640625 96.449219 L 110.921875 97.886719 L 109.917969 99.03125 L 107.914062 100.179688 L 105.90625 101.042969 L 102.898438 102.046875 L 97.882812 103.335938 L 95.875 103.910156 L 95.300781 103.910156 L 95.445312 103.191406 L 97.59375 98.460938 L 100.175781 92.578125 L 101.894531 88.5625 L 103.898438 83.828125 L 105.191406 80.8125 L 106.050781 78.519531 L 106.335938 77.800781 L 104.617188 77.945312 L 97.308594 79.234375 L 90.429688 80.671875 L 85.414062 81.820312 L 84.554688 81.820312 L 84.410156 81.246094 L 85.269531 80.242188 L 87.5625 78.519531 L 89.570312 77.226562 L 91.71875 76.082031 L 94.726562 74.933594 L 97.453125 74.070312 L 103.46875 72.636719 L 108.773438 71.488281 L 109.203125 70.773438 L 110.492188 67.472656 L 112.210938 63.027344 L 114.363281 57.289062 L 116.511719 51.40625 L 118.375 46.242188 L 120.382812 40.503906 L 122.101562 35.339844 L 124.535156 27.878906 L 125.96875 23.289062 L 126.6875 22.140625 L 127.976562 21.136719 L 131.558594 19.273438 L 136.289062 17.40625 L 139.296875 16.402344 Z M 212.386719 43.230469 L 210.378906 43.515625 L 208.085938 44.664062 L 205.652344 46.242188 L 203.070312 47.675781 L 201.636719 48.394531 L 199.34375 49.253906 L 198.34375 49.539062 L 198.484375 50.546875 L 199.632812 54.132812 L 201.496094 59.4375 L 203.644531 64.890625 L 204.359375 66.613281 L 211.238281 66.613281 L 217.976562 66.753906 L 217.402344 58.292969 L 216.542969 47.390625 L 216.113281 43.515625 L 215.683594 43.371094 Z M 130.699219 49.683594 L 129.121094 53.988281 L 127.257812 58.867188 L 125.683594 62.882812 L 123.820312 67.617188 L 123.246094 69.050781 L 126.113281 68.765625 L 133.707031 67.902344 L 136.429688 67.617188 L 132.992188 57.289062 L 130.984375 50.257812 Z M 180 49.683594 L 178.851562 52.554688 L 176.703125 58.292969 L 173.980469 65.175781 L 172.546875 68.765625 L 172.546875 69.050781 L 177.703125 68.476562 L 185.585938 67.617188 L 185.15625 66.039062 L 183.292969 60.730469 L 181.429688 54.707031 L 180.285156 50.546875 L 180.140625 49.683594 Z M 233.597656 51.691406 L 233.597656 53.269531 L 234.597656 70.054688 L 235.03125 81.101562 L 235.316406 89.566406 L 239.042969 88.847656 L 245.347656 87.414062 L 249.359375 86.410156 L 253.515625 85.117188 L 256.382812 83.96875 L 259.390625 82.390625 L 260.25 81.820312 L 262.976562 81.246094 L 264.121094 80.671875 L 263.976562 80.097656 L 262.832031 79.378906 L 261.683594 78.804688 L 260.25 76.367188 L 259.535156 75.507812 L 259.25 75.507812 L 258.960938 74.933594 L 256.527344 72.492188 L 255.378906 71.488281 L 253.375 69.480469 L 252.226562 68.476562 L 247.925781 64.460938 L 245.777344 62.308594 L 244.632812 61.304688 L 241.765625 58.433594 L 240.617188 57.429688 L 237.753906 54.847656 L 236.175781 53.558594 L 234.027344 51.835938 Z M 217.832031 69.335938 L 215.109375 71.058594 L 211.957031 72.78125 L 209.234375 73.929688 L 207.945312 74.503906 L 209.089844 76.796875 L 210.667969 80.097656 L 212.386719 83.253906 L 214.25 86.550781 L 216.972656 91.144531 L 218.976562 94.011719 L 219.121094 93.582031 L 218.835938 83.394531 L 218.261719 71.632812 L 218.117188 69.335938 Z M 79.394531 139.199219 L 81.832031 139.34375 L 84.125 139.917969 L 86.128906 140.921875 L 87.5625 142.070312 L 88.851562 143.648438 L 89.710938 145.082031 L 90.714844 147.808594 L 91.289062 150.390625 L 91.574219 152.683594 L 91.71875 154.695312 L 91.71875 160 L 91.289062 166.742188 L 90.859375 172.195312 L 90.714844 175.0625 L 90.140625 176.070312 L 88.851562 177.214844 L 86.558594 178.363281 L 83.695312 179.511719 L 78.964844 180.945312 L 74.664062 182.09375 L 74.523438 181.949219 L 74.523438 179.65625 L 75.238281 169.613281 L 75.382812 166.601562 L 75.382812 160.71875 L 75.09375 157.417969 L 74.378906 154.40625 L 73.375 152.113281 L 72.085938 149.960938 L 71.082031 148.957031 L 69.792969 148.382812 L 68.503906 148.382812 L 67.070312 149.097656 L 66.066406 149.960938 L 64.917969 151.539062 L 63.488281 153.832031 L 61.625 157.707031 L 60.046875 161.4375 L 58.46875 165.308594 L 56.179688 171.191406 L 54.171875 176.640625 L 52.164062 182.378906 L 49.871094 189.554688 L 47.722656 197.15625 L 45.714844 205.191406 L 44.570312 210.496094 L 44.425781 210.785156 L 48.582031 209.0625 L 52.882812 207.199219 L 62.054688 202.894531 L 66.066406 201.03125 L 70.9375 198.878906 L 74.953125 197.300781 L 78.246094 196.152344 L 81.398438 195.148438 L 85.554688 194.144531 L 86.988281 193.714844 L 89.710938 192.277344 L 94.441406 190.128906 L 97.164062 188.980469 L 100.605469 187.6875 L 104.902344 186.253906 L 109.488281 185.105469 L 114.933594 184.101562 L 119.234375 183.527344 L 124.96875 181.949219 L 125.539062 182.09375 L 125.683594 183.097656 L 128.40625 182.953125 L 129.695312 182.523438 L 133.566406 180.515625 L 136.71875 179.082031 L 139.15625 178.078125 L 142.738281 176.929688 L 146.75 175.925781 L 149.1875 175.496094 L 153.773438 175.0625 L 155.636719 175.0625 L 157.785156 174.492188 L 158.359375 174.632812 L 158.5 175.496094 L 160.363281 175.78125 L 162.800781 176.355469 L 165.667969 177.359375 L 168.246094 178.507812 L 170.96875 179.941406 L 173.40625 181.519531 L 175.84375 183.242188 L 177.847656 184.820312 L 179.855469 186.539062 L 181.429688 187.832031 L 183.582031 189.839844 L 185.445312 191.5625 L 186.445312 192.566406 L 186.875 192.851562 L 186.875 193.140625 L 187.449219 193.425781 L 189.457031 195.433594 L 190.601562 196.4375 L 191.605469 197.441406 L 192.753906 198.449219 L 194.328125 199.738281 L 196.621094 201.605469 L 198.199219 202.894531 L 200.0625 204.617188 L 201.78125 206.480469 L 203.214844 208.632812 L 203.929688 210.496094 L 204.074219 211.070312 L 204.074219 213.078125 L 203.5 214.65625 L 202.929688 215.519531 L 201.925781 216.667969 L 199.917969 218.101562 L 197.625 219.390625 L 193.757812 221.257812 L 189.742188 223.121094 L 184.011719 225.5625 L 185.875 227.425781 L 187.019531 228.429688 L 188.597656 229.863281 L 189.742188 230.867188 L 191.175781 232.160156 L 192.753906 233.449219 L 194.902344 235.316406 L 196.910156 237.035156 L 198.484375 238.328125 L 200.777344 240.191406 L 202.355469 241.484375 L 206.367188 244.640625 L 208.230469 246.074219 L 211.238281 248.371094 L 213.960938 250.378906 L 219.121094 254.109375 L 222.417969 256.402344 L 228.582031 260.5625 L 234.742188 264.582031 L 235.460938 264.867188 L 235.460938 265.296875 L 233.882812 266.160156 L 231.015625 268.167969 L 227.148438 270.75 L 223.5625 272.613281 L 221.414062 273.1875 L 220.269531 273.1875 L 218.40625 272.183594 L 215.96875 270.605469 L 213.101562 268.742188 L 207.945312 265.296875 L 204.648438 263.003906 L 202.210938 261.28125 L 200.632812 260.132812 L 198.628906 258.699219 L 195.90625 256.691406 L 190.460938 252.53125 L 188.597656 251.09375 L 187.019531 249.804688 L 184.726562 247.941406 L 183.292969 246.792969 L 180.859375 244.785156 L 178.851562 243.0625 L 177.273438 241.769531 L 175.84375 240.480469 L 174.265625 239.1875 L 172.257812 237.324219 L 171.113281 236.320312 L 169.394531 234.742188 L 167.816406 233.308594 L 167.101562 232.589844 L 167.671875 232.015625 L 169.535156 230.726562 L 162.800781 232.734375 L 161.65625 233.019531 L 161.796875 239.761719 L 161.796875 255.972656 L 161.65625 261.710938 L 160.9375 262.859375 L 159.792969 263.71875 L 157.5 264.867188 L 155.492188 265.726562 L 152.339844 266.730469 L 146.320312 268.453125 L 145.601562 268.597656 L 145.460938 268.308594 L 145.460938 245.644531 L 145.171875 231.441406 L 144.742188 219.535156 L 144.027344 206.195312 L 143.3125 195.722656 L 143.3125 195.003906 L 141.878906 195.433594 L 140.300781 195.867188 L 138.867188 195.867188 L 137.722656 195.292969 L 135.570312 194.144531 L 132.5625 192.996094 L 129.410156 192.136719 L 126.6875 191.5625 L 126.972656 192.851562 L 127.976562 198.589844 L 129.121094 204.328125 L 130.984375 212.21875 L 132.992188 219.25 L 134.570312 224.269531 L 136.144531 228.859375 L 137.578125 232.734375 L 137.578125 233.59375 L 135.859375 235.171875 L 133.277344 236.605469 L 129.695312 238.328125 L 126.398438 239.621094 L 124.105469 240.335938 L 121.8125 240.765625 L 121.242188 240.050781 L 119.234375 234.597656 L 116.65625 226.707031 L 115.363281 222.261719 L 113.359375 214.226562 L 112.070312 208.203125 L 110.921875 201.890625 L 109.917969 194.859375 L 109.488281 191.273438 L 109.488281 190.558594 L 105.90625 190.988281 L 101.320312 191.707031 L 97.738281 192.566406 L 95.015625 193.425781 L 93.582031 194 L 94.011719 194.289062 L 96.304688 195.433594 L 97.738281 196.871094 L 98.882812 199.019531 L 99.3125 200.886719 L 99.3125 203.613281 L 98.742188 206.480469 L 97.738281 209.351562 L 95.730469 213.222656 L 93.296875 217.238281 L 91.71875 219.824219 L 89.140625 223.695312 L 87.5625 225.992188 L 85.699219 228.574219 L 84.125 230.726562 L 82.117188 233.308594 L 80.539062 235.316406 L 78.820312 237.324219 L 77.246094 239.1875 L 75.523438 241.195312 L 73.519531 243.347656 L 72.226562 244.785156 L 71.082031 245.929688 L 70.078125 247.078125 L 65.351562 251.8125 L 64.203125 252.816406 L 63.054688 253.964844 L 61.910156 254.96875 L 60.046875 256.691406 L 58.46875 257.980469 L 56.894531 259.414062 L 54.886719 260.992188 L 52.453125 263.003906 L 50.160156 264.722656 L 47.4375 266.730469 L 44.855469 268.597656 L 39.695312 272.039062 L 36.6875 273.90625 L 34.824219 275.050781 L 31.671875 276.917969 L 27.660156 278.925781 L 25.078125 279.929688 L 21.925781 280.789062 L 20.78125 280.933594 L 17.054688 280.933594 L 15.335938 280.503906 L 13.042969 279.355469 L 11.464844 278.207031 L 9.601562 276.488281 L 8.3125 274.910156 L 6.878906 272.757812 L 5.300781 269.746094 L 3.871094 266.015625 L 2.867188 262.714844 L 2.007812 258.984375 L 1.148438 254.109375 L 0.285156 246.648438 L 0.144531 244.640625 L 0 244.210938 L 0 234.167969 L 0.859375 231.585938 L 2.148438 229.148438 L 4.15625 226.996094 L 5.589844 225.992188 L 7.738281 224.84375 L 9.886719 224.125 L 12.46875 223.550781 L 14.90625 223.265625 L 20.921875 223.265625 L 24.9375 223.695312 L 29.664062 224.554688 L 34.109375 225.703125 L 39.554688 227.570312 L 43.421875 229.289062 L 43.710938 229.863281 L 41.988281 230.726562 L 39.554688 232.445312 L 36.6875 234.453125 L 33.820312 236.175781 L 31.671875 237.179688 L 30.238281 237.609375 L 28.519531 237.609375 L 26.941406 236.894531 L 22.785156 234.886719 L 18.773438 233.308594 L 15.621094 232.304688 L 15.765625 234.886719 L 16.480469 240.191406 L 17.628906 246.21875 L 18.628906 250.953125 L 19.777344 254.96875 L 21.351562 259.128906 L 23.359375 263.289062 L 25.222656 266.589844 L 27.371094 270.03125 L 28.804688 272.039062 L 29.808594 272.902344 L 30.667969 273.042969 L 31.957031 272.328125 L 33.535156 271.035156 L 35.398438 269.457031 L 37.691406 267.738281 L 40.125 265.726562 L 41.703125 264.4375 L 45.714844 260.992188 L 48.007812 258.84375 L 49.441406 257.550781 L 51.878906 255.253906 L 54.746094 252.386719 L 55.746094 251.238281 L 57.039062 249.949219 L 57.179688 249.660156 L 57.46875 249.660156 L 57.753906 249.085938 L 60.046875 246.648438 L 61.335938 245.070312 L 62.625 243.636719 L 63.917969 242.058594 L 65.78125 239.761719 L 67.355469 237.753906 L 69.074219 235.601562 L 70.652344 233.449219 L 72.515625 230.867188 L 74.234375 228.429688 L 76.097656 225.5625 L 77.816406 222.835938 L 79.25 220.253906 L 80.828125 217.238281 L 82.117188 213.652344 L 82.832031 210.929688 L 83.121094 208.777344 L 83.121094 207.054688 L 82.691406 205.046875 L 81.972656 203.613281 L 80.96875 202.75 L 79.25 202.035156 L 78.246094 201.890625 L 76.242188 201.890625 L 74.089844 202.175781 L 70.507812 203.179688 L 67.5 204.328125 L 64.203125 205.765625 L 61.910156 206.910156 L 59.1875 208.203125 L 56.464844 209.636719 L 53.023438 211.214844 L 48.4375 213.078125 L 42.5625 215.230469 L 39.695312 216.234375 L 32.675781 218.675781 L 29.664062 219.535156 L 28.089844 219.679688 L 28.089844 218.53125 L 29.234375 213.222656 L 31.097656 205.765625 L 32.960938 199.308594 L 34.25 195.148438 L 35.972656 189.984375 L 37.835938 184.53125 L 40.414062 177.503906 L 42.707031 171.335938 L 44.28125 167.316406 L 46.144531 163.015625 L 47.722656 159.859375 L 49.871094 156.414062 L 51.304688 154.40625 L 53.167969 152.253906 L 54.171875 151.105469 L 54.457031 151.105469 L 54.601562 150.675781 L 57.753906 148.09375 L 59.902344 146.660156 L 62.054688 145.367188 L 65.636719 143.359375 L 69.648438 141.496094 L 72.515625 140.492188 L 74.953125 139.773438 L 77.53125 139.34375 Z M 137.433594 182.523438 L 136.289062 182.8125 L 136.289062 182.953125 L 141.160156 183.382812 L 142.308594 183.527344 L 142.308594 182.8125 L 141.015625 182.523438 Z M 159.792969 190.84375 L 159.792969 192.566406 L 160.652344 207.054688 L 160.9375 212.648438 L 161.511719 228.714844 L 162.65625 228.574219 L 169.824219 226.996094 L 174.121094 225.992188 L 177.992188 224.84375 L 180.570312 223.984375 L 183.867188 222.546875 L 186.015625 221.257812 L 187.019531 220.828125 L 189.3125 220.394531 L 190.171875 219.964844 L 190.316406 219.535156 L 189.742188 218.960938 L 187.878906 217.957031 L 186.445312 215.519531 L 180.570312 209.636719 L 180.285156 209.636719 L 180 209.0625 L 178.851562 208.058594 L 176.414062 205.765625 L 174.980469 204.472656 L 172.546875 202.035156 L 171.398438 201.03125 L 168.964844 198.589844 L 167.816406 197.585938 L 165.667969 195.578125 L 164.519531 194.574219 L 163.085938 193.28125 L 161.082031 191.707031 Z M 159.792969 190.84375 "/>
<path style=" stroke:none;fill-rule:nonzero;fill:rgb(99.607843%,99.607843%,99.607843%);fill-opacity:1;" d="M 440.105469 0.0507812 L 444.261719 0.0507812 L 447.128906 0.910156 L 448.707031 1.769531 L 450.136719 2.917969 L 451.429688 4.496094 L 452.574219 6.648438 L 453.292969 8.800781 L 453.863281 11.382812 L 454.292969 15.828125 L 454.292969 20.277344 L 453.863281 27.160156 L 453.433594 32.183594 L 453.292969 35.769531 L 452.71875 36.917969 L 451.714844 37.777344 L 450.28125 38.636719 L 447.703125 39.785156 L 442.972656 41.363281 L 437.8125 42.796875 L 437.097656 42.796875 L 437.097656 40.214844 L 437.8125 29.886719 L 437.957031 27.160156 L 437.957031 21.710938 L 437.671875 18.554688 L 437.097656 15.6875 L 435.949219 12.960938 L 434.660156 10.808594 L 433.65625 9.804688 L 432.511719 9.230469 L 431.652344 9.085938 L 430.503906 9.375 L 428.929688 10.519531 L 427.925781 11.667969 L 426.492188 13.820312 L 424.914062 16.832031 L 423.054688 21.136719 L 420.902344 26.445312 L 418.753906 31.894531 L 416.746094 37.347656 L 414.597656 43.515625 L 412.734375 49.398438 L 410.871094 55.710938 L 409.007812 62.738281 L 407.144531 71.058594 L 407.144531 71.488281 L 411.445312 69.769531 L 415.3125 68.046875 L 428.210938 62.023438 L 433.371094 59.726562 L 438.53125 57.71875 L 443.832031 55.996094 L 447.988281 54.992188 L 451 54.5625 L 453.863281 54.5625 L 456.300781 54.992188 L 458.59375 56.140625 L 460.027344 57.429688 L 460.886719 58.722656 L 461.460938 60.011719 L 461.890625 62.023438 L 461.890625 64.171875 L 461.316406 67.1875 L 460.3125 70.054688 L 458.738281 73.210938 L 456.730469 76.652344 L 454.867188 79.667969 L 453.863281 81.246094 L 450.425781 86.410156 L 448.707031 88.703125 L 447.273438 90.710938 L 445.839844 92.578125 L 442.6875 96.59375 L 440.964844 98.601562 L 439.675781 100.179688 L 438.242188 101.757812 L 437.242188 102.90625 L 435.949219 104.339844 L 434.230469 106.207031 L 433.085938 107.351562 L 432.082031 108.5 L 429.789062 110.796875 L 429.5 110.796875 L 429.5 111.082031 L 428.785156 111.800781 L 427.066406 113.378906 L 424.628906 115.675781 L 423.195312 116.964844 L 419.183594 120.40625 L 417.605469 121.699219 L 415.3125 123.5625 L 412.449219 125.714844 L 410.011719 127.582031 L 407.289062 129.445312 L 405.855469 130.449219 L 404.136719 131.597656 L 401.269531 133.460938 L 397.828125 135.613281 L 395.394531 137.046875 L 392.242188 138.769531 L 389.089844 140.203125 L 386.078125 141.207031 L 384.070312 141.640625 L 383.070312 141.78125 L 379.917969 141.78125 L 377.625 141.207031 L 375.332031 140.0625 L 373.898438 138.914062 L 372.175781 137.335938 L 370.457031 135.183594 L 369.3125 133.320312 L 368.453125 131.882812 L 367.449219 129.589844 L 366.445312 127.007812 L 365.585938 124.136719 L 364.296875 124.855469 L 361.714844 126.433594 L 358.277344 128.296875 L 356.125 129.300781 L 353.832031 130.164062 L 352.113281 130.59375 L 350.824219 130.59375 L 349.964844 129.589844 L 345.953125 123.5625 L 342.941406 118.972656 L 340.792969 115.675781 L 339.214844 113.234375 L 337.210938 110.078125 L 335.058594 106.636719 L 332.765625 102.90625 L 330.332031 98.890625 L 328.609375 96.019531 L 326.75 92.863281 L 324.597656 89.132812 L 323.164062 86.550781 L 321.160156 82.824219 L 319.4375 79.523438 L 317.71875 76.367188 L 315.855469 73.066406 L 313.5625 69.195312 L 312.417969 66.898438 L 311.699219 65.75 L 311.699219 65.464844 L 310.410156 65.464844 L 309.265625 66.039062 L 308.261719 67.472656 L 307.257812 69.769531 L 305.96875 73.496094 L 305.394531 74.359375 L 304.25 75.363281 L 303.53125 75.792969 L 303.675781 78.949219 L 304.25 88.417969 L 304.535156 93.007812 L 304.535156 95.015625 L 303.960938 96.019531 L 302.816406 97.023438 L 300.378906 98.316406 L 298.230469 99.175781 L 293.5 100.753906 L 288.769531 102.046875 L 288.339844 101.902344 L 287.910156 95.734375 L 287.335938 86.121094 L 286.191406 70.34375 L 285.042969 56.855469 L 283.898438 44.664062 L 282.75 33.761719 L 282.320312 29.886719 L 282.320312 28.882812 L 282.894531 28.023438 L 284.183594 26.875 L 287.195312 25.296875 L 290.921875 23.863281 L 295.21875 22.570312 L 298.230469 21.855469 L 298.515625 21.996094 L 298.945312 25.441406 L 300.378906 39.210938 L 301.523438 51.550781 L 302.386719 61.878906 L 302.386719 63.601562 L 304.679688 62.164062 L 307.402344 60.585938 L 310.410156 58.867188 L 312.558594 57.71875 L 315.28125 56.425781 L 318.007812 55.421875 L 320.300781 54.847656 L 324.023438 54.847656 L 325.316406 55.421875 L 326.75 56.425781 L 327.894531 57.71875 L 328.898438 59.296875 L 330.617188 62.59375 L 332.335938 66.324219 L 334.058594 69.480469 L 336.207031 73.355469 L 340.21875 80.382812 L 342.082031 83.539062 L 343.800781 86.550781 L 346.8125 91.574219 L 348.675781 94.730469 L 350.539062 97.742188 L 354.835938 104.628906 L 357.128906 108.214844 L 359.28125 111.515625 L 361.859375 115.386719 L 364.296875 119.117188 L 364.007812 116.820312 L 363.4375 113.089844 L 362.71875 106.347656 L 362.574219 104.628906 L 362.433594 99.894531 L 360.425781 99.894531 L 357.558594 99.175781 L 355.265625 98.171875 L 353.117188 96.882812 L 351.253906 95.445312 L 350.109375 94.441406 L 349.105469 93.582031 L 349.105469 93.292969 L 348.816406 93.292969 L 348.246094 92.289062 L 346.953125 90.710938 L 345.523438 88.5625 L 344.089844 86.121094 L 342.367188 82.824219 L 340.363281 77.800781 L 339.359375 74.789062 L 338.210938 70.628906 L 337.210938 65.464844 L 336.636719 60.585938 L 336.636719 57.289062 L 337.210938 56.425781 L 338.644531 55.136719 L 341.078125 53.84375 L 345.09375 52.410156 L 352.257812 50.402344 L 352.832031 50.402344 L 353.117188 55.710938 L 353.546875 59.582031 L 354.40625 63.886719 L 355.554688 67.761719 L 356.84375 71.203125 L 358.5625 74.933594 L 360.570312 78.375 L 362.863281 81.820312 L 364.152344 83.539062 L 366.015625 85.835938 L 367.304688 87.269531 L 368.59375 86.550781 L 370.601562 85.546875 L 371.605469 85.117188 L 371.890625 82.679688 L 372.175781 77.371094 L 372.175781 71.921875 L 371.890625 67.902344 L 371.316406 63.457031 L 370.171875 57.71875 L 369.597656 55.566406 L 369.597656 54.707031 L 370.3125 53.703125 L 371.746094 52.695312 L 374.039062 51.40625 L 377.195312 49.972656 L 380.777344 48.679688 L 383.785156 47.820312 L 384.503906 47.675781 L 385.648438 47.675781 L 385.933594 48.105469 L 386.796875 51.835938 L 387.65625 56.285156 L 388.226562 60.585938 L 388.515625 63.457031 L 388.65625 66.613281 L 388.65625 69.335938 L 388.515625 72.492188 L 387.941406 77.226562 L 387.226562 80.957031 L 386.222656 84.402344 L 387.796875 84.542969 L 392.957031 85.546875 L 396.683594 86.550781 L 401.84375 88.273438 L 406 90.140625 L 406.285156 90.710938 L 404.996094 91.285156 L 403.417969 92.289062 L 401.269531 93.867188 L 398.261719 95.878906 L 396.253906 97.023438 L 394.105469 98.027344 L 392.671875 98.460938 L 391.238281 98.460938 L 389.804688 97.886719 L 386.078125 96.019531 L 382.210938 94.441406 L 379.773438 93.582031 L 378.914062 93.726562 L 378.339844 94.15625 L 378.339844 96.019531 L 378.914062 100.324219 L 380.203125 107.210938 L 381.0625 111.371094 L 382.066406 114.957031 L 383.070312 117.824219 L 384.214844 120.550781 L 385.933594 124.136719 L 387.796875 127.4375 L 389.949219 130.878906 L 391.382812 132.886719 L 392.242188 133.605469 L 392.671875 133.894531 L 393.386719 133.75 L 394.820312 132.886719 L 396.398438 131.597656 L 398.117188 130.164062 L 400.554688 128.296875 L 402.988281 126.289062 L 404.851562 124.710938 L 405.710938 123.996094 L 406 123.996094 L 406 123.707031 L 407.574219 122.417969 L 409.582031 120.550781 L 410.726562 119.546875 L 412.878906 117.539062 L 414.023438 116.390625 L 414.3125 116.390625 L 414.453125 115.960938 L 415.171875 115.386719 L 416.03125 114.382812 L 416.316406 114.382812 L 416.460938 113.953125 L 416.746094 113.953125 L 417.035156 113.378906 L 419.183594 111.226562 L 420.1875 110.078125 L 421.761719 108.359375 L 423.054688 106.921875 L 424.773438 104.914062 L 426.0625 103.335938 L 428.070312 100.898438 L 429.214844 99.464844 L 430.792969 97.453125 L 434.230469 92.863281 L 435.949219 90.425781 L 438.816406 86.121094 L 440.394531 83.539062 L 442.113281 80.527344 L 443.6875 77.226562 L 444.550781 74.789062 L 445.265625 72.351562 L 445.695312 69.335938 L 445.550781 67.1875 L 445.121094 65.609375 L 444.261719 64.171875 L 442.972656 63.3125 L 441.96875 62.882812 L 441.109375 62.738281 L 438.386719 62.738281 L 435.949219 63.167969 L 432.511719 64.171875 L 429.644531 65.320312 L 426.777344 66.613281 L 422.621094 68.621094 L 418.324219 70.773438 L 414.167969 72.636719 L 408.578125 74.789062 L 404.277344 76.367188 L 395.539062 79.378906 L 392.242188 80.382812 L 390.808594 80.527344 L 390.664062 80.382812 L 390.664062 79.234375 L 391.953125 73.210938 L 393.242188 68.046875 L 395.394531 60.445312 L 397.972656 52.265625 L 400.125 46.097656 L 401.414062 42.511719 L 403.277344 37.492188 L 404.851562 33.1875 L 407.289062 27.019531 L 408.578125 24.148438 L 409.726562 21.855469 L 411.15625 19.128906 L 412.589844 16.976562 L 414.3125 14.679688 L 416.03125 12.671875 L 417.75 10.953125 L 419.328125 9.660156 L 421.90625 7.796875 L 424.773438 6.074219 L 427.351562 4.640625 L 429.644531 3.492188 L 432.511719 2.199219 L 436.378906 0.910156 Z M 272.433594 182.667969 L 273.4375 182.8125 L 273.578125 183.242188 L 272.863281 184.101562 L 270.285156 185.96875 L 267.273438 187.832031 L 264.550781 189.121094 L 262.113281 189.984375 L 259.105469 190.699219 L 227.433594 194.574219 L 226.429688 194.574219 L 226.71875 196.152344 L 228.148438 205.90625 L 229.011719 210.929688 L 229.011719 211.644531 L 231.589844 210.640625 L 239.328125 207.914062 L 244.058594 206.195312 L 248.789062 204.617188 L 249.789062 204.757812 L 250.21875 205.191406 L 249.789062 205.90625 L 248.929688 206.910156 L 247.066406 208.058594 L 242.195312 210.496094 L 238.324219 212.074219 L 234.167969 213.511719 L 229.871094 215.089844 L 230.011719 216.523438 L 231.445312 223.265625 L 232.304688 226.707031 L 233.308594 229.433594 L 234.597656 231.871094 L 235.460938 233.019531 L 235.316406 234.3125 L 235.03125 235.027344 L 236.320312 234.3125 L 239.183594 232.445312 L 245.492188 228.429688 L 248.5 226.566406 L 252.371094 224.554688 L 254.804688 223.695312 L 256.527344 223.410156 L 258.53125 223.410156 L 259.105469 223.695312 L 258.960938 224.269531 L 257.671875 225.273438 L 255.234375 226.851562 L 251.078125 229.578125 L 248.644531 231.15625 L 245.0625 233.449219 L 241.90625 235.316406 L 239.328125 236.75 L 236.320312 238.328125 L 232.304688 240.191406 L 229.441406 241.339844 L 226.429688 242.203125 L 225.285156 242.34375 L 222.847656 242.34375 L 221.273438 241.914062 L 219.695312 241.054688 L 217.976562 239.332031 L 216.6875 237.035156 L 215.683594 234.167969 L 214.824219 230.292969 L 213.675781 223.695312 L 212.53125 217.527344 L 211.097656 208.777344 L 209.664062 198.015625 L 209.519531 196.152344 L 207.65625 196.4375 L 204.359375 197.300781 L 199.917969 199.019531 L 197.625 199.738281 L 196.910156 199.738281 L 196.765625 199.164062 L 197.910156 197.875 L 200.0625 196.296875 L 202.210938 195.003906 L 204.21875 193.855469 L 207.800781 192.277344 L 210.953125 191.132812 L 216.113281 189.554688 L 220.839844 188.40625 L 227.578125 187.113281 L 234.597656 186.109375 L 242.625 185.25 L 258.675781 183.957031 L 266.699219 183.242188 Z M 272.433594 182.667969 "/>
</g>
</svg>
